<?xml version="1.0" standalone="no"?><!DOCTYPE svg PUBLIC "-//W3C//DTD SVG 1.1//EN" "http://www.w3.org/Graphics/SVG/1.1/DTD/svg11.dtd"><svg t="1582599668047" class="icon" viewBox="0 0 1024 1024" version="1.1" xmlns="http://www.w3.org/2000/svg" p-id="5524" xmlns:xlink="http://www.w3.org/1999/xlink" width="200" height="200"><defs><style type="text/css"></style></defs><path d="M366.068513 801.050794c-32.423989 0-58.822462 26.39745-58.822462 58.821438 0 32.423989 26.398473 58.821438 58.822462 58.821438 32.46083 0 58.858279-26.39745 58.858279-58.821438C424.926792 827.448244 398.529343 801.050794 366.068513 801.050794z" p-id="5525" fill="#ffffff"></path><path d="M770.88842 801.050794c-32.442409 0-58.839859 26.39745-58.839859 58.821438 0 32.423989 26.39745 58.821438 58.839859 58.821438 32.442409 0 58.877723-26.39745 58.877723-58.821438C829.767167 827.448244 803.350273 801.050794 770.88842 801.050794z" p-id="5526" fill="#ffffff"></path><path d="M828.287395 714.296873 358.600066 714.296873c-11.83101 0-23.532055-11.147409-25.030247-23.717282l-49.245903-346.81306-27.894618-160.937969c-5.213995-42.480501-42.684149-75.754898-85.294616-75.754898l-36.841814 0c-16.470903 0-29.910628 13.402884-29.910628 29.892208 0 16.489324 13.421305 29.909605 29.910628 29.909605l36.841814 0c12.311987 0 24.512429 11.553681 26.102723 24.622952l27.94988 161.58473 49.043279 345.149084c5.157711 42.535762 42.240013 75.866444 84.369503 75.866444l0-0.01842 469.688352-0.001023c16.470903 0 29.891185-13.38344 29.891185-29.854344C858.179603 727.735575 844.777742 714.296873 828.287395 714.296873z" p-id="5527" fill="#ffffff"></path><path d="M922.046183 273.245072c2.915539-16.188457-7.944307-31.820209-24.132764-34.735748l0 0c-16.188457-2.915539-31.820209 7.944307-34.735748 24.132764l-51.110456 283.773351-0.048098-0.007163c-1.589271 12.995589-13.512383 23.29259-27.007369 23.403112l-392.454706 28.911834c-7.966821 0.591499-15.25004 4.233621-20.407751 10.259137-5.249813 6.06338-7.782617 13.790736-7.191118 21.74016 1.109317 15.564211 14.215428 27.728835 29.780662 27.728835l2.200214-0.074705 390.272912-28.818708c20.260388-0.074705 40.07664-7.801037 55.827101-21.777 13.849067-12.361109 23.246539-28.369455 26.962342-45.84427 0.125873-0.531121 0.240488-1.06736 0.338731-1.610761l0.268119-1.488982c0.005117-0.027631 0.010234-0.054238 0.014327-0.080845L922.046183 273.245072z" p-id="5528" fill="#ffffff"></path></svg>