<?xml version="1.0" encoding="UTF-8"?>
<svg width="305px" height="176px" viewBox="0 0 305 176" version="1.1" xmlns="http://www.w3.org/2000/svg" xmlns:xlink="http://www.w3.org/1999/xlink">
    <!-- Generator: Sketch 54 (76480) - https://sketchapp.com -->
    <title>cookie warning</title>
    <desc>Created with Sketch.</desc>
    <g id="Page-1" stroke="none" stroke-width="1" fill="none" fill-rule="evenodd">
        <g id="cookie-warning">
            <rect id="矩形" fill="#EEEBEB" x="61" y="0" width="244" height="52" rx="26"></rect>
            <rect id="矩形" fill="#EEEBEB" x="0" y="40" width="244" height="52" rx="26"></rect>
            <rect id="矩形" fill="#EEEBEB" x="49" y="82" width="244" height="53" rx="26.5"></rect>
            <rect id="矩形" fill="#EEEBEB" x="20" y="124" width="245" height="52" rx="26"></rect>
            <g transform="translate(92.000000, 8.000000)" fill="#375A7D" stroke-width="1">
                <g id="24gl-clipboardWarning">
                    <path d="M118.333333,146.770833 L8.33333328,146.770833 C3.73310215,146.765667 0.0051665464,143.037731 2.84217094e-14,138.4375 L2.84217094e-14,28.4375 C0.0051665464,23.8372689 3.73310215,20.1093333 8.33333328,20.1041667 L16.6666667,20.1041667 C18.5076159,20.1041667 20,21.5965509 20,23.4375 C20,25.2784491 18.5076159,26.7708333 16.6666667,26.7708333 L8.33333328,26.7708333 C7.41285873,26.7708334 6.66666672,27.5170254 6.66666672,28.4375 L6.66666672,138.4375 C6.66666672,139.357975 7.41285873,140.104167 8.33333328,140.104167 L118.333333,140.104167 C119.253808,140.104167 120,139.357975 120,138.4375 L120,28.4375 C120,27.5170254 119.253808,26.7708333 118.333333,26.7708333 L110,26.7708333 C108.159051,26.7708333 106.666667,25.2784491 106.666667,23.4375 C106.666667,21.5965509 108.159051,20.1041667 110,20.1041667 L118.333333,20.1041667 C122.933564,20.1093332 126.6615,23.8372688 126.666667,28.4375 L126.666667,138.4375 C126.6615,143.037731 122.933564,146.765667 118.333333,146.770833 L118.333333,146.770833 Z M100,30.1041667 C100,26.034375 97.9260417,22.16875 94.003125,18.925 C90.9510417,16.4010417 86.8072917,14.2895833 81.9427083,12.771875 C80.596978,9.38318752 78.3587414,6.4221496 75.465625,4.203125 C68.3011717,-1.26364651 58.365495,-1.26364651 51.2010417,4.203125 C48.3079252,6.42214958 46.0696886,9.3831875 44.7239583,12.771875 C39.859375,14.2895833 35.7166666,16.4010417 32.6635417,18.925 C28.740625,22.16875 26.6666667,26.034375 26.6666667,30.1041667 C26.6666667,31.9451159 28.1590509,33.4375 30,33.4375 L96.6666667,33.4375 C98.5076159,33.4375 100,31.9451159 100,30.1041667 L100,30.1041667 Z M36.9125,24.0625 C39.5947917,21.8447917 43.496875,19.9895833 48.1979167,18.7 C49.3179437,18.3926053 50.1972157,17.5243834 50.51875,16.4083333 C52.1520833,10.7291667 57.421875,6.77083328 63.3333333,6.77083328 C69.2447916,6.77083328 74.5145833,10.7291666 76.1458333,16.4072917 C76.4673676,17.5233418 77.3466397,18.3915636 78.4666667,18.6989583 C83.1677084,19.9885416 87.0697917,21.84375 89.7520833,24.0614583 C90.6052083,24.7666666 91.5427083,25.6875 92.2447917,26.7697917 L34.4197917,26.7697917 C35.121875,25.6885417 36.059375,24.7677084 36.9125,24.0625 L36.9125,24.0625 Z M66.6666667,96.7708333 L66.6666667,63.4375 C66.6666667,61.5965508 65.1742825,60.1041666 63.3333334,60.1041666 C61.4923842,60.1041666 60,61.5965508 60,63.4375 L60,96.7708333 C60.0000001,98.6117824 61.4923843,100.104166 63.3333334,100.104166 C65.1742825,100.104166 66.6666666,98.6117824 66.6666667,96.7708333 L66.6666667,96.7708333 Z M63.3333333,106.770833 C61.4923842,106.770833 60.0000001,108.263218 60.0000002,110.104167 C60.0000002,111.945116 61.4923843,113.4375 63.3333334,113.4375 C65.1742825,113.4375 66.6666666,111.945116 66.6666667,110.104167 C66.6666668,109.220112 66.3154773,108.372265 65.690356,107.747144 C65.0652347,107.122023 64.2173883,106.770833 63.3333333,106.770833 Z" id="形状" fill-rule="nonzero"></path>
                </g>
                <g id="setting-2" transform="translate(72.800000, 93.600000)">
                    <path d="M15.5967724,5.21533673 L22.759392,10.8367354 C24.2048484,10.1484071 25.7130737,9.60012992 27.2633515,9.19943481 L29.1296679,0.295038569 C32.0954682,-0.0983461896 35.1003283,-0.0983461896 38.0661287,0.295038569 L39.9366485,9.19943481 C41.500319,9.60456175 43.0051417,10.1545268 44.4385063,10.8367354 L51.6011259,5.21533673 C54.1265837,6.81802089 56.4277528,8.74857943 58.444286,10.9563843 L54.1483956,18.977058 C55.0731469,20.2722048 55.8759992,21.657613 56.5443423,23.1185889 L65.6552449,23.4124633 C66.5421655,26.2000725 67.0759992,29.1493127 67.2,32.2014089 L58.7427285,35.5872625 C58.616626,37.2056712 58.3349972,38.7799987 57.9146557,40.2997494 L64.705273,46.3703562 C63.5648548,49.1327878 62.0600317,51.7306682 60.2307375,54.0950564 L51.571702,51.2612669 C50.4497098,52.3988214 49.2224456,53.4277712 47.9063239,54.3343542 L49.2009758,63.3479038 C46.5510987,64.7365755 43.726324,65.7631353 40.8025521,66.4 L35.993845,58.6648043 C34.4014741,58.8146425 32.7985259,58.8146425 31.206155,58.6648043 L26.3974479,66.4 C23.4743983,65.7629554 20.6503418,64.7363996 18.0011259,63.3479038 L19.2936761,54.3343542 C17.9774774,53.4270871 16.7502119,52.3974334 15.628298,51.2591678 L6.96926253,54.0971555 C5.13984852,51.7320883 3.63502324,49.1334984 2.49472697,46.3703562 L9.28324263,40.2976503 C8.86500281,38.7778995 8.5854757,37.2035721 8.45727153,35.5851634 L0,32.2014089 C0.126102458,29.1493127 0.655732783,26.2000725 1.54475511,23.4103642 L10.653556,23.1164898 C11.3240008,21.657613 12.1268531,20.2722048 13.0516044,18.977058 L8.75361231,10.9584834 C10.7701455,8.75067853 13.0713146,6.82011999 15.5967724,5.21743583 L15.5967724,5.21533673 Z M33.6,46.1814369 C40.5644465,46.1814369 46.2102458,40.5426335 46.2102458,33.5868171 C46.2102458,26.6310006 40.5644465,20.9921972 33.6,20.9921972 C26.6355535,20.9921972 20.9897542,26.6310006 20.9897542,33.5868171 C20.9897542,40.5426335 26.6355535,46.1814369 33.6,46.1814369 Z" id="形状" fill-rule="nonzero"></path>
                </g>
            </g>
        </g>
    </g>
</svg>