<?xml version="1.0" encoding="UTF-8"?>
<svg width="173px" height="17px" viewBox="0 0 173 17" version="1.1" xmlns="http://www.w3.org/2000/svg" xmlns:xlink="http://www.w3.org/1999/xlink">
    <!-- Generator: Sketch 54 (76480) - https://sketchapp.com -->
    <title>zoom in</title>
    <desc>Created with Sketch.</desc>
    <g id="Page-1" stroke="none" stroke-width="1" fill="none" fill-rule="evenodd">
        <g id="PDP" transform="translate(-561.000000, -927.000000)" fill="#000000">
            <g id="zoom-in" transform="translate(497.000000, 925.000000)">
                <text id="Roll-over-image-to-z" font-family="Helvetica" font-size="12" font-weight="normal">
                    <tspan x="98.8066406" y="11">Roll over image to zoom</tspan>
                </text>
                <g id="Shape" transform="translate(72.500000, 10.500000) scale(-1, 1) translate(-72.500000, -10.500000) translate(64.000000, 2.000000)" fill-rule="evenodd">
                    <path d="M16.625,6.226 C16.625,9.664 13.825,12.451 10.325,12.451 C8.925,12.451 7.625,11.964 6.525,11.146 C6.525,11.23 6.425,11.308 6.425,11.378 L1.425,16.358 C1.125,16.682 0.525,16.682 0.225,16.358 C-0.075,16.034 -0.075,15.508 0.225,15.184 L5.225,10.204 C5.325,10.134 5.325,10.08 5.425,10.04 C4.625,8.986 4.125,7.663 4.125,6.226 C4.125,2.787 6.925,5.68434189e-14 10.325,5.68434189e-14 C13.825,5.68434189e-14 16.625,2.787 16.625,6.226 Z M14.925,6.226 C14.925,3.704 12.925,1.66 10.325,1.66 C7.825,1.66 5.825,3.704 5.825,6.226 C5.825,8.747 7.825,10.791 10.325,10.791 C12.925,10.791 14.925,8.747 14.925,6.226 Z M11.225,4.15 C11.225,3.692 10.825,3.32 10.325,3.32 C9.925,3.32 9.525,3.692 9.525,4.15 L9.525,5.396 L8.325,5.396 C7.825,5.396 7.425,5.767 7.425,6.226 C7.425,6.684 7.825,7.056 8.325,7.056 L9.525,7.056 L9.525,8.301 C9.525,8.759 9.925,9.131 10.325,9.131 C10.825,9.131 11.225,8.759 11.225,8.301 L11.225,7.056 L12.425,7.056 C12.925,7.056 13.325,6.684 13.325,6.226 C13.325,5.767 12.925,5.396 12.425,5.396 L11.225,5.396 L11.225,4.15 Z"></path>
                </g>
            </g>
        </g>
    </g>
</svg>