<?xml version="1.0" encoding="UTF-8"?>
<svg width="42px" height="18px" viewBox="0 0 42 18" version="1.1" xmlns="http://www.w3.org/2000/svg" xmlns:xlink="http://www.w3.org/1999/xlink">
    <!-- Generator: Sketch 62 (91390) - https://sketch.com -->
    <title>Sprint/Active</title>
    <desc>Created with Sketch.</desc>
    <g id="PDP-2" stroke="none" stroke-width="1" fill="none" fill-rule="evenodd">
        <g id="Artboard" transform="translate(-229.000000, -45.000000)" fill="#FFFFFF" fill-rule="nonzero">
            <g id="Sprint/Active" transform="translate(229.000000, 45.000000)">
                <g id="Logo_of_Sprint_Nextel">
                    <path d="M1.73214192,14.2720645 C1.17007689,14.2720645 0.619284587,14.2019564 0.171516125,14.0829627 L0.241007279,12.8715109 C0.676646895,13.0358773 1.28451613,13.1658482 1.84686654,13.1658482 C2.69617115,13.1658482 3.38437615,12.80111 3.38437615,11.9423945 C3.38437615,10.2706291 -3.5620776e-08,10.9775655 -3.5620776e-08,8.41093273 C-3.5620776e-08,7.04609182 1.04393689,6.09341091 2.84557,6.09341091 C3.30418308,6.09341091 3.77449692,6.15166364 4.24509615,6.23377364 L4.17589038,7.37570273 C3.72897808,7.23475455 3.23540538,7.15220545 2.77664962,7.15220545 C1.81290577,7.15220545 1.31961843,7.61076273 1.31961843,8.26998455 C1.31961843,9.85890818 4.70428,9.27096545 4.70428,11.7531464 C4.70356654,13.2129773 3.57957923,14.2720645 1.73214192,14.2720645" id="path3"></path>
                    <path d="M7.72051,14.2359127 C7.399595,14.2359127 7.15858769,14.2247891 6.86007538,14.1658045 L6.86007538,16.7122391 L5.63277885,16.7122391 L5.63277885,8.30555091 L6.79144038,8.30555091 C6.79144038,8.61203636 6.77973962,9.08259545 6.72237731,9.39976545 L6.74549346,9.39976545 C7.06655115,8.65799455 7.72051,8.18743545 8.59250269,8.18743545 C9.94622462,8.18743545 10.6917919,9.17539 10.6917919,10.9411209 C10.6919346,13.0013355 9.62545231,14.2359127 7.72051,14.2359127 M8.271445,9.22354364 C7.35350538,9.22354364 6.86007538,10.3296136 6.86007538,11.3288382 L6.86007538,13.1307209 C7.12419885,13.2131236 7.41086769,13.2483973 7.75504154,13.2483973 C8.73005808,13.2483973 9.395575,12.6363045 9.395575,11.05909 C9.395575,9.88261909 9.04012846,9.22354364 8.271445,9.22354364 L8.271445,9.22354364 Z" id="path5"></path>
                    <path d="M14.6286727,9.42303727 C13.4931273,9.21154182 12.942335,10.0237136 12.942335,11.7772964 L12.942335,14.1539491 L11.7141823,14.1539491 L11.7141823,8.30555091 L12.8851154,8.30555091 C12.8851154,8.63428364 12.8500131,9.15314273 12.76982,9.59999091 L12.7929362,9.59999091 C13.0456442,8.81138364 13.6191246,8.08117545 14.6864631,8.18743545 L14.6286727,9.42303727" id="path7"></path>
                    <path d="M16.381505,7.43483364 C15.9454373,7.43483364 15.5895627,7.08151182 15.5895627,6.64564091 C15.5895627,6.21079455 15.9454373,5.85747273 16.381505,5.85747273 C16.8058719,5.85747273 17.1616038,6.19893909 17.1616038,6.64564091 C17.1616038,7.08151182 16.8058719,7.43483364 16.381505,7.43483364 M16.9893742,14.1539491 L15.7622204,14.1539491 L15.7622204,8.30555091 L16.9893742,8.30555091 L16.9893742,14.1539491 L16.9893742,14.1539491 Z" id="path9"></path>
                    <path d="M22.0388269,14.1539491 L22.0388269,10.3881591 C22.0388269,9.65882909 21.8427677,9.23554545 21.1895223,9.23554545 C20.3290877,9.23554545 19.6973888,10.1642227 19.6973888,11.3288382 L19.6973888,14.1539491 L18.4699496,14.1539491 L18.4699496,8.30555091 L19.6404546,8.30555091 C19.6404546,8.61203636 19.6173385,9.11728364 19.5599762,9.44660182 L19.5718196,9.45757909 C19.9042927,8.70527 20.5930685,8.18728909 21.5566696,8.18728909 C22.8528865,8.18728909 23.2547081,9.02317182 23.2547081,10.0588409 L23.2547081,14.1539491 L22.0388269,14.1539491" id="path11"></path>
                    <path d="M26.6370865,14.2594773 C25.4207773,14.2594773 25.0533446,13.7773555 25.0533446,12.4717918 L25.0533446,9.28194273 L23.9640315,9.28194273 L23.9640315,8.30555091 L25.0533446,8.30555091 L25.0533446,6.44585455 L26.2695112,6.10438818 L26.2695112,8.30555091 L27.7723465,8.30555091 L27.7723465,9.28194273 L26.2814973,9.28194273 L26.2814973,12.0829036 C26.2814973,12.9543527 26.4534415,13.18912 27.0269219,13.18912 C27.2792019,13.18912 27.5547408,13.1538464 27.7724892,13.0950082 L27.7724892,14.1306773 C27.4398735,14.2019564 27.0153638,14.2594773 26.6370865,14.2594773" id="path13"></path>
                    <path d="M33.3489046,12.5339964 C35.0212585,10.3259545 36.3367388,7.73195182 36.3367388,5.86903545 C36.3367388,4.89542455 35.65681,4.21585818 34.7702627,3.69948727 C34.7876712,5.72384273 34.1040323,10.4707082 33.3489046,12.5339964" id="path15"></path>
                    <path d="M27.8648112,17.9747718 C31.7844262,16.6298364 37.4665765,13.4963373 41.41844,10.69684 C41.7500569,10.4628045 42.0084727,10.2453082 42.0084727,9.86490909 C42.0084727,9.20349182 40.8275512,8.31696727 40.2544988,7.96393818 C37.1449481,11.2795136 30.95624,16.2475345 27.8648112,17.9747718" id="path17"></path>
                    <path d="M31.5007538,15.1584427 C33.9176762,13.4446709 37.4289058,10.2201336 38.6172473,8.46567273 C38.8973523,8.05292727 39.1046842,7.81376909 39.1046842,7.38185 C39.1046842,6.67359636 38.2994715,6.15503 37.7201408,5.79395091 C36.3323154,9.14919091 33.2140604,13.3271409 31.5007538,15.1584427" id="path19"></path>
                    <path d="M33.7027815,10.4045518 C34.0154204,8.28579182 33.8316327,5.72794091 33.4325223,4.12364909 C33.21563,3.25000455 32.4478027,2.26395273 31.7373377,1.95571091 C32.6685477,4.66665818 33.46791,8.52714545 33.7027815,10.4045518" id="path21"></path>
                    <path d="M33.0144338,7.43219909 C32.2821369,5.40213545 30.457245,1.17047 27.7726319,0.122067273 C29.5201846,2.10046455 32.1129038,6.02608364 33.0144338,7.43219909" id="path23"></path>
                </g>
            </g>
        </g>
    </g>
</svg>