<?xml version="1.0" encoding="UTF-8"?>
<svg width="47px" height="11px" viewBox="0 0 47 11" version="1.1" xmlns="http://www.w3.org/2000/svg" xmlns:xlink="http://www.w3.org/1999/xlink">
    <!-- Generator: Sketch 62 (91390) - https://sketch.com -->
    <title>Verizon/Normal</title>
    <desc>Created with Sketch.</desc>
    <g id="PDP-2" stroke="none" stroke-width="1" fill="none" fill-rule="evenodd">
        <g id="Artboard" transform="translate(-131.000000, -84.000000)" fill-rule="nonzero">
            <g id="Verizon/Normal" transform="translate(131.000000, 84.000000)">
                <g id="Verizon">
                    <g id="Group-31">
                        <polygon id="Path" fill="#E02020" points="45.2027823 -9.23705556e-15 42.6778408 5.71675569 41.7283503 3.55064123 40.7014939 3.55064123 42.2628783 7.09383877 43.0928034 7.09383877 46.2226055 -9.23705556e-15"></polygon>
                        <path d="M34.3715571,10.6147052 L36.4041701,10.6147052 L36.4041701,6.676992 C36.4041701,5.77630523 36.8964985,5.14359138 37.6279579,5.14359138 C38.3312842,5.14359138 38.6970139,5.66464985 38.6970139,6.41646277 L38.6970139,10.6147052 L40.7296269,10.6147052 L40.7296269,6.00705969 C40.7296269,4.44388431 39.8434358,3.34221785 38.4086501,3.34221785 C37.4943259,3.34221785 36.8542989,3.75906462 36.3760371,4.51832123 L36.3338375,4.51832123 L36.3338375,3.55064123 L34.3645238,3.55064123 L34.3715571,10.6147052 L34.3715571,10.6147052 Z M30.3766636,3.35710523 C28.2526181,3.35710523 26.8318989,4.97238646 26.8318989,7.10128246 C26.8318989,9.21529108 28.2526181,10.8454597 30.3766636,10.8454597 C32.5007091,10.8454597 33.9214541,9.21529108 33.9214541,7.10128246 C33.9284615,4.97238646 32.5007091,3.35710523 30.3766636,3.35710523 Z M30.3625971,9.25250954 C29.39904,9.25250954 28.8856118,8.39648492 28.8856118,7.10128246 C28.8856118,5.79119262 29.3920067,4.95005538 30.3625971,4.95005538 C31.3261541,4.95005538 31.8606821,5.79119262 31.8606821,7.10128246 C31.8677154,8.39648492 31.3331874,9.25250954 30.3625971,9.25250954 Z M21.0364901,10.6147052 L26.7474998,10.6147052 L26.7474998,8.91754338 L23.5121987,8.91754338 L23.5121987,8.87288123 L26.6068345,5.20314092 L26.6068345,3.54319754 L21.0364901,3.54319754 L21.0364901,5.24780308 L24.1662922,5.24780308 L24.1662922,5.29246523 L21.0364901,8.99198031 L21.0364901,10.6147052 L21.0364901,10.6147052 Z M18.4271495,10.6147052 L20.4738291,10.6147052 L20.4738291,3.55064123 L18.4271495,3.55064123 L18.4271495,10.6147052 Z M13.6796968,10.6147052 L15.7193432,10.6147052 L15.7193432,7.36925538 C15.7193432,5.89540431 16.5563015,5.24035938 17.8293221,5.42645169 L17.8715217,5.42645169 L17.8715217,3.56552862 C17.7660227,3.52086646 17.6464573,3.51342277 17.4565592,3.51342277 C16.6618004,3.51342277 16.1272724,3.90049477 15.6701103,4.72674462 L15.6279107,4.72674462 L15.6279107,3.55064123 L13.6796968,3.55064123 L13.6796968,10.6147052 Z M9.93800084,9.25995323 C9.03774316,9.25995323 8.48914863,8.64212677 8.38364968,7.68933415 L13.1944017,7.68933415 C13.2084682,6.17082092 12.828672,4.95749908 12.0339133,4.19824246 C11.4712522,3.64740923 10.7327596,3.34221785 9.79030232,3.34221785 C7.77878905,3.34221785 6.38620295,4.95749908 6.38620295,7.07150769 C6.38620295,9.20040369 7.71548968,10.8231286 9.92393432,10.8231286 C10.7608926,10.8231286 11.4220194,10.5849305 11.9706139,10.1904148 C12.5543747,9.76612431 12.9763705,9.14085415 13.0889027,8.52302769 L11.1336556,8.52302769 C10.9437575,8.98453662 10.5358282,9.25995323 9.93800084,9.25995323 Z M9.83250189,4.88306215 C10.5498947,4.88306215 11.0422232,5.44878277 11.1266223,6.27503262 L8.39771621,6.27503262 C8.55948126,5.44133908 8.98851032,4.88306215 9.83250189,4.88306215 Z M2.32097684,10.6147052 L4.45908884,10.6147052 L6.78006568,3.55064123 L4.73338611,3.55064123 L3.43223242,8.09129354 L3.40409937,8.09129354 L2.10294568,3.55064123 L-3.26849658e-13,3.55064123 L2.32097684,10.6147052 Z M18.4271495,1.03467323 L20.4738291,1.03467323 L20.4738291,2.95514585 L18.4271495,2.95514585 L18.4271495,1.03467323 Z" id="Shape" fill="#000000"></path>
                    </g>
                </g>
            </g>
        </g>
    </g>
</svg>