<?xml version="1.0" encoding="UTF-8"?>
<svg width="20px" height="20px" viewBox="0 0 20 20" version="1.1" xmlns="http://www.w3.org/2000/svg" xmlns:xlink="http://www.w3.org/1999/xlink">
    <!-- Generator: Sketch 54 (76480) - https://sketchapp.com -->
    <title>checkcircle</title>
    <desc>Created with Sketch.</desc>
    <g id="Page-1" stroke="none" stroke-width="1" fill="none" fill-rule="evenodd">
        <g id="Customers-First" transform="translate(-2.000000, -2.000000)" fill="#FFCD49">
            <path d="M11.999485,2 C6.47705855,2 2,6.47785788 2,12 C2,17.523172 6.47705855,22 11.999485,22 C17.5229414,22 22,17.523172 22,12 C22,6.47785788 17.5229414,2 11.999485,2 L11.999485,2 Z M11.4916707,14.775747 C11.1841643,15.074751 10.6851569,15.074751 10.3776505,14.775747 L8.29415657,12.7498601 C7.90194781,12.3684957 7.90194781,11.7507926 8.29415657,11.3703234 L8.30888742,11.3559999 C8.7001755,10.9755306 9.33544322,10.9755306 9.72673131,11.3568951 L10.9346606,12.5323212 L14.2739592,9.28535193 C14.666168,8.90488269 15.300515,8.90488269 15.6918031,9.28535193 L15.7065339,9.29967548 C16.097822,9.68014473 16.097822,10.2969525 15.7065339,10.6774218 L11.4916707,14.775747 Z" id="checkcircle"></path>
        </g>
    </g>
</svg>