<?xml version="1.0" encoding="UTF-8"?>
<svg width="20px" height="22px" viewBox="0 0 20 22" version="1.1" xmlns="http://www.w3.org/2000/svg" xmlns:xlink="http://www.w3.org/1999/xlink">
    <!-- Generator: Sketch 54 (76480) - https://sketchapp.com -->
    <title>cube-open</title>
    <desc>Created with Sketch.</desc>
    <g id="Page-1" stroke="none" stroke-width="1" fill="none" fill-rule="evenodd">
        <g id="Invent-and-simplify" transform="translate(-2.000000, -1.000000)" fill="#FFCD49">
            <path d="M11.1962973,13.2403123 L11.1962973,22.2609889 C11.1962973,22.6701938 10.7533524,22.9262713 10.3986504,22.7212363 L2.68171987,18.2658336 C2.26040315,18.022733 2,17.5728671 2,17.0858007 L2,8.2987084 C2,7.19480668 2.58915131,6.17482225 3.54511636,5.62287139 L11.1720737,1.21937628 C11.5449433,1.00395972 11.9887534,0.944265977 12.4057444,1.05327195 L20.4419067,3.16331607 C20.8684142,3.27578254 20.9428151,3.84849645 20.559564,4.06650839 L12.7474695,8.50287831 C12.3771953,8.71310411 11.9394411,8.7710676 11.5276408,8.66379189 L4.84799723,6.92488714 C4.41975949,6.81328579 3.97421922,7.03302798 3.80292413,7.4413678 L3.79686824,7.45607496 C3.62211264,7.87047067 3.78475647,8.34975088 4.17579375,8.57295358 L10.6313695,12.2653145 C10.9808807,12.4651588 11.1962973,12.8371633 11.1962973,13.2403123 L11.1962973,13.2403123 Z M19.3120512,5.78897573 L17.8032702,6.66967475 L19.8034432,7.79693489 C20.1148888,7.97255562 20.115754,8.42069127 19.8060386,8.59804226 L13.4291894,12.2402258 C13.0675664,12.4469911 12.8452288,12.8302423 12.8452288,13.2463682 L12.8452288,22.2367653 C12.8452288,22.6459703 13.2881737,22.9020478 13.6428757,22.6978779 L21.3476944,18.2493962 C21.7508435,18.015812 22,17.5849788 22,17.1195407 L22,8.05993342 C22,7.54691327 21.7171036,7.07455406 21.2637771,6.83231858 L19.3120512,5.78897573 L19.3120512,5.78897573 Z" id="cube-open"></path>
        </g>
    </g>
</svg>