<?xml version="1.0" encoding="UTF-8"?>
<svg width="18px" height="23px" viewBox="0 0 18 23" version="1.1" xmlns="http://www.w3.org/2000/svg" xmlns:xlink="http://www.w3.org/1999/xlink">
    <!-- Generator: Sketch 54 (76480) - https://sketchapp.com -->
    <title>group</title>
    <desc>Created with Sketch.</desc>
    <g id="Page-1" stroke="none" stroke-width="1" fill="none" fill-rule="evenodd">
        <g id="collaborate-teamwork" transform="translate(-3.000000, -1.000000)" fill="#FFCD49">
            <path d="M14.958,4.016 C14.958,5.682 13.607,7.033 11.942,7.033 C10.276,7.033 8.925,5.682 8.925,4.016 C8.925,2.35 10.276,1 11.942,1 C13.607,1 14.958,2.35 14.958,4.016 L14.958,4.016 Z M7.134,9.569 L7.649,15.293 C7.689,15.734 8.05,16.077 8.492,16.095 L8.873,16.11 C9.178,16.123 9.424,16.363 9.443,16.668 L9.904,22.678 C9.939,23.131 10.317,23.481 10.772,23.481 L13.133,23.481 C13.588,23.481 13.967,23.131 14.001,22.677 L14.459,16.663 C14.48,16.36 14.725,16.122 15.028,16.11 L15.407,16.094 C15.842,16.076 16.197,15.738 16.236,15.304 L16.748,9.569 C16.748,8.806 16.129,8.186 15.365,8.186 L8.518,8.186 C7.754,8.186 7.134,8.806 7.134,9.569 L7.134,9.569 Z M17.948,9.569 L17.431,15.41 C17.354,16.266 16.757,16.968 15.965,17.207 C15.773,17.265 15.598,17.466 15.581,17.666 L15.294,20.868 C15.26,21.247 15.559,21.573 15.939,21.573 L17.706,21.573 C18.105,21.573 18.437,21.266 18.467,20.867 L18.869,15.59 C18.888,15.324 19.103,15.116 19.369,15.105 L19.701,15.091 C20.083,15.075 20.394,14.778 20.428,14.397 L20.878,9.365 C20.878,8.695 20.334,8.152 19.664,8.152 L18.25,8.152 C17.936,8.152 17.716,8.459 17.815,8.757 C17.901,9.012 17.948,9.285 17.948,9.569 L17.948,9.569 Z M16.301,1.873 C15.978,1.92 15.783,2.256 15.899,2.561 C16.381,3.822 16.216,5.145 15.523,6.235 C15.347,6.512 15.485,6.878 15.794,6.988 C17.602,7.628 19.503,6.181 19.311,4.226 C19.168,2.764 17.816,1.653 16.301,1.873 L16.301,1.873 Z M6.062,8.757 C6.162,8.459 5.941,8.152 5.627,8.152 L4.214,8.152 C3.543,8.152 3,8.695 3,9.365 L3.449,14.397 C3.483,14.778 3.794,15.075 4.177,15.091 L4.509,15.105 C4.775,15.116 4.99,15.324 5.008,15.59 L5.41,20.867 C5.44,21.266 5.772,21.573 6.172,21.573 L7.938,21.573 C8.319,21.573 8.617,21.247 8.583,20.868 L8.297,17.666 C8.279,17.466 8.104,17.265 7.912,17.207 C7.12,16.968 6.523,16.266 6.446,15.41 L5.929,9.569 C5.929,9.285 5.976,9.012 6.062,8.757 L6.062,8.757 Z M4.566,4.226 C4.375,6.181 6.276,7.628 8.083,6.988 C8.393,6.878 8.53,6.512 8.354,6.235 C7.661,5.145 7.496,3.822 7.978,2.561 C8.095,2.256 7.899,1.92 7.577,1.873 C6.062,1.653 4.709,2.764 4.566,4.226 L4.566,4.226 Z" id="group"></path>
        </g>
    </g>
</svg>