<?xml version="1.0" encoding="UTF-8"?>
<svg width="20px" height="20px" viewBox="0 0 20 20" version="1.1" xmlns="http://www.w3.org/2000/svg" xmlns:xlink="http://www.w3.org/1999/xlink">
    <!-- Generator: Sketch 54 (76480) - https://sketchapp.com -->
    <title>recycle</title>
    <desc>Created with Sketch.</desc>
    <g id="Page-1" stroke="none" stroke-width="1" fill="none" fill-rule="evenodd">
        <g id="Think-Sustainability" transform="translate(-2.000000, -2.000000)" fill="#FFCD49">
            <path d="M17.4997318,6.27575061 L18.1637318,5.87575061 C18.3677318,5.75275061 18.6237318,5.92375061 18.5877318,6.15975061 L18.0077318,9.96775061 C17.9657318,10.2427506 17.6837318,10.4127506 17.4197318,10.3217506 L13.7817318,9.05575061 C13.5567318,8.97675061 13.5247318,8.67175061 13.7297318,8.54875061 L14.4237318,8.12975061 C14.6087318,8.01775061 14.6707318,7.77775061 14.5627318,7.59075061 L13.3777318,5.53775061 C12.7497318,4.45075061 11.1807318,4.45075061 10.5527318,5.53775061 L9.55773176,7.26075061 C9.38373176,7.56275061 8.99473176,7.66275061 8.69673176,7.48275061 L7.43073176,6.71675061 C7.13573176,6.53875061 7.04173176,6.15375061 7.22273176,5.85875061 L8.32373176,4.06075061 C10.0037318,1.31475061 13.9917318,1.31275061 15.6747318,4.05675061 L16.9547318,6.14375061 C17.0697318,6.32975061 17.3127318,6.38875061 17.4997318,6.27575061 L17.4997318,6.27575061 Z M3.69373176,11.4927506 L2.52673176,13.6447506 C0.992731761,16.4747506 2.98773176,19.9267506 6.20573176,20.0087506 L8.31373176,20.0637506 C8.65873176,20.0717506 8.94573176,19.7987506 8.95273176,19.4537506 L8.98273176,17.9747506 C8.98973176,17.6257506 8.70873176,17.3397506 8.35973176,17.3397506 L6.36973176,17.3397506 C5.11473176,17.3397506 4.32973176,15.9807506 4.95773176,14.8937506 L6.14273176,12.8407506 C6.25173176,12.6527506 6.48973176,12.5867506 6.67973176,12.6917506 L7.38973176,13.0837506 C7.59773176,13.1987506 7.84673176,13.0187506 7.80173176,12.7837506 L7.07973176,9.00075061 C7.02673176,8.72675061 6.73873176,8.56775061 6.47873176,8.66875061 L2.89073176,10.0707506 C2.66873176,10.1577506 2.64873176,10.4637506 2.85773176,10.5797506 L3.53673176,10.9547506 C3.72773176,11.0597506 3.79773176,11.3007506 3.69373176,11.4927506 L3.69373176,11.4927506 Z M14.9587318,20.3107506 L17.4057318,20.2447506 C20.6237318,20.1587506 22.6157318,16.7047506 21.0777318,13.8767506 L20.0707318,12.0237506 C19.9057318,11.7207506 19.5257318,11.6087506 19.2237318,11.7757506 L17.9277318,12.4887506 C17.6227318,12.6567506 17.5147318,13.0437506 17.6887318,13.3457506 L18.6847318,15.0687506 C19.3117318,16.1557506 18.5277318,17.5147506 17.2717318,17.5147506 L14.9017318,17.5147506 C14.6847318,17.5147506 14.5077318,17.3417506 14.5037318,17.1247506 L14.4887318,16.3147506 C14.4837318,16.0757506 14.2037318,15.9507506 14.0227318,16.1067506 L11.1077318,18.6237506 C10.8967318,18.8067506 10.9027318,19.1357506 11.1207318,19.3097506 L14.1287318,21.7167506 C14.3147318,21.8657506 14.5907318,21.7297506 14.5857318,21.4907506 L14.5717318,20.7157506 C14.5667318,20.4977506 14.7397318,20.3167506 14.9587318,20.3107506 L14.9587318,20.3107506 Z" id="recycle"></path>
        </g>
    </g>
</svg>