<?xml version="1.0" encoding="UTF-8"?>
<svg width="20px" height="22px" viewBox="0 0 20 22" version="1.1" xmlns="http://www.w3.org/2000/svg" xmlns:xlink="http://www.w3.org/1999/xlink">
    <!-- Generator: Sketch 54 (76480) - https://sketchapp.com -->
    <title>shield</title>
    <desc>Created with Sketch.</desc>
    <g id="Page-1" stroke="none" stroke-width="1" fill="none" fill-rule="evenodd">
        <g id="Earn-Trust-Through-Service" transform="translate(-2.000000, -1.000000)" fill="#FFCD49">
            <path d="M21.9955343,4.50359561 C21.9878929,3.9782473 21.7070703,3.49970275 21.245719,3.24944592 C19.118536,2.09750037 15.575778,1 11.9995888,1 C8.42435482,1 4.8806417,2.09750037 2.75441384,3.24944592 C2.29210733,3.49970275 2.01223996,3.9782473 2.00459853,4.50359561 C1.95301888,8.03966729 2.17748588,16.5923377 11.2746082,22.7723441 C11.7073041,23.0665392 12.2928287,23.0665392 12.7245695,22.7723441 C21.822647,16.5923377 22.0461588,8.03966729 21.9955343,4.50359561 L21.9955343,4.50359561 Z M12.4561643,20.7693343 C12.1896694,20.9661011 11.8104634,20.965146 11.5458789,20.7664688 C4.35815894,15.3677986 3.8433176,8.13040927 3.82994509,5.29257324 C3.82803474,4.92578461 4.03530852,4.60388937 4.35911411,4.43291238 C6.08989799,3.52262704 9.03184849,2.83394317 11.9995888,2.83394317 C14.9682843,2.83394317 17.9102349,3.52262704 19.6410187,4.43291238 C19.9648243,4.60388937 20.1711429,4.92578461 20.1701877,5.29161806 C20.1577704,8.13518516 19.6553464,15.4203334 12.4561643,20.7693343 L12.4561643,20.7693343 Z M18.4040623,8.55355345 C16.1842269,8.96332513 11.1915076,10.0436323 6.6372154,12.1326082 C6.3497066,12.2644228 6.00584226,12.1306978 5.8959967,11.8345924 C5.03251512,9.51159772 4.80422741,7.44363576 4.75933401,6.17324804 C4.74309597,5.71476224 4.98093547,5.28397663 5.39357269,5.08147874 C6.94860367,4.31829093 9.4626341,3.75186994 11.9995888,3.75186994 C14.5355884,3.75186994 17.0486636,4.31829093 18.6036946,5.08052356 C19.0144215,5.28206628 19.2570369,5.70712081 19.2398437,6.16465143 C19.2236056,6.61931651 19.1815777,7.17905125 19.097522,7.81520029 C19.0478527,8.18580964 18.7718061,8.48573576 18.4040623,8.55355345 L18.4040623,8.55355345 Z M7.73853648,13.7955744 C10.268805,12.5901388 13.7886386,11.2194573 17.6857678,10.5985911 C18.0917188,10.5345941 18.4145692,10.9338589 18.2827546,11.3226166 C17.3915728,13.9636858 15.6951754,16.9992438 12.4809989,19.5887334 C12.2049523,19.81129 11.7942254,19.8103349 11.5181787,19.5877782 C9.69569772,18.1177581 8.36513374,16.5092371 7.38989625,14.9121783 C7.14632567,14.5138688 7.31825784,13.9961619 7.73853648,13.7955744 L7.73853648,13.7955744 Z" id="shield"></path>
        </g>
    </g>
</svg>