<?xml version="1.0" encoding="UTF-8"?>
<svg width="21px" height="20px" viewBox="0 0 21 20" version="1.1" xmlns="http://www.w3.org/2000/svg" xmlns:xlink="http://www.w3.org/1999/xlink">
    <!-- Generator: Sketch 54 (76480) - https://sketchapp.com -->
    <title>star5</title>
    <desc>Created with Sketch.</desc>
    <g id="Page-1" stroke="none" stroke-width="1" fill="none" fill-rule="evenodd">
        <g id="Do-good-and-be-responsible" transform="translate(-2.000000, -2.000000)" fill="#FFCD49">
            <path d="M13.217143,2.67125 L14.888143,7.81625 C15.073143,8.38625 15.604143,8.77125 16.202143,8.77125 L21.612143,8.77125 C22.553143,8.77125 22.945143,9.97525 22.183143,10.52825 L17.806143,13.70825 C17.322143,14.06025 17.120143,14.68425 17.305143,15.25325 L18.976143,20.39825 C19.267143,21.29325 18.243143,22.03725 17.482143,21.48425 L13.105143,18.30425 C12.621143,17.95225 11.965143,17.95225 11.481143,18.30425 L7.10414298,21.48425 C6.34314298,22.03725 5.31814298,21.29325 5.60914298,20.39825 L7.28114298,15.25325 C7.46614298,14.68425 7.26314298,14.06025 6.77914298,13.70825 L2.40214298,10.52825 C1.64114298,9.97525 2.03214298,8.77125 2.97314298,8.77125 L8.38314298,8.77125 C8.98214298,8.77125 9.51214298,8.38625 9.69714298,7.81625 L11.369143,2.67125 C11.660143,1.77625 12.926143,1.77625 13.217143,2.67125" id="star5"></path>
        </g>
    </g>
</svg>