<?xml version="1.0" encoding="UTF-8"?>
<svg width="31px" height="34px" viewBox="0 0 31 34" version="1.1" xmlns="http://www.w3.org/2000/svg" xmlns:xlink="http://www.w3.org/1999/xlink">
    <!-- Generator: Sketch 54 (76480) - https://sketchapp.com -->
    <title>UpTrade Certified</title>
    <desc>Created with Sketch.</desc>
    <g id="Page-1" stroke="none" stroke-width="1" fill="none" fill-rule="evenodd">
        <g id="Desktop-/-Product-Detail" transform="translate(-376.000000, -2974.000000)">
            <g id="Group-24" transform="translate(377.000000, 2966.000000)">
                <g id="Group-30">
                    <g id="UpTrade-Certified" transform="translate(0.000000, 9.000000)">
                        <rect id="Rectangle-path" stroke="#000000" stroke-width="2" stroke-linecap="square" x="0" y="0" width="16" height="32"></rect>
                        <rect id="Rectangle-path-Copy" stroke="#000000" stroke-width="2" stroke-linecap="square" x="16" y="7" width="13" height="25"></rect>
                        <g id="icon/24/iconTick/Primary" transform="translate(1.000000, 10.000000)">
                            <rect id="boundingBox" fill="#FFFFFF" fill-rule="evenodd" opacity="0" x="0" y="0" width="15" height="15"></rect>
                            <path d="M10.8997824,4.88913241 L5.8345028,10.0543668 L5.48028509,9.6324813 L3.67108347,7.47761935 C3.65820701,7.46259682 3.64175207,7.4612417 3.65188441,7.44751688 C3.62712775,7.47194345 3.6233562,7.50388847 3.62042843,7.50049727 L5.75916365,10.0440267 C5.79102646,10.072544 5.81166331,10.0875407 5.81854048,10.0946001 L5.820001,10.0927159 L10.9317614,4.91851905 C10.9360453,4.91383532 10.9365146,4.92180332 10.9258642,4.91328307 L10.8997824,4.88913241 Z M5.81583523,10.0999533 C5.8157921,10.0999518 5.8157487,10.0999502 5.81570502,10.0999485 C5.81574892,10.0999498 5.8157924,10.0999513 5.81583548,10.0999528 Z M5.79132529,10.1297093 C5.77814968,10.1430568 5.76202022,10.1617087 5.74673882,10.1872286 L5.79132529,10.1297093 Z" id="Path" stroke="#1AB4E7" stroke-width="1"></path>
                        </g>
                        <g id="icon/24/iconTick/Primary" transform="translate(16.000000, 13.000000)">
                            <rect id="boundingBox" fill="#FFFFFF" fill-rule="evenodd" opacity="0" x="0" y="0" width="14" height="14"></rect>
                            <path d="M10.1725386,4.58513703 C10.1732342,4.5782382 10.1750571,4.57175451 10.1783806,4.56812081 L10.1629957,4.5836935 C10.1517333,4.58135388 10.1400103,4.57662667 10.1302226,4.56877006 L10.1550382,4.59174815 L5.42810409,9.37638354 C5.42077092,9.36993179 5.41045087,9.36122302 5.39744953,9.34958682 L3.41447842,6.99078696 C3.4030284,7.00062628 3.40078844,7.00051561 3.40103602,7.00080444 L5.08940431,9.01174972 L5.4105076,9.39419482 L5.40828688,9.39644266 L5.37995232,9.43299599 C5.39472208,9.41821575 5.40800002,9.40824601 5.4170565,9.40199479 L5.44362202,9.43363523 L10.174311,4.60959394 L10.1766501,4.61175983 C10.175984,4.61122695 10.1753738,4.61029814 10.1748329,4.60906175 L10.2043216,4.57899113 C10.2000331,4.58385976 10.1873699,4.58654887 10.1725386,4.58513703 Z M5.42901125,9.39330102 C5.42900458,9.39330073 5.42899779,9.39330048 5.42899091,9.39330027 C5.42899761,9.39330053 5.42900431,9.39330079 5.429011,9.39330105 Z M3.42380027,6.98375043 C3.42599835,6.98129428 3.42847192,6.97806381 3.43183696,6.97474364 C3.42895858,6.9775436 3.42633907,6.98003813 3.42395648,6.98226103 Z M10.1302226,4.56877006 C10.1279311,4.56693066 10.1257457,4.56491973 10.1236972,4.56272775 L10.1302226,4.56877006 Z" id="Path" stroke="#1AB4E7" stroke-width="1"></path>
                        </g>
                    </g>
                </g>
            </g>
        </g>
    </g>
</svg>