<?xml version="1.0" encoding="UTF-8"?>
<svg width="32px" height="32px" viewBox="0 0 32 32" version="1.1" xmlns="http://www.w3.org/2000/svg" xmlns:xlink="http://www.w3.org/1999/xlink">
    <!-- Generator: Sketch 54 (76480) - https://sketchapp.com -->
    <title>Customer Support</title>
    <desc>Created with Sketch.</desc>
    <g id="Page-1" stroke="none" stroke-width="1" fill="none" fill-rule="evenodd" stroke-linecap="square">
        <g id="Desktop-/-Product-Detail" transform="translate(-1273.000000, -2974.000000)" stroke-width="2">
            <g id="Group-24" transform="translate(377.000000, 2966.000000)">
                <g id="Group-29" transform="translate(897.000000, 0.000000)">
                    <g id="Customer-Support" transform="translate(0.000000, 9.500000)">
                        <polygon id="Shape" stroke="#1AB4E7" points="30 0 13 0 13 14 18 10 30 10"></polygon>
                        <circle id="Oval" stroke="#000000" cx="24" cy="17" r="3"></circle>
                        <circle id="Oval" stroke="#000000" cx="6" cy="17" r="3"></circle>
                        <path d="M12,29 L12,26.017 C12,25.307 11.628,24.654 11.017,24.292 C10.044,23.717 8.358,23 6,23 C3.612,23 1.936,23.713 0.974,24.288 C0.368,24.65 0,25.301 0,26.007 L0,29 L12,29 Z" id="Shape" stroke="#000000"></path>
                        <path d="M30,29 L30,26.017 C30,25.307 29.628,24.654 29.017,24.292 C28.044,23.717 26.358,23 24,23 C21.612,23 19.936,23.713 18.974,24.288 C18.368,24.65 18,25.301 18,26.007 L18,29 L30,29 Z" id="Shape" stroke="#000000"></path>
                    </g>
                </g>
            </g>
        </g>
    </g>
</svg>