<?xml version="1.0" encoding="UTF-8"?>
<svg width="32px" height="33px" viewBox="0 0 32 33" version="1.1" xmlns="http://www.w3.org/2000/svg" xmlns:xlink="http://www.w3.org/1999/xlink">
    <!-- Generator: Sketch 54 (76480) - https://sketchapp.com -->
    <title>Secure</title>
    <desc>Created with Sketch.</desc>
    <g id="Page-1" stroke="none" stroke-width="1" fill="none" fill-rule="evenodd" stroke-linecap="square">
        <g id="Desktop-/-Product-Detail" transform="translate(-988.000000, -2973.000000)" stroke-width="2">
            <g id="Group-24" transform="translate(377.000000, 2966.000000)">
                <g id="Group-27" transform="translate(612.000000, 0.000000)">
                    <g id="Secure" transform="translate(0.000000, 8.500000)">
                        <path d="M12,22 L2,22 C0.895,22 0,21.105 0,20 L0,2 C0,0.895 0.895,0 2,0 L28,0 C29.105,0 30,0.895 30,2 L30,20" id="Shape" stroke="#000000"></path>
                        <rect id="Rectangle-path" stroke="#1AB4E7" x="16" y="21" width="10" height="9"></rect>
                        <path d="M18,21 L18,18 C18,16.3 19.3,15 21,15 L21,15 C22.7,15 24,16.3 24,18 L24,21" id="Shape" stroke="#1AB4E7"></path>
                        <path d="M0,6 L30,6" id="Shape" stroke="#000000"></path>
                        <path d="M0,11 L30,11" id="Shape" stroke="#000000"></path>
                        <path d="M4,17 L11,17" id="Shape" stroke="#000000"></path>
                    </g>
                </g>
            </g>
        </g>
    </g>
</svg>