<?xml version="1.0" encoding="UTF-8"?>
<svg width="88px" height="75px" viewBox="0 0 88 75" version="1.1" xmlns="http://www.w3.org/2000/svg" xmlns:xlink="http://www.w3.org/1999/xlink">
    <!-- Generator: Sketch 57.1 (83088) - https://sketch.com -->
    <title>Website / Desktop /  Sell Home / Assets / How It Works / Step 2 Icon</title>
    <desc>Created with Sketch.</desc>
    <g id="Symbols" stroke="none" stroke-width="1" fill="none" fill-rule="evenodd">
        <g id="Hero/how" transform="translate(-536.000000, -112.000000)">
            <g id="icon/128/iconSell/Ship" transform="translate(533.000000, 106.000000)">
                <rect id="boundingBox" fill-opacity="0" fill="#FFFFFF" x="0" y="0" width="92" height="92"></rect>
                <g id="Icon" stroke-width="1" transform="translate(3.593750, 6.468750)">
                    <circle id="Oval" fill="#FFCB3F" fill-rule="nonzero" cx="35.9375" cy="35.9375" r="35.9375"></circle>
                    <path d="M38.913125,42.2265625 L38.913125,31.668125 C38.913125,31.0859375 39.2725,30.5971875 39.804375,30.4175 L58.5134375,23.7834375 C58.779375,23.6971875 59.13875,23.6971875 59.4046875,23.7834375 L76.9565625,30.0221875 L79.005,32.11375 L79.005,42.1834375 L58.9590625,49.3134375 L38.913125,42.2265625 Z" id="Path" fill="#1AB4E7" fill-rule="nonzero"></path>
                    <polygon id="Path" fill="#FFFFFF" fill-rule="nonzero" points="80.3346875 38.7046875 58.951875 46.2803125 37.5690625 38.7046875 37.5690625 65.4278125 58.951875 72.99625 80.3346875 65.4278125"></polygon>
                    <polygon id="Path" fill="#FFFFFF" fill-rule="nonzero" points="37.57625 38.7046875 37.57625 65.4278125 58.9590625 72.99625 80.341875 65.4278125 80.341875 38.7046875 58.9590625 46.2803125"></polygon>
                    <path d="M58.9590625,47.6171875 C58.4271875,47.6171875 57.888125,47.2578125 57.7084375,46.7259375 C57.4425,46.014375 57.845,45.2596875 58.5134375,45.036875 L79.89625,37.46125 C80.6078125,37.1953125 81.3625,37.5978125 81.5925,38.26625 C81.8584375,38.9778125 81.4559375,39.7325 80.7875,39.9553125 L59.4046875,47.5309375 C59.268125,47.566875 59.0884375,47.6171875 58.9590625,47.6171875 Z" id="Path" fill="#444B54" fill-rule="nonzero"></path>
                    <path d="M58.9590625,74.3403125 C58.8225,74.3403125 58.65,74.2971875 58.5134375,74.2540625 L37.130625,66.685625 C36.59875,66.5059375 36.239375,65.9740625 36.239375,65.435 L36.239375,38.711875 C36.239375,37.9571875 36.8215625,37.375 37.57625,37.375 C38.3309375,37.375 38.913125,37.9571875 38.913125,38.711875 L38.913125,64.500625 L59.4046875,71.76 C60.11625,72.0259375 60.475625,72.7878125 60.2096875,73.45625 C60.0228125,73.9809375 59.4909375,74.3403125 58.9590625,74.3403125 Z" id="Path" fill="#444B54" fill-rule="nonzero"></path>
                    <path d="M80.3346875,37.8134375 C79.58,37.8134375 78.9978125,37.95 78.9978125,38.7046875 L78.9978125,48.458125 L64.8815625,53.5325 L60.11625,45.6046875 C59.8071875,45.0728125 59.181875,44.85 58.5996875,45.0225 C58.0175,45.1590625 57.6221875,45.6909375 57.6221875,46.273125 L57.6221875,60.389375 L57.6221875,71.1203125 L38.913125,64.48625 L38.913125,38.6975 C38.913125,37.9428125 36.239375,37.9428125 36.239375,38.6975 L36.239375,65.420625 C36.239375,66.0028125 36.59875,66.4915625 37.130625,66.67125 L58.5134375,74.2396875 C58.65,74.2828125 58.8225,74.3259375 58.9590625,74.3259375 C59.095625,74.3259375 59.268125,74.2828125 59.4046875,74.2396875 L80.7875,66.67125 C81.319375,66.4915625 81.67875,65.9596875 81.67875,65.420625 L81.67875,49.3853125 L81.67875,38.6975 C81.6715625,37.95 81.0965625,37.8134375 80.3346875,37.8134375 Z" id="Path" fill="#444B54" fill-rule="nonzero"></path>
                    <polygon id="Path" fill="#FFFFFF" fill-rule="nonzero" points="37.57625 38.7046875 32.22875 47.61 53.6115625 55.185625 58.9590625 46.2803125"></polygon>
                    <polygon id="Path" fill="#FFFFFF" fill-rule="nonzero" points="85.6821875 47.6171875 64.299375 55.1928125 58.951875 46.2875 80.3346875 38.711875"></polygon>
                    <path d="M86.839375,46.94875 L81.491875,38.0434375 C81.1828125,37.5115625 80.514375,37.2384375 79.8890625,37.46125 L58.951875,44.8571875 L38.0146875,37.46125 C37.4325,37.2384375 36.7640625,37.504375 36.411875,38.0434375 L31.064375,46.94875 C30.8846875,47.2578125 30.8415625,47.7034375 30.978125,48.0628125 C31.1146875,48.4221875 31.42375,48.73125 31.783125,48.8678125 L53.1659375,56.4434375 C53.3025,56.4865625 53.475,56.5296875 53.6115625,56.5296875 C54.0571875,56.5296875 54.5028125,56.306875 54.76875,55.86125 L58.9590625,48.8678125 L63.149375,55.86125 C63.4153125,56.306875 63.8609375,56.5296875 64.3065625,56.5296875 C64.443125,56.5296875 64.615625,56.4865625 64.7521875,56.4434375 L86.135,48.8678125 C86.4871875,48.73125 86.8034375,48.4221875 86.9328125,48.0628125 C87.0621875,47.7034375 87.0190625,47.2578125 86.839375,46.94875 Z M53.029375,53.5828125 L34.2340625,46.8984375 L38.2015625,40.3075 L56.996875,46.991875 L53.029375,53.5828125 Z M64.8815625,53.5828125 L60.9140625,46.991875 L79.709375,40.3075 L83.676875,46.8984375 L64.8815625,53.5828125 Z" id="Shape" fill="#444B54" fill-rule="nonzero"></path>
                    <path d="M78.9978125,31.668125 C78.9978125,31.0859375 78.6384375,30.5971875 78.1065625,30.4175 L76.949375,30.015 L58.951875,36.383125 L48.7096875,32.775 C47.998125,32.5090625 47.23625,32.9115625 47.020625,33.58 C46.7546875,34.2915625 47.1571875,35.04625 47.825625,35.2690625 L58.5134375,39.056875 C58.65,39.1 58.8225,39.143125 58.9590625,39.143125 C59.095625,39.143125 59.268125,39.1 59.4046875,39.056875 L79.005,32.1065625 L79.005,31.668125 L78.9978125,31.668125 Z" id="Path" fill="#FFFFFF" fill-rule="nonzero"></path>
                    <path d="M30.6690625,6.9790625 C30.13,6.9790625 29.69875,7.4175 29.69875,7.949375 L29.69875,20.800625 C29.69875,21.3396875 30.1371875,21.7709375 30.6690625,21.7709375 L36.900625,21.7709375 C37.4396875,21.7709375 37.8709375,21.3325 37.8709375,20.800625 L37.8709375,7.949375 C37.8709375,7.4103125 37.4325,6.9790625 36.900625,6.9790625 L30.6690625,6.9790625 Z" id="Path" fill="#FFFFFF"></path>
                    <path d="M30.6690625,5.8075 L36.900625,5.8075 C38.0865625,5.8075 39.0425,6.7634375 39.0425,7.949375 L39.0425,20.800625 C39.0425,21.9865625 38.0865625,22.9425 36.900625,22.9425 L30.6690625,22.9425 C29.483125,22.9425 28.5271875,21.9865625 28.5271875,20.800625 L28.5271875,7.949375 C28.5271875,6.770625 29.483125,5.8075 30.6690625,5.8075 Z M30.6690625,6.9790625 C30.13,6.9790625 29.69875,7.4175 29.69875,7.949375 L29.69875,20.800625 C29.69875,21.3396875 30.1371875,21.7709375 30.6690625,21.7709375 L36.900625,21.7709375 C37.4396875,21.7709375 37.8709375,21.3325 37.8709375,20.800625 L37.8709375,7.949375 C37.8709375,7.4103125 37.4325,6.9790625 36.900625,6.9790625 L36.124375,6.9790625 L36.124375,6.8353125 C36.124375,6.5909375 35.923125,6.3896875 35.67875,6.3896875 L31.8909375,6.3896875 C31.6465625,6.3896875 31.4453125,6.5909375 31.4453125,6.8353125 L31.4453125,6.9790625 L30.6690625,6.9790625 Z M31.4453125,6.9790625 L31.4453125,7.5109375 C31.4453125,7.7553125 31.6465625,7.9565625 31.8909375,7.9565625 L35.67875,7.9565625 C35.923125,7.9565625 36.124375,7.7553125 36.124375,7.5109375 L36.124375,6.9790625 L31.4453125,6.9790625 Z" id="Shape" fill="#444B54"></path>
                    <path d="M41.328125,11.859375 C64.328125,4.671875 66.2471875,20.484375 64.328125,23.71875" id="Path" stroke="#444B54"></path>
                </g>
            </g>
        </g>
    </g>
</svg>