<?xml version="1.0" encoding="UTF-8"?>
<svg width="89px" height="73px" viewBox="0 0 89 73" version="1.1" xmlns="http://www.w3.org/2000/svg" xmlns:xlink="http://www.w3.org/1999/xlink">
    <!-- Generator: Sketch 57.1 (83088) - https://sketch.com -->
    <title>Website / Desktop /  Sell Home / Assets / How Icons / Price Icon</title>
    <desc>Created with Sketch.</desc>
    <g id="Website" stroke="none" stroke-width="1" fill="none" fill-rule="evenodd">
        <g id="Desktop-/-Sell-/-Home--/-Popup" transform="translate(-496.000000, -1162.000000)">
            <g id="Group-3" transform="translate(0.000000, 1.000000)">
                <g id="Group-2" transform="translate(376.000000, 1155.000000)">
                    <g id="icon/128/iconSell/Price-Guarantee" transform="translate(118.000000, 0.000000)">
                        <rect id="boundingBox" fill-opacity="0" fill="#FFFFFF" x="1.4375" y="0" width="92" height="92"></rect>
                        <g id="Icon" stroke-width="1" transform="translate(2.156250, 6.468750)">
                            <circle id="Oval" fill="#FFCB3F" fill-rule="nonzero" cx="35.9375" cy="35.9375" r="35.9375"></circle>
                            <circle id="Oval" fill="#FFFFFF" fill-rule="nonzero" cx="53.90625" cy="40.96875" r="20.125"></circle>
                            <path d="M60.2005753,63.71 C59.5761593,63.71 59.2129787,63.6843276 59.1811207,63.6843276 C58.4802457,63.6265648 57.9577752,63.0104276 58.0087479,62.3044371 C58.0660922,61.5984467 58.677765,61.0785809 59.37864,61.1235076 L59.37864,61.1235076 C60.2388048,61.1876886 80.525951,62.5033981 85.6805683,40.9771066 C85.8462296,40.2903704 86.5343615,39.860358 87.2161217,40.0272285 C87.897882,40.1940989 88.318407,40.8872532 88.1591172,41.5739894 C83.176533,62.4007086 64.7435198,63.71 60.2005753,63.71 Z" id="Path" fill="#444B54" fill-rule="nonzero"></path>
                            <path d="M81.5995891,55.085 C81.0341272,55.085 80.5146913,54.6778783 80.3437378,54.0338858 C80.1333333,53.2492512 80.5212665,52.4276056 81.2182311,52.1833326 L87.2081817,50.1181153 C87.9051463,49.8812445 88.6349866,50.317975 88.8519661,51.1026096 C89.0689457,51.8872441 88.6744374,52.7088897 87.9774728,52.9531627 L81.9875222,55.0183801 C81.8560195,55.0627934 81.7245167,55.085 81.5995891,55.085 Z" id="Path" fill="#444B54" fill-rule="nonzero"></path>
                            <path d="M81.1598774,54.36625 C80.4772235,54.36625 79.9040519,53.8031025 79.8718512,53.0771173 L79.569165,46.4414762 C79.5369644,45.6951362 80.0843755,45.0573548 80.7927899,45.0234302 C81.4947642,44.9962906 82.1065766,45.5662229 82.1387773,46.3125629 L82.4414634,52.948204 C82.4736641,53.694544 81.926253,54.3323255 81.2178386,54.36625 C81.2049583,54.36625 81.1791978,54.36625 81.1598774,54.36625 Z" id="Path" fill="#444B54" fill-rule="nonzero"></path>
                            <path d="M75.0896233,60.11625 C74.4195865,60.11625 73.8580318,59.5971373 73.819744,58.9260891 C73.7814562,58.2297183 74.3174857,57.6283072 75.019429,57.5903234 L81.0944295,57.242138 C81.8027541,57.2168154 82.4025966,57.7359282 82.4408844,58.4322989 C82.4791723,59.1286697 81.9431428,59.7300808 81.2411995,59.7680646 L75.166199,60.11625 C75.1406738,60.11625 75.1151485,60.11625 75.0896233,60.11625 Z" id="Path" fill="#444B54" fill-rule="nonzero"></path>
                            <path d="M75.0437292,59.3975 C74.9639175,59.3975 74.8902453,59.3911659 74.8104337,59.3721637 C74.1473832,59.239148 73.711489,58.5740695 73.8404155,57.8899887 L74.9823356,51.7966029 C75.1112621,51.1125221 75.7558944,50.6628024 76.4189448,50.7958181 C77.0819952,50.9288338 77.5178895,51.5939123 77.388963,52.277993 L76.2470429,58.3713789 C76.1365345,58.9794507 75.6208286,59.3975 75.0437292,59.3975 Z" id="Path" fill="#444B54" fill-rule="nonzero"></path>
                            <path d="M73.9782795,63.71 C73.9399368,63.71 73.8952036,63.71 73.8568609,63.7026508 L67.7923208,63.048574 C67.0893709,62.9750823 66.5717442,62.2548629 66.6356487,61.4464534 C66.6995533,60.6380438 67.3322081,60.0427605 68.0287675,60.1236014 L74.0933077,60.7776782 C74.7962576,60.85117 75.3138843,61.5713894 75.2499797,62.3797989 C75.1860752,63.1367642 74.6301058,63.71 73.9782795,63.71 Z" id="Path" fill="#444B54" fill-rule="nonzero"></path>
                            <path d="M68.7264085,62.99125 C68.5746377,62.99125 68.4159683,62.9651661 68.2641975,62.9129982 C67.5467357,62.6717219 67.1742074,61.921809 67.4294583,61.2436268 L69.6991211,55.2312814 C69.954372,54.5530993 70.7477192,54.2009663 71.465181,54.4422426 C72.1826428,54.6835189 72.5551711,55.4334319 72.2999202,56.111614 L70.0302574,62.1239594 C69.8232972,62.6586799 69.2920995,62.99125 68.7264085,62.99125 Z" id="Path" fill="#444B54" fill-rule="nonzero"></path>
                            <path d="M48.5761594,63.71 C43.9255487,63.71 25.0491568,62.4003737 19.948487,41.5747471 C19.7788995,40.8878353 20.2093909,40.1945037 20.9138312,40.0275905 C21.6117489,39.8606774 22.3161893,40.28438 22.4857767,40.9777116 C24.7034593,50.0359604 29.9084906,56.1796486 37.9378059,59.2290236 C43.9646842,61.51445 49.3588709,61.1292658 49.4110516,61.122846 C50.1285371,61.0714881 50.7547063,61.5979066 50.8134097,62.3040776 C50.872113,63.0102487 50.3372602,63.6265434 49.6132521,63.6843211 C49.5871617,63.6843211 49.2153738,63.71 48.5761594,63.71 Z" id="Path" fill="#444B54" fill-rule="nonzero"></path>
                            <path d="M27.2231702,55.085 C27.0982074,55.085 26.9666677,55.0659657 26.835128,55.0278972 L20.8434931,53.2577109 C20.1463325,53.0546788 19.7582903,52.3440664 19.9687538,51.6715225 C20.1792174,50.9989786 20.9158399,50.6246381 21.6130005,50.8276702 L27.6046354,52.5978565 C28.301796,52.8008887 28.6898382,53.5115011 28.4793746,54.184045 C28.308373,54.7296938 27.788791,55.085 27.2231702,55.085 Z" id="Path" fill="#444B54" fill-rule="nonzero"></path>
                            <path d="M26.9509984,54.36625 C26.9316854,54.36625 26.9123725,54.36625 26.8866219,54.36625 C26.1784808,54.3349337 25.6248431,53.7461874 25.663469,53.0572291 L25.9660384,46.9317626 C25.9982266,46.2428042 26.6098031,45.7229538 27.3115066,45.7417436 C28.0196477,45.7730599 28.5732854,46.3618061 28.5346595,47.0507645 L28.2320901,53.176231 C28.2063395,53.8463996 27.6333889,54.36625 26.9509984,54.36625 Z" id="Path" fill="#444B54" fill-rule="nonzero"></path>
                            <path d="M34.4522551,60.11625 C34.4267299,60.11625 34.4012047,60.11625 34.3756795,60.11625 L28.300679,59.7681889 C27.5987357,59.7302186 27.0627062,59.1290221 27.100994,58.4328999 C27.1392818,57.7367777 27.7518869,57.2051935 28.447449,57.2431638 L34.5224495,57.5912249 C35.2243928,57.6291952 35.7604223,58.2303916 35.7221344,58.9265139 C35.6838466,59.5973225 35.122292,60.11625 34.4522551,60.11625 Z" id="Path" fill="#444B54" fill-rule="nonzero"></path>
                            <path d="M33.7793993,59.3975 C33.2022999,59.3975 32.686594,58.9794507 32.5760856,58.3713789 L31.4341655,52.277993 C31.305239,51.5939123 31.7411332,50.9288338 32.4041837,50.7958181 C33.0672341,50.6628024 33.7118664,51.1125221 33.8407929,51.7966029 L34.982713,57.8899887 C35.1116395,58.5740695 34.6757452,59.239148 34.0126948,59.3721637 C33.9390226,59.3911659 33.8592109,59.3975 33.7793993,59.3975 Z" id="Path" fill="#444B54" fill-rule="nonzero"></path>
                            <path d="M34.2325185,63.71 C33.5263734,63.71 32.9240732,63.2514016 32.8548433,62.6458165 C32.7856134,61.9990751 33.3463756,61.4228874 34.1079047,61.3640927 L40.6778232,60.8408201 C41.4324292,60.776146 42.1108823,61.2582623 42.1870352,61.8991242 C42.2562651,62.5458655 41.6955028,63.1220533 40.9339738,63.180848 L34.3640553,63.7041205 C34.3155944,63.71 34.2740564,63.71 34.2325185,63.71 Z" id="Path" fill="#444B54" fill-rule="nonzero"></path>
                            <path d="M40.0898213,62.99125 C39.5241303,62.99125 38.9929326,62.6586799 38.7928711,62.1239594 L36.5232083,56.111614 C36.2679574,55.4334319 36.6404857,54.6900399 37.3579475,54.4422426 C38.0754093,54.2009663 38.8618578,54.5530993 39.1240074,55.2312814 L41.3936702,61.2436268 C41.6489211,61.921809 41.2763928,62.6652009 40.558931,62.9129982 C40.4002615,62.9651661 40.2484908,62.99125 40.0898213,62.99125 Z" id="Path" fill="#444B54" fill-rule="nonzero"></path>
                            <path d="M55.6341717,27.8287202 L55.6341717,29.447619 C56.707622,29.5563988 57.6332317,29.7803571 58.3981453,30.1066964 C59.1630589,30.4330357 59.8379827,30.9385417 60.410061,31.6040179 C60.8600102,32.1159226 61.2135417,32.640625 61.4577998,33.178125 C61.7020579,33.715625 61.824187,34.2147321 61.824187,34.6626488 C61.824187,35.161756 61.6377795,35.596875 61.2713923,35.9616071 C60.9050051,36.3263393 60.4614837,36.5119048 59.9408283,36.5119048 C58.9573679,36.5119048 58.3210112,35.9808036 58.0253303,34.925 C57.6910823,33.6772321 56.8940295,32.8453869 55.6277439,32.4358631 L55.6277439,38.6747024 C56.8747459,39.0138393 57.8646341,39.327381 58.6038364,39.6025298 C59.3430386,39.8776786 60.0051067,40.2872024 60.5836128,40.8183036 C61.2071138,41.3686012 61.6827744,42.0276786 62.0234502,42.7891369 C62.364126,43.5505952 62.53125,44.3888393 62.53125,45.303869 C62.53125,46.4428571 62.2612805,47.5114583 61.7277693,48.5032738 C61.1942581,49.4950893 60.3972053,50.3077381 59.3558943,50.9412202 C58.3145833,51.5747024 57.0740091,51.9458333 55.6341717,52.0674107 L55.6341717,55.8043155 C55.6341717,56.393006 55.5763211,56.8217262 55.4606199,57.096875 C55.3449187,57.3720238 55.0942327,57.5 54.7021341,57.5 C54.3421748,57.5 54.085061,57.3912202 53.9436484,57.1672619 C53.8022358,56.9433036 53.7251016,56.6041667 53.7251016,56.1498512 L53.7251016,52.0994048 C52.5488059,51.9714286 51.5203506,51.6962798 50.6461636,51.2739583 C49.7719766,50.8516369 49.0327744,50.3333333 48.4478404,49.70625 C47.8629065,49.0791667 47.425813,48.4328869 47.1429878,47.7546131 C46.8601626,47.0763393 46.71875,46.4172619 46.71875,45.7645833 C46.71875,45.2846726 46.9051575,44.8495536 47.2844004,44.465625 C47.6636433,44.0816964 48.132876,43.8897321 48.6920986,43.8897321 C49.1420478,43.8897321 49.5277185,43.9921131 49.8362551,44.2032738 C50.1447917,44.4144345 50.3633384,44.7087798 50.4854675,45.0863095 C50.755437,45.9053571 50.9932673,46.5324405 51.1925305,46.9675595 C51.3917937,47.4026786 51.7003303,47.7994048 52.1052846,48.1577381 C52.5102388,48.5160714 53.0501778,48.7912202 53.7251016,48.9831845 L53.7251016,42.0084821 C52.3816819,41.6373512 51.2568089,41.2278274 50.3504827,40.7735119 C49.4441565,40.3191964 48.7113821,39.6729167 48.1521596,38.8282738 C47.592937,37.983631 47.3101118,36.908631 47.3101118,35.5904762 C47.3101118,33.8691964 47.8629065,32.4614583 48.9620681,31.3608631 C50.0612297,30.2602679 51.6489075,29.6203869 53.7315295,29.4412202 L53.7315295,27.8543155 C53.7315295,27.0160714 54.0464939,26.59375 54.6828506,26.59375 C55.3127795,26.59375 55.6341717,27.0096726 55.6341717,27.8287202 Z M53.90625,38.09375 L53.90625,32.34375 C53.0030725,32.5934716 52.2929406,32.9264337 51.7896433,33.3362333 C51.2863459,33.7460329 51.03125,34.3671353 51.03125,35.1995406 C51.03125,35.9871242 51.2656625,36.5890173 51.7413819,36.9924137 C52.2171013,37.3958101 52.9410222,37.767191 53.90625,38.09375 Z M55.34375,42.40625 L55.34375,48.875 C56.2614268,48.6797407 56.9700126,48.2766249 57.4695076,47.6782498 C57.9690025,47.0798746 58.21875,46.3807205 58.21875,45.5807875 C58.21875,44.7241663 57.9748106,44.0628043 57.4927399,43.5967016 C57.0106692,43.1305988 56.2904672,42.727483 55.34375,42.40625 Z" id="Shape" fill="#1AB4E7" fill-rule="nonzero"></path>
                            <path d="M73.1834853,51.49125 C72.9910175,51.49125 72.7985498,51.4467941 72.6124976,51.3578823 C71.9773539,51.0466908 71.7207303,50.2845894 72.0350943,49.6558557 C73.4144466,46.8995889 74.1201618,43.9337442 74.1201618,40.8408826 C74.1201618,29.8856747 65.1126703,20.9690881 54.0457736,20.9690881 C42.978877,20.9690881 33.9713855,29.8856747 33.9713855,40.8408826 C33.9713855,43.9337442 34.6706851,46.8995889 36.056453,49.6558557 C36.370817,50.2845894 36.1141933,51.0466908 35.4790497,51.3578823 C34.8439061,51.6690737 34.074035,51.4150399 33.759671,50.7863062 C32.2006821,47.674392 31.4115642,44.3274966 31.4115642,40.8408826 C31.4115642,28.4821379 41.5674467,18.42875 54.0521892,18.42875 C66.5369317,18.42875 76.6928142,28.4821379 76.6928142,40.8408826 C76.6928142,44.3274966 75.9036964,47.674392 74.3447075,50.7863062 C74.1137462,51.2372162 73.6582391,51.49125 73.1834853,51.49125 Z" id="Path" fill="#444B54" fill-rule="nonzero"></path>
                        </g>
                    </g>
                </g>
            </g>
        </g>
    </g>
</svg>