<?xml version="1.0" encoding="UTF-8"?>
<svg width="88px" height="73px" viewBox="0 0 88 73" version="1.1" xmlns="http://www.w3.org/2000/svg" xmlns:xlink="http://www.w3.org/1999/xlink">
    <!-- Generator: Sketch 57.1 (83088) - https://sketch.com -->
    <title>Website / Desktop /  Sell Home / Assets / How Icons / Fast Easy Icon</title>
    <desc>Created with Sketch.</desc>
    <g id="Website" stroke="none" stroke-width="1" fill="none" fill-rule="evenodd">
        <g id="Desktop-/-Sell-/-Home--/-Popup" transform="translate(-914.000000, -1165.000000)">
            <g id="Group-3" transform="translate(0.000000, 1.000000)">
                <g id="Group-2" transform="translate(376.000000, 1155.000000)">
                    <g id="icon/128/iconSell/Getpaidfast" transform="translate(536.000000, 0.000000)">
                        <rect id="boundingBox" fill-opacity="0" fill="#FFFFFF" x="0" y="0" width="92" height="92"></rect>
                        <g id="Icon" stroke-width="1" transform="translate(2.156250, 9.343750)">
                            <circle id="Oval" fill="#FFCB3F" fill-rule="nonzero" cx="35.9375" cy="35.9375" r="35.9375"></circle>
                            <path d="M85.8758222,49.326913 C84.7670371,42.8380653 83.6582521,36.3554509 82.5431671,29.8666033 C81.9068757,26.1328667 78.2403252,22.5113293 74.4036769,22.7793604 C63.4355249,23.4587883 53.4501596,29.8915364 42.6269056,31.4560905 C37.4609753,32.129285 35.041808,29.6484384 35.0544078,29.7232378 C34.594514,29.2744414 33.9519227,29.0562765 33.4290297,29.1684756 C32.9124367,29.2806747 32.6289405,29.7045379 32.7234393,30.2530668 C33.8196245,36.6484152 34.9158097,43.049997 36.005695,49.4453454 C36.6419864,53.1790819 40.3085369,56.8006194 44.1451852,56.5325882 C55.1133372,55.8531604 65.0987025,49.4204123 75.9219564,47.8558582 C81.1823855,47.1826636 83.3873557,49.7694761 83.444055,49.7507763 C83.7716505,50.1434731 84.2252444,50.3865711 84.6788383,50.448904 C84.8237363,50.4676038 84.9623345,50.4676038 85.1009326,50.448904 C85.667925,50.3741046 85.9703209,49.9128416 85.8758222,49.326913 Z" id="Path" fill="#FFFFFF" fill-rule="nonzero"></path>
                            <path d="M43.9814869,58.21875 C39.4731223,58.21875 35.6432318,53.9930439 34.9647578,49.9940523 L31.6611602,30.6036662 C31.4519112,29.3882246 32.1684304,28.3176284 33.3541747,28.0657235 C34.2736021,27.8704971 35.2944835,28.1790807 36.0553889,28.878117 C36.0807524,28.8970099 36.099775,28.9096052 36.1251385,28.928498 C37.0509068,29.6653201 39.1370558,30.824083 42.7133112,30.3580588 C47.5577423,29.6527249 52.3894916,27.88939 57.0627189,26.1827337 C62.744146,24.1108152 68.6157993,21.9633252 74.7791331,21.5791701 C79.4967466,21.2579913 83.5992949,25.6348404 84.3031324,29.784975 L87.6511162,49.4461589 C87.6511162,49.4461589 87.6511162,49.4461589 87.6511162,49.4461589 C87.7589111,50.0885167 87.6257527,50.7056839 87.2706635,51.1843033 C86.9282561,51.6503276 86.408304,51.9526135 85.8059206,52.0407803 C85.5522855,52.078566 85.2923094,52.078566 85.0259925,52.0407803 C84.2841098,51.9400183 83.5802723,51.5621608 83.0666611,50.989077 C83.0539794,50.9764817 83.0349567,50.9638865 83.022275,50.9512912 C82.1725973,50.1766834 80.2005841,48.9549442 76.5482382,49.4209684 C71.710148,50.1263024 66.8783986,51.8896373 62.2051713,53.5962935 C56.5237443,55.668212 50.6520909,57.815702 44.4887571,58.1998571 C44.3175534,58.2124524 44.1463497,58.21875 43.9814869,58.21875 Z M33.78125,30.2881163 L37.0204203,49.2159003 C37.548615,52.2896968 40.5968715,55.5650537 43.8996797,55.3319995 C49.7289134,54.97297 55.4435988,52.8880793 60.9737343,50.8787738 C65.7847612,49.1277176 70.7612467,47.3136737 75.9031909,46.5704196 C80.5996695,45.9720371 83.2788261,47.6664045 84.4624914,48.7308955 C84.5388569,48.7875843 84.6088586,48.8568707 84.6724966,48.9324559 C84.7170431,48.982846 84.7615897,49.0269374 84.8125,49.0647299 L81.5287832,29.8472029 C81.0005884,26.7734064 77.952332,23.4917507 74.6495238,23.7311037 C68.8202901,24.0901332 63.1056047,26.1750239 57.5754692,28.1843294 C52.7644423,29.9353856 47.7879567,31.7494294 42.6460126,32.4926835 C38.1277201,33.0847673 35.3658343,31.5352715 34.1121672,30.5463656 C34.0421655,30.5022743 33.9721638,30.4455854 33.9148896,30.3888966 C33.8703431,30.3448052 33.8257965,30.3133114 33.78125,30.2881163 Z M84.8125,49.3457813 C84.8125,49.3529688 84.8125,49.3529688 84.8125,49.3601563 L86.25,49.1085937 L84.8125,49.3457813 Z M83.8242187,48.3682813 C84.1835938,48.3682813 84.5266335,48.4689063 84.8125,48.6629687 C84.559304,48.4689063 83.9957386,48.2676563 83.375,48.4257812 C83.522017,48.3826562 83.6690341,48.3682813 83.8242187,48.3682813 Z M33.83875,30.4390625 C33.9896875,30.546875 34.198125,30.6259375 34.4425,30.6546875 C34.226875,30.6259375 34.025625,30.5540625 33.83875,30.4390625 Z" id="Shape" fill="#444B54" fill-rule="nonzero"></path>
                            <path d="M62.5653097,47.7120814 C58.5763314,48.750217 54.3688645,45.8296789 53.1578132,41.1830839 C51.9467619,36.536489 54.2003161,31.927417 58.1892944,30.8830276 C62.1782727,29.8386382 66.3857396,32.7654301 67.5967909,37.4120251 C68.8078423,42.05862 66.554288,46.6676919 62.5653097,47.7120814 Z" id="Path" fill="#1AB4E7" fill-rule="nonzero"></path>
                            <path d="M59.2622522,33.2795495 L59.3957981,33.9582358 C59.8473104,33.9134169 60.2479481,33.932625 60.5913519,34.0030547 C60.9347556,34.0798871 61.252722,34.2335519 61.5452511,34.4640491 C61.7741869,34.6369221 61.9649668,34.8290031 62.1112313,35.0338895 C62.2574959,35.2387759 62.3465264,35.4372596 62.3846824,35.622938 C62.4291977,35.8342271 62.3846824,36.0263081 62.2638552,36.2119864 C62.1430279,36.3976647 61.9713261,36.5065107 61.7551089,36.5513296 C61.3481119,36.6345647 61.0428642,36.4616917 60.8330063,36.0455162 C60.5913519,35.5525083 60.1907142,35.2707894 59.6374526,35.2067624 L60.1525582,37.8126616 C60.6931011,37.8510778 61.1318948,37.8958967 61.4562205,37.953521 C61.7869056,38.0111453 62.0921533,38.1263939 62.3783231,38.2992668 C62.6835708,38.4785424 62.9315846,38.7154424 63.1350832,39.0035639 C63.3385817,39.2916854 63.4784869,39.6310286 63.5547988,40.0087879 C63.6501887,40.4825877 63.6247514,40.9563876 63.4848462,41.4109793 C63.344941,41.8719738 63.0842085,42.2753439 62.7090082,42.6274925 C62.3338078,42.979641 61.8504988,43.235749 61.2654406,43.4086219 L61.5770477,44.9708809 C61.6279224,45.2205862 61.640641,45.3998618 61.6152037,45.5215131 C61.5897664,45.6431645 61.4943765,45.7199969 61.3353933,45.7520104 C61.1891287,45.7840239 61.0746608,45.7584131 60.9919895,45.675178 C60.9156776,45.5983456 60.8584436,45.4574861 60.8202877,45.2654051 L60.4832433,43.5750922 C59.9872157,43.6199111 59.5420627,43.5878976 59.141425,43.4854543 C58.7407873,43.3830111 58.3973836,43.2229436 58.1048545,43.0116545 C57.8123254,42.8003654 57.5770303,42.5634655 57.4053284,42.3073574 C57.2336265,42.0512494 57.1191586,41.782336 57.068284,41.5134225 C57.030128,41.3149388 57.068284,41.1164551 57.1954706,40.9243741 C57.3226571,40.7322931 57.494359,40.6106418 57.7296541,40.5658229 C57.9140747,40.5274067 58.0857765,40.5402121 58.2320411,40.6042391 C58.3783056,40.6682661 58.4927735,40.7707093 58.5754448,40.9179714 C58.753506,41.2381064 58.9061299,41.481409 59.0269571,41.6478793 C59.1477843,41.8143495 59.3067675,41.9552089 59.5039067,42.0704575 C59.7010459,42.1857061 59.9490597,42.2561358 60.2415888,42.2817466 L59.6628899,39.3685178 C59.0778317,39.3236989 58.5754448,39.2468665 58.1684478,39.1316179 C57.7550915,39.0163693 57.3989691,38.8050802 57.1000806,38.5041532 C56.8011922,38.1968236 56.5913344,37.7742454 56.4832258,37.2172104 C56.3433206,36.500108 56.4514292,35.8662406 56.8139109,35.3092056 C57.1763926,34.7585734 57.7805288,34.3616059 58.6263194,34.1119006 L58.4927735,33.4460197 C58.4228209,33.0938712 58.5182108,32.8953875 58.7789433,32.8377632 C59.0269571,32.7865416 59.1922996,32.9338037 59.2622522,33.2795495 Z" id="Path" fill="#FFFFFF" fill-rule="nonzero"></path>
                            <path d="M59.2991771,37.8590993 L59.0505618,35.7028493 C58.8781885,35.8580993 58.7522234,36.0305993 58.6693517,36.2203493 C58.5864799,36.4100993 58.559961,36.6573493 58.5964245,36.9735993 C58.6295732,37.2725993 58.7025004,37.4795993 58.815206,37.5945993 C58.9279116,37.7153493 59.0870254,37.8015993 59.2991771,37.8590993 Z" id="Path" fill="#FFFFFF" fill-rule="nonzero"></path>
                            <path d="M60.7366771,39.2965993 L61.2242371,42.1715993 C61.5814032,41.9973569 61.8421911,41.7493965 62.0009316,41.4344198 C62.1596721,41.1194432 62.2106958,40.7843616 62.1483335,40.4291751 C62.0859711,40.0471821 61.9329,39.7791168 61.7004585,39.6182777 C61.4680171,39.4574385 61.1448669,39.3502124 60.7366771,39.2965993 Z" id="Path" fill="#FFFFFF" fill-rule="nonzero"></path>
                            <path d="M10.9511031,42.1715993 C10.3646963,42.1715993 9.84067315,41.7869677 9.72838248,41.2415946 C9.59737669,40.6215914 10.040301,40.0188106 10.7202834,39.8982544 L26.1914429,37.1599071 C26.8651869,37.0450917 27.5202159,37.4469456 27.6512216,38.0726895 C27.7822274,38.6926927 27.3393031,39.2954735 26.6593207,39.4160297 L11.1881612,42.154377 C11.1133008,42.1601178 11.032202,42.1715993 10.9511031,42.1715993 Z" id="Path" fill="#444B54" fill-rule="nonzero"></path>
                            <path d="M23.1755852,47.2028493 C22.58648,47.2028493 22.0600455,46.7344552 21.9472381,46.0703143 C21.8156295,45.3152909 22.260592,44.5812404 22.9437034,44.4344303 L33.3721199,42.197324 C34.0489643,42.050514 34.7070074,42.5468719 34.838616,43.3088862 C34.9702246,44.0639096 34.5252621,44.7979601 33.8421507,44.9447702 L23.4137342,47.1818765 C23.3385293,47.1958584 23.2570573,47.2028493 23.1755852,47.2028493 Z" id="Path" fill="#444B54" fill-rule="nonzero"></path>
                            <path d="M12.415982,55.1090993 C11.8166864,55.1090993 11.2811457,54.7042888 11.166387,54.1303036 C11.0325018,53.4777732 11.4851612,52.8433686 12.180089,52.7164876 L30.4713538,49.381332 C31.1599061,49.254451 31.8293319,49.6834294 31.9632171,50.3420018 C32.0971023,50.9945323 31.6444429,51.6289369 30.9495151,51.7558178 L12.6582504,55.0909735 C12.5753691,55.1030574 12.4988633,55.1090993 12.415982,55.1090993 Z" id="Path" fill="#444B54" fill-rule="nonzero"></path>
                            <path d="M26.7848512,57.2653493 C26.1884417,57.2653493 25.6554801,56.8731334 25.541274,56.3170064 C25.4080336,55.6847778 25.8585131,55.0701111 26.5500943,54.9471777 L37.6661512,52.9743903 C38.3513876,52.8514569 39.0175897,53.2670887 39.1508301,53.9051713 C39.2840705,54.5373999 38.833591,55.1520666 38.1420098,55.275 L27.0259529,57.2477874 C26.9434707,57.2536414 26.8609886,57.2653493 26.7848512,57.2653493 Z" id="Path" fill="#444B54" fill-rule="nonzero"></path>
                        </g>
                    </g>
                </g>
            </g>
        </g>
    </g>
</svg>