<?xml version="1.0" encoding="UTF-8"?>
<svg width="78px" height="63px" viewBox="0 0 78 63" version="1.1" xmlns="http://www.w3.org/2000/svg" xmlns:xlink="http://www.w3.org/1999/xlink">
    <!-- Generator: Sketch 57.1 (83088) - https://sketch.com -->
    <title>Website / Desktop /  Sell Home / Assets / How Icons / Fast Easy Icon Copy</title>
    <desc>Created with Sketch.</desc>
    <g id="Website" stroke="none" stroke-width="1" fill="none" fill-rule="evenodd">
        <g id="Mobile-/-Sell-/-Home-/-Popup" transform="translate(-218.000000, -3367.000000)">
            <g id="icon/128/iconSell/Getpaidfast" transform="translate(217.000000, 3359.000000)">
                <rect id="boundingBox" fill-opacity="0" fill="#FFFFFF" x="0" y="0" width="80" height="80"></rect>
                <g id="Icon" stroke-width="1" transform="translate(1.875000, 8.125000)">
                    <circle id="Oval" fill="#FFCB3F" fill-rule="nonzero" cx="31.25" cy="31.25" r="31.25"></circle>
                    <path d="M74.674628,42.8929678 C73.7104671,37.2504916 72.7463062,31.6134356 71.7766671,25.9709594 C71.2233702,22.7242319 68.0350654,19.5750689 64.6988495,19.8081395 C55.161326,20.3989463 46.4783997,25.9926404 37.0668745,27.3531221 C32.5747612,27.9385087 30.4711374,25.7812508 30.4820937,25.8462937 C30.0821861,25.456036 29.523411,25.2663274 29.0687215,25.3638918 C28.6195102,25.4614562 28.3729918,25.830033 28.4551646,26.3070146 C29.4083691,31.8681872 30.3615736,37.43478 31.3093,42.9959525 C31.8625969,46.24268 35.0509017,49.391843 38.3871175,49.1587724 C47.924641,48.5679655 56.6075674,42.9742715 66.0190926,41.6137897 C70.5933787,41.0284032 72.5107441,43.2778053 72.5600478,43.2615446 C72.8449135,43.6030201 73.239343,43.8144097 73.6337724,43.8686121 C73.7597707,43.8848729 73.8802909,43.8848729 74.000811,43.8686121 C74.4938478,43.8035692 74.7568008,43.402471 74.674628,42.8929678 Z" id="Path" fill="#FFFFFF" fill-rule="nonzero"></path>
                    <path d="M38.2447712,50.625 C34.3244542,50.625 30.9941146,46.950473 30.4041372,43.4730889 L27.5314436,26.6118836 C27.349488,25.5549779 27.9725482,24.6240247 29.0036302,24.4049769 C29.8031322,24.2352149 30.6908552,24.5035484 31.3525121,25.1114061 C31.3745673,25.1278347 31.3911087,25.1387871 31.413164,25.1552157 C32.2181798,25.7959305 34.0322224,26.8035505 37.1420097,26.398312 C41.3545585,25.7849781 45.5560796,24.2516434 49.6197556,22.7675945 C54.5601269,20.9659263 59.6659125,19.0985437 65.0253331,18.7644958 C69.1276057,18.4852098 72.6950391,22.2911655 73.3070717,25.8999782 L76.2183619,42.99666 C76.2183619,42.99666 76.2183619,42.99666 76.2183619,42.99666 C76.3120966,43.5552319 76.1963067,44.091899 75.8875335,44.5080899 C75.5897879,44.9133283 75.1376557,45.1761857 74.613844,45.2528524 C74.3932917,45.2857096 74.1672256,45.2857096 73.9356457,45.2528524 C73.2905302,45.1652333 72.6784976,44.8366616 72.2318792,44.3383278 C72.2208516,44.3273754 72.2043102,44.316423 72.1932826,44.3054706 C71.4544324,43.6318986 69.7396384,42.5695167 66.5636854,42.9747552 C62.3566504,43.588089 58.1551293,45.1214237 54.0914533,46.6054727 C49.151082,48.4071409 44.0452964,50.2745235 38.6858758,50.6085714 C38.537003,50.6195238 38.3881302,50.625 38.2447712,50.625 Z M29.375,26.3374925 L32.1916698,42.796435 C32.6509696,45.4693015 35.3016274,48.317438 38.1736345,48.1147822 C43.2425334,47.8025826 48.211825,45.9896342 53.0206385,44.242412 C57.2041402,42.7197544 61.5315189,41.142325 66.0027747,40.4960171 C70.0866692,39.9756845 72.4163705,41.4490474 73.4456447,42.3746917 C73.5120495,42.4239864 73.5729206,42.4842354 73.6282579,42.5499617 C73.666994,42.5937791 73.7057301,42.6321194 73.75,42.6649826 L70.8945941,25.9540895 C70.4352943,23.2812229 67.7846365,20.4276093 64.9126294,20.6357423 C59.8437305,20.9479419 54.8744388,22.7608903 50.0656254,24.5081125 C45.8821237,26.0307701 41.554745,27.6081995 37.0834892,28.2545074 C33.1545392,28.7693628 30.7528994,27.4219752 29.6627541,26.5620571 C29.601883,26.5237168 29.541012,26.4744221 29.4912084,26.4251274 C29.4524723,26.3867871 29.4137361,26.3594012 29.375,26.3374925 Z M73.75,42.909375 C73.75,42.915625 73.75,42.915625 73.75,42.921875 L75,42.703125 L73.75,42.909375 Z M72.890625,42.059375 C73.203125,42.059375 73.5014205,42.146875 73.75,42.315625 C73.5298295,42.146875 73.0397727,41.971875 72.5,42.109375 C72.6278409,42.071875 72.7556818,42.059375 72.890625,42.059375 Z M29.425,26.46875 C29.55625,26.5625 29.7375,26.63125 29.95,26.65625 C29.7625,26.63125 29.5875,26.56875 29.425,26.46875 Z" id="Shape" fill="#444B54" fill-rule="nonzero"></path>
                    <path d="M54.4046171,41.4887664 C50.9359404,42.391493 47.2772735,39.8518947 46.2241854,35.8113773 C45.1710973,31.77086 47.1307097,27.7629713 50.5993864,26.8548066 C54.0680632,25.9466419 57.7267301,28.4916784 58.7798182,32.5321957 C59.8329063,36.572713 57.8732939,40.5806017 54.4046171,41.4887664 Z" id="Path" fill="#1AB4E7" fill-rule="nonzero"></path>
                    <path d="M51.5323933,28.9387387 L51.6485201,29.5289007 C52.0411395,29.4899277 52.3895201,29.5066304 52.688132,29.5678737 C52.986744,29.6346844 53.2632365,29.768306 53.5176096,29.9687384 C53.7166843,30.1190627 53.8825798,30.2860896 54.0097664,30.4642517 C54.1369529,30.6424138 54.2143708,30.8150084 54.2475499,30.9764678 C54.2862589,31.1601975 54.2475499,31.3272244 54.1424828,31.4886838 C54.0374156,31.6501433 53.8881096,31.7447919 53.7000947,31.7837648 C53.3461843,31.8561432 53.0807514,31.7058189 52.8982664,31.3439271 C52.688132,30.9152246 52.3397515,30.6702517 51.8586544,30.614576 L52.3065724,32.8805753 C52.7766097,32.9139807 53.1581694,32.9529536 53.4401917,33.0030617 C53.727744,33.0531698 53.9931768,33.153386 54.2420201,33.3037103 C54.5074529,33.4596021 54.7231171,33.6656021 54.9000723,33.9161425 C55.0770275,34.166683 55.1986842,34.461764 55.2650424,34.7902503 C55.3479902,35.2022502 55.3258708,35.6142501 55.2042141,36.0095473 C55.0825574,36.410412 54.8558335,36.7611686 54.5295723,37.0673847 C54.2033111,37.3736009 53.7830425,37.5963035 53.2742962,37.7466278 L53.5452589,39.1051138 C53.5894977,39.3222489 53.6005574,39.4781407 53.578438,39.5839245 C53.5563186,39.6897082 53.4733708,39.756519 53.3351246,39.7843568 C53.207938,39.8121947 53.1084007,39.7899244 53.0365126,39.7175461 C52.9701544,39.6507353 52.9203858,39.5282488 52.8872067,39.3612218 L52.5941246,37.8913845 C52.1627962,37.9303574 51.7757067,37.9025196 51.4273261,37.8134386 C51.0789455,37.7243575 50.7803336,37.5851684 50.5259604,37.4014387 C50.2715873,37.217709 50.0669828,37.0117091 49.9176769,36.7890065 C49.7683709,36.5663038 49.6688336,36.3324661 49.6245948,36.0986283 C49.5914157,35.9260338 49.6245948,35.7534392 49.7351918,35.5864123 C49.8457888,35.4193853 49.9950948,35.3136015 50.1996993,35.2746286 C50.3600649,35.2412232 50.5093709,35.2523583 50.6365575,35.308034 C50.763744,35.3637096 50.8632813,35.4527907 50.9351694,35.5808447 C51.0900052,35.859223 51.2227216,36.0707905 51.3277888,36.2155472 C51.4328559,36.3603039 51.5711022,36.4827903 51.7425276,36.5830065 C51.913953,36.6832227 52.1296171,36.7444659 52.3839903,36.7667362 L51.8807739,34.2334938 C51.3720276,34.1945208 50.9351694,34.12771 50.5812589,34.0274938 C50.2218187,33.9272777 49.912147,33.743548 49.652244,33.4818724 C49.3923411,33.2146292 49.209856,32.8471699 49.1158485,32.3627917 C48.9941918,31.7392243 49.0881993,31.1880353 49.4034008,30.7036571 C49.7186022,30.2248464 50.2439381,29.8796573 50.9794082,29.6625223 L50.8632813,29.0834954 C50.802453,28.7772793 50.8854007,28.6046848 51.1121246,28.5545767 C51.3277888,28.5100362 51.4715649,28.6380902 51.5323933,28.9387387 Z" id="Path" fill="#FFFFFF" fill-rule="nonzero"></path>
                    <path d="M51.5645018,32.9209559 L51.3483146,31.0459559 C51.1984248,31.1809559 51.0888899,31.3309559 51.0168275,31.4959559 C50.9447651,31.6609559 50.9217052,31.8759559 50.9534126,32.1509559 C50.9822376,32.4109559 51.0456525,32.5909559 51.1436574,32.6909559 C51.2416622,32.7959559 51.380022,32.8709559 51.5645018,32.9209559 Z" id="Path" fill="#FFFFFF" fill-rule="nonzero"></path>
                    <path d="M52.8145018,34.1709559 L53.238467,36.6709559 C53.5490462,36.5194408 53.7758184,36.3038231 53.9138536,36.0299303 C54.0518888,35.7560375 54.0962572,35.4646622 54.0420291,35.1558044 C53.987801,34.8236366 53.8546956,34.5905364 53.6525726,34.4506762 C53.4504497,34.3108161 53.1694494,34.217576 52.8145018,34.1709559 Z" id="Path" fill="#FFFFFF" fill-rule="nonzero"></path>
                    <path d="M9.52269839,36.6709559 C9.01277938,36.6709559 8.55710709,36.3364937 8.45946302,35.8622562 C8.34554495,35.323123 8.73069653,34.7989657 9.32198559,34.6941343 L22.7751677,32.3129627 C23.3610321,32.2131232 23.9306225,32.5625614 24.0445406,33.1066866 C24.1584586,33.6458197 23.773307,34.169977 23.182018,34.2748085 L9.72883585,36.65598 C9.66373981,36.660972 9.5932191,36.6709559 9.52269839,36.6709559 Z" id="Path" fill="#444B54" fill-rule="nonzero"></path>
                    <path d="M20.1526828,41.0459559 C19.6404174,41.0459559 19.1826483,40.6386567 19.0845549,40.0611429 C18.9701126,39.4046008 19.3570365,38.766296 19.9510464,38.6386351 L29.0192347,36.6933253 C29.607795,36.5656643 30.1800064,36.9972799 30.2944487,37.6599011 C30.408891,38.3164431 30.0219671,38.9547479 29.4279572,39.0824089 L20.3597689,41.0277187 C20.2943733,41.0398768 20.223528,41.0459559 20.1526828,41.0459559 Z" id="Path" fill="#444B54" fill-rule="nonzero"></path>
                    <path d="M10.796506,47.9209559 C10.2753795,47.9209559 9.80969194,47.5689468 9.70990175,47.0698293 C9.59347986,46.5024115 9.98709673,45.9507553 10.5913818,45.840424 L26.4968294,42.9402887 C27.0955705,42.8299574 27.6776799,43.2029821 27.7941018,43.7756537 C27.9105237,44.3430715 27.5169069,44.8947277 26.9126218,45.005059 L11.0071742,47.9051943 C10.9351035,47.9157021 10.8685767,47.9209559 10.796506,47.9209559 Z" id="Path" fill="#444B54" fill-rule="nonzero"></path>
                    <path d="M23.2911749,49.7959559 C22.772558,49.7959559 22.3091131,49.4548986 22.2098035,48.9713099 C22.0939423,48.4215459 22.4856636,47.8870531 23.0870385,47.7801545 L32.753175,46.0646872 C33.3490327,45.9577886 33.9283388,46.3192076 34.0442001,46.874062 C34.1600613,47.423826 33.76834,47.9583188 33.1669651,48.0652174 L23.5008286,49.7806847 C23.429105,49.7857751 23.3573814,49.7959559 23.2911749,49.7959559 Z" id="Path" fill="#444B54" fill-rule="nonzero"></path>
                </g>
            </g>
        </g>
    </g>
</svg>