<?xml version="1.0" encoding="UTF-8"?>
<svg width="81px" height="73px" viewBox="0 0 81 73" version="1.1" xmlns="http://www.w3.org/2000/svg" xmlns:xlink="http://www.w3.org/1999/xlink">
    <!-- Generator: Sketch 57.1 (83088) - https://sketch.com -->
    <title>Website / Desktop /  Sell Home / Assets / How Icons / Zero Risk Icon</title>
    <desc>Created with Sketch.</desc>
    <g id="Website" stroke="none" stroke-width="1" fill="none" fill-rule="evenodd">
        <g id="Desktop-/-Sell-/-Home--/-Popup" transform="translate(-1337.000000, -1165.000000)">
            <g id="Group-3" transform="translate(0.000000, 1.000000)">
                <g id="Group-2" transform="translate(376.000000, 1155.000000)">
                    <g id="icon/128/iconSell/Clean-Package" transform="translate(956.000000, 0.000000)">
                        <rect id="boundingBox" fill-opacity="0" fill="#FFFFFF" x="0" y="0" width="92" height="92"></rect>
                        <g id="Icon" stroke-width="1" transform="translate(5.031250, 9.343750)">
                            <circle id="Oval" fill="#FFCB3F" fill-rule="nonzero" cx="35.9375" cy="35.9375" r="35.9375"></circle>
                            <polygon id="Path" fill="#FFFFFF" fill-rule="nonzero" points="22.9640625 24.98375 40.3290625 18.673125 58.1396875 24.9765625 40.3290625 31.840625"></polygon>
                            <polygon id="Path" fill="#FFFFFF" fill-rule="nonzero" points="59.08125 25.73125 40.6021875 32.271875 22.123125 25.73125 22.123125 48.8246875 40.6021875 55.3653125 59.08125 48.8246875"></polygon>
                            <polygon id="Path" fill="#FFFFFF" fill-rule="nonzero" points="22.1303125 25.73125 22.1303125 48.8246875 40.609375 55.3653125 59.0884375 48.8246875 59.0884375 25.73125 40.609375 32.271875"></polygon>
                            <path d="M40.6021875,33.4290625 C40.1421875,33.4290625 39.675,33.12 39.5240625,32.66 C39.2940625,32.041875 39.6390625,31.3878125 40.2140625,31.19375 L58.693125,24.653125 C59.31125,24.423125 59.9653125,24.768125 60.159375,25.343125 C60.389375,25.96125 60.044375,26.6153125 59.469375,26.809375 L40.9903125,33.35 C40.8753125,33.393125 40.7171875,33.4290625 40.6021875,33.4290625 Z" id="Path" fill="#444B54" fill-rule="nonzero"></path>
                            <path d="M40.6021875,56.5225 C40.4871875,56.5225 40.33625,56.4865625 40.2140625,56.4434375 L21.735,49.9028125 C21.275,49.751875 20.9659375,49.2846875 20.9659375,48.8246875 L20.9659375,25.73125 C20.9659375,25.0771875 21.4690625,24.5740625 22.123125,24.5740625 C22.7771875,24.5740625 23.2803125,25.0771875 23.2803125,25.73125 L23.2803125,48.0196875 L40.983125,54.294375 C41.60125,54.524375 41.9103125,55.1784375 41.673125,55.760625 C41.529375,56.2134375 41.069375,56.5225 40.6021875,56.5225 Z" id="Path" fill="#444B54" fill-rule="nonzero"></path>
                            <path d="M59.08125,24.9621875 C58.4271875,24.9621875 57.9240625,25.0771875 57.9240625,25.73125 L57.9240625,34.1621875 L45.7196875,38.55375 L41.60125,31.7040625 C41.3353125,31.2440625 40.79625,31.05 40.293125,31.2009375 C39.79,31.3159375 39.445,31.7759375 39.445,32.2790625 L39.445,44.4834375 L39.445,53.7625 L23.2803125,48.026875 L23.2803125,25.7384375 C23.2803125,25.084375 20.973125,25.084375 20.973125,25.7384375 L20.973125,48.831875 C20.973125,49.335 21.2821875,49.7590625 21.7421875,49.91 L40.22125,56.450625 C40.33625,56.4865625 40.4871875,56.5296875 40.609375,56.5296875 C40.7315625,56.5296875 40.8753125,56.49375 40.9975,56.450625 L59.4765625,49.91 C59.9365625,49.7590625 60.245625,49.291875 60.245625,48.831875 L60.245625,34.974375 L60.245625,25.7384375 C60.2384375,25.0771875 59.7353125,24.9621875 59.08125,24.9621875 Z" id="Path" fill="#444B54" fill-rule="nonzero"></path>
                            <polygon id="Path" fill="#FFFFFF" fill-rule="nonzero" points="22.1303125 25.73125 17.50875 33.4290625 35.9878125 39.9696875 40.609375 32.271875"></polygon>
                            <polygon id="Path" fill="#FFFFFF" fill-rule="nonzero" points="63.7028125 33.4290625 45.22375 39.9696875 40.6021875 32.271875 59.08125 25.73125"></polygon>
                            <path d="M64.701875,32.8540625 L60.0803125,25.15625 C59.8071875,24.69625 59.2321875,24.46625 58.693125,24.653125 L40.6021875,31.0428125 L22.51125,24.653125 C22.008125,24.4590625 21.433125,24.6890625 21.1240625,25.15625 L16.5025,32.8540625 C16.3515625,33.12 16.3084375,33.508125 16.4234375,33.8171875 C16.5384375,34.12625 16.8115625,34.3921875 17.1134375,34.5071875 L35.5925,41.0478125 C35.7075,41.08375 35.8584375,41.126875 35.980625,41.126875 C36.36875,41.126875 36.7496875,40.9328125 36.9796875,40.551875 L40.595,34.5071875 L44.2103125,40.551875 C44.4403125,40.94 44.8284375,41.126875 45.209375,41.126875 C45.324375,41.126875 45.4753125,41.0909375 45.5975,41.0478125 L64.0765625,34.5071875 C64.385625,34.3921875 64.6515625,34.1190625 64.7665625,33.8171875 C64.8959375,33.508125 64.8528125,33.12 64.701875,32.8540625 Z M35.4846875,38.5896875 L19.2409375,32.818125 L22.669375,27.1184375 L38.913125,32.89 L35.4846875,38.5896875 Z M45.726875,38.5896875 L42.2984375,32.89 L58.5421875,27.1184375 L61.970625,32.818125 L45.726875,38.5896875 Z" id="Shape" fill="#444B54" fill-rule="nonzero"></path>
                            <path d="M22.6909375,27.0465625 C22.1015625,27.0465625 21.548125,26.68 21.3396875,26.090625 C21.07375,25.343125 21.461875,24.52375 22.209375,24.250625 L40.4009375,17.7459375 C40.7171875,17.638125 41.055,17.6309375 41.37125,17.7459375 L58.894375,24.049375 C59.641875,24.3153125 60.03,25.141875 59.7640625,25.889375 C59.498125,26.636875 58.6715625,27.025 57.9240625,26.7590625 L40.8825,20.6353125 L23.1725,26.9603125 C23.014375,27.0178125 22.85625,27.0465625 22.6909375,27.0465625 Z" id="Path" fill="#444B54" fill-rule="nonzero"></path>
                            <path d="M55.760625,31.2728125 C54.4309375,31.2728125 53.36,32.3940625 53.36,33.766875 L53.36,66.7215625 C53.36,68.1015625 54.438125,69.215625 55.760625,69.215625 L71.1346875,69.215625 C72.464375,69.215625 73.5353125,68.094375 73.5353125,66.7215625 L73.5353125,33.766875 C73.5353125,32.386875 72.4571875,31.2728125 71.1346875,31.2728125 L55.760625,31.2728125 Z" id="Path" fill="#FFFFFF"></path>
                            <path d="M56.1559375,29.885625 L70.7321875,29.885625 C73.499375,29.885625 75.741875,32.1640625 75.741875,34.9671875 L75.741875,65.46375 C75.741875,68.2740625 73.499375,70.5453125 70.7321875,70.5453125 L56.1559375,70.5453125 C53.38875,70.5453125 51.14625,68.266875 51.14625,65.46375 L51.14625,34.9671875 C51.14625,32.156875 53.38875,29.885625 56.1559375,29.885625 Z M56.1559375,32.6528125 C54.898125,32.6528125 53.8775,33.6878125 53.8775,34.96 L53.8775,65.4565625 C53.8775,66.7359375 54.898125,67.76375 56.1559375,67.76375 L70.7321875,67.76375 C71.99,67.76375 73.010625,66.72875 73.010625,65.4565625 L73.010625,34.96 C73.010625,33.680625 71.99,32.6528125 70.7321875,32.6528125 L68.91375,32.6528125 L68.91375,32.315 C68.91375,31.7328125 68.4465625,31.265625 67.87875,31.265625 L59.0165625,31.265625 C58.4415625,31.265625 57.9815625,31.7328125 57.9815625,32.315 L57.9815625,32.6528125 L56.1559375,32.6528125 Z M57.9815625,32.6528125 L57.9815625,33.910625 C57.9815625,34.4928125 58.44875,34.96 59.0165625,34.96 L67.87875,34.96 C68.45375,34.96 68.91375,34.4928125 68.91375,33.910625 L68.91375,32.6528125 L57.9815625,32.6528125 Z" id="Shape" fill="#444B54"></path>
                            <path d="M63.4225,54.1865625 C63.063125,54.1865625 62.6965625,54.05 62.4234375,53.776875 L57.629375,49.119375 C57.0615625,48.5659375 57.0471875,47.653125 57.600625,47.0853125 C58.1540625,46.5175 59.066875,46.503125 59.6346875,47.0565625 L63.4225,50.74375 L78.0059375,36.57 C78.57375,36.0165625 79.4865625,36.0309375 80.04,36.59875 C80.5934375,37.1665625 80.5790625,38.079375 80.01125,38.6328125 L64.42875,53.7840625 C64.14125,54.05 63.781875,54.1865625 63.4225,54.1865625 Z" id="Path" fill="#1AB4E7" fill-rule="nonzero"></path>
                        </g>
                    </g>
                </g>
            </g>
        </g>
    </g>
</svg>