<?xml version="1.0" encoding="UTF-8"?>
<svg width="90px" height="73px" viewBox="0 0 90 73" version="1.1" xmlns="http://www.w3.org/2000/svg" xmlns:xlink="http://www.w3.org/1999/xlink">
    <!-- Generator: Sketch 57.1 (83088) - https://sketch.com -->
    <title>Website / Desktop /  Sell Home / Assets / How It Works / Step 1 Icon </title>
    <desc>Created with Sketch.</desc>
    <g id="Symbols" stroke="none" stroke-width="1" fill="none" fill-rule="evenodd">
        <g id="Hero/how" transform="translate(-142.000000, -116.000000)">
            <g id="icon/128/iconSell/Getpaidmore" transform="translate(141.000000, 106.000000)">
                <rect id="boundingBox" fill-opacity="0" fill="#FFFFFF" x="0" y="0" width="92" height="92"></rect>
                <g id="Icon" stroke-width="1" transform="translate(0.718750, 10.062500)">
                    <g id="Group-3">
                        <g id="Group-4" transform="translate(0.625313, 0.572233)">
                            <circle id="Oval" fill="#FFCB3F" fill-rule="nonzero" cx="35.9375" cy="35.9375" r="35.9375"></circle>
                            <rect id="Rectangle" x="51.1246875" y="3.061875" width="23.0359375" height="32.8828125"></rect>
                            <polygon id="Path" fill="#444B54" fill-rule="nonzero" points="69.4815625 35.9375 69.4815625 14.57625 74.160625 14.57625 62.64625 3.061875 51.1246875 14.57625 55.80375 14.57625 55.80375 35.9375"></polygon>
                            <path d="M80.9097822,61.251875 C80.845,54.1003125 80.7875,46.9559375 80.73,39.804375 C80.6940625,35.693125 77.4309375,31.179375 73.3053125,30.8128125 C61.539375,29.67 49.8309375,34.87375 38.079375,34.7084375 C32.4803125,34.5503125 30.3384375,31.4740625 30.3384375,31.553125 C29.92875,30.9925 29.281875,30.6546875 28.7140625,30.6834375 C28.14625,30.7121875 27.7725,31.121875 27.7725,31.7328125 C27.83,38.78375 27.8946875,45.8346875 27.9521875,52.885625 C27.988125,56.996875 31.25125,61.510625 35.376875,61.8771875 C47.1428125,63.02 58.85125,57.81625 70.6028125,57.9815625 C76.3025,58.16125 78.2,61.3021875 78.2575,61.295 C78.5378125,61.769375 78.9834375,62.114375 79.450625,62.258125 C79.6015625,62.30125 79.7525,62.3300871 79.89625,62.3300871 C80.514375,62.3371875 80.916875,61.89875 80.9097822,61.251875 Z" id="Path" fill="#FFFFFF" fill-rule="nonzero"></path>
                            <path d="M79.9178125,63.7675 C79.9034375,63.7675 79.8890625,63.7675 79.8746875,63.7675 C79.594375,63.7603125 79.3140625,63.7171875 79.03375,63.6309375 C78.2503125,63.39375 77.553125,62.8546875 77.1003125,62.1503125 C77.0859375,62.1359375 77.0715625,62.1215625 77.064375,62.1 C76.3096875,61.1440625 74.4553125,59.526875 70.5596875,59.411875 C65.3559375,59.354375 59.9509375,60.3965625 54.74,61.4171875 C48.38625,62.660625 41.8240625,63.9471875 35.2403125,63.3075 C30.1515625,62.8546875 26.5578125,57.456875 26.521875,52.9 L26.3420299,31.7471875 C26.3278125,30.374375 27.298125,29.325 28.6421875,29.253125 C29.6628125,29.195625 30.719375,29.713125 31.42375,30.604375 C31.4453125,30.6259375 31.466875,30.6475 31.4884375,30.67625 C32.329375,31.6034375 34.313125,33.1775 38.1296875,33.2853125 C43.3334375,33.35 48.7384375,32.300625 53.9565625,31.28 C60.303125,30.0365625 66.8725,28.75 73.4490625,29.3896875 C78.5378125,29.8425 82.1315625,35.2403125 82.1675,39.7971875 L82.3473333,61.2446875 L82.3473333,61.2446875 C82.354375,61.9634375 82.095625,62.6175 81.62125,63.0846875 C81.175625,63.523125 80.571875,63.7675 79.9178125,63.7675 Z M79.4721875,61.26625 C79.4721875,61.26625 79.4721875,61.26625 79.4721875,61.26625 L80.9096875,61.251875 L79.4721875,61.26625 Z M29.21,32.45875 L29.3825,52.8784375 C29.41125,56.1271875 32.085,60.145 35.491875,60.446875 C41.6659375,61.050625 48.026875,59.8 54.1721875,58.5996875 C59.5340625,57.5503125 65.0828125,56.465 70.61,56.5440625 C75.6771875,56.7021875 78.2215625,58.96625 79.2925,60.3103125 C79.35,60.375 79.4075,60.446875 79.4578125,60.51875 L79.278125,39.81875 C79.249375,36.57 76.575625,32.5521875 73.16875,32.2503125 C66.9946875,31.65375 60.6409375,32.8971875 54.4884375,34.0975 C49.1265625,35.146875 43.5921875,36.239375 38.050625,36.153125 C33.1703125,36.0165625 30.518125,33.89625 29.3609375,32.6240625 C29.310625,32.57375 29.2603125,32.51625 29.21,32.45875 Z M78.2575,59.8575 C78.6528125,59.8575 79.03375,60.0228125 79.2996875,60.303125 C79.105625,60.073125 78.6528125,59.7928125 78.085,59.8646875 C78.1425,59.8575 78.2,59.8575 78.2575,59.8575 Z M29.3753125,32.63125 C29.4975,32.7534375 29.6771875,32.86125 29.8928125,32.9259375 C29.7059375,32.8684375 29.52625,32.7678125 29.3753125,32.63125 Z" id="Shape" fill="#444B54" fill-rule="nonzero"></path>
                            <path d="M84.5682197,56.89625 C84.5034375,49.7446875 84.4459375,42.6003125 84.3884375,35.44875 C84.3525,31.3375 81.089375,26.82375 76.96375,26.4571875 C65.1978125,25.314375 53.489375,30.518125 41.7378125,30.3528125 C36.13875,30.1946875 33.996875,27.1184375 33.996875,27.1975 C33.5871875,26.636875 32.9403125,26.2990625 32.3725,26.3278125 C31.8046875,26.3565625 31.4309375,26.76625 31.4309375,27.3771875 C31.4884375,34.428125 31.553125,41.4790625 31.610625,48.53 C31.6465625,52.64125 34.9096875,57.155 39.0353125,57.5215625 C50.80125,58.664375 62.5096875,53.460625 74.26125,53.6259375 C79.9609375,53.805625 81.8584375,56.9465625 81.9159375,56.939375 C82.19625,57.41375 82.641875,57.75875 83.1090625,57.9025 C83.26,57.945625 83.4109375,57.9744621 83.5546875,57.9744621 C84.1728125,57.9815625 84.5753125,57.543125 84.5682197,56.89625 Z" id="Path" fill="#FFFFFF" fill-rule="nonzero"></path>
                            <path d="M83.5834375,59.4046875 C83.5690625,59.4046875 83.5546875,59.4046875 83.533125,59.4046875 C83.26,59.3975 82.9725,59.354375 82.6921875,59.268125 C81.90875,59.0309375 81.2115625,58.491875 80.75875,57.7875 C80.744375,57.773125 80.73,57.75875 80.7228125,57.7371875 C79.968125,56.78125 78.11375,55.1640625 74.218125,55.041875 C69.0215625,54.984375 63.609375,56.0265625 58.3984375,57.0471875 C52.051875,58.290625 45.4825,59.5771875 38.89875,58.9375 C33.81,58.4846875 30.21625,53.086875 30.1803125,48.53 L30.0004674,27.3771875 C29.98625,26.004375 30.9565625,24.955 32.300625,24.883125 C33.32125,24.84 34.3778125,25.343125 35.0821875,26.234375 C35.10375,26.2559375 35.1253125,26.2775 35.146875,26.2990625 C35.9878125,27.22625 37.9715625,28.8003125 41.788125,28.908125 C47.0134375,28.98 52.396875,27.9234375 57.615,26.9028125 C63.96875,25.659375 70.5309375,24.3728125 77.1146875,25.0125 C82.2034375,25.4653125 85.7971875,30.863125 85.833125,35.42 L86.0129583,56.8675 C86.0129583,56.8675 86.0129583,56.8675 86.0129583,56.8675 C86.02,57.58625 85.76125,58.2475 85.286875,58.7146875 C84.84125,59.1675 84.2375,59.4046875 83.5834375,59.4046875 Z M83.130625,56.9034375 C83.130625,56.910625 83.130625,56.910625 83.130625,56.9034375 L84.568125,56.8890625 L83.130625,56.9034375 Z M32.875625,28.103125 L33.048125,48.5228125 C33.076875,51.7715625 35.750625,55.789375 39.1575,56.09125 C45.3315625,56.6878125 51.6925,55.444375 57.8378125,54.2440625 C63.1996875,53.1946875 68.7340625,52.1021875 74.275625,52.1884375 C79.3428125,52.3465625 81.8871875,54.6178125 82.958125,55.961875 C83.015625,56.0265625 83.073125,56.0984375 83.1234375,56.1703125 L82.94375,35.4703125 C82.915,32.214375 80.24125,28.20375 76.834375,27.901875 C70.6603125,27.3053125 64.3065625,28.54875 58.1540625,29.7490625 C52.7921875,30.7984375 47.2578125,31.898125 41.71625,31.8046875 C36.8359375,31.668125 34.18375,29.540625 33.019375,28.275625 C32.9690625,28.2109375 32.91875,28.160625 32.875625,28.103125 Z M81.9159375,55.501875 C82.31125,55.501875 82.6921875,55.6671875 82.958125,55.9475 C82.7640625,55.7175 82.3184375,55.4371875 81.750625,55.5090625 C81.808125,55.501875 81.865625,55.501875 81.9159375,55.501875 Z M33.0409375,28.275625 C33.163125,28.3978125 33.3428125,28.505625 33.55125,28.5703125 C33.364375,28.505625 33.191875,28.4121875 33.0409375,28.275625 Z" id="Shape" fill="#444B54" fill-rule="nonzero"></path>
                            <path d="M88.046875,52.3178125 C87.9821875,45.16625 87.9246875,38.021875 87.8671875,30.8703125 C87.83125,26.7590625 84.568125,22.2453125 80.4425,21.87875 C68.6765625,20.7359375 56.968125,25.9396875 45.2165625,25.774375 C39.6175,25.61625 37.475625,22.54 37.475625,22.6190625 C37.0659375,22.0584375 36.4190625,21.720625 35.85125,21.749375 C35.2834375,21.778125 34.9096875,22.1878125 34.9096875,22.79875 C34.9671875,29.8496875 35.031875,36.900625 35.089375,43.9515625 C35.1253125,48.0628125 38.3884375,52.5765625 42.5140625,52.943125 C54.28,54.0859375 65.9884375,48.8821875 77.74,49.0475 C83.4396875,49.2271875 85.3371875,52.368125 85.3946875,52.3609375 C85.675,52.8353125 86.120625,53.1803125 86.5878125,53.3240625 C86.73875,53.3671875 86.8896875,53.3960246 87.0334375,53.3960246 C87.644375,53.403125 88.046875,52.9646875 88.046875,52.3178125 Z" id="Path" fill="#FFFFFF" fill-rule="nonzero"></path>
                            <path d="M87.055,54.8334375 C87.040625,54.8334375 87.02625,54.8334375 87.0046875,54.8334375 C86.7315625,54.82625 86.4440625,54.783125 86.16375,54.696875 C85.3803125,54.4596875 84.683125,53.920625 84.2303125,53.21625 C84.2159375,53.201875 84.2015625,53.1875 84.194375,53.1659375 C83.4396875,52.21 81.5853125,50.5928125 77.6896875,50.470625 C72.493125,50.4059375 67.0809375,51.4553125 61.87,52.4759375 C55.5234375,53.719375 48.9540625,55.0059375 42.3703125,54.36625 C37.2815625,53.9134375 33.6878125,48.515625 33.651875,43.95875 L33.4720299,22.8059375 C33.4578125,21.433125 34.428125,20.38375 35.7721875,20.311875 C36.7928125,20.2615625 37.849375,20.771875 38.55375,21.663125 C38.5753125,21.6846875 38.596875,21.70625 38.6184375,21.7278125 C39.459375,22.655 41.443125,24.2290625 45.2596875,24.336875 C50.485,24.4015625 55.8684375,23.3521875 61.0865625,22.3315625 C67.4403125,21.088125 74.0025,19.8015625 80.58625,20.44125 C85.675,20.8940625 89.26875,26.291875 89.3046875,30.84875 L89.4845208,52.29625 C89.4845208,52.29625 89.4845208,52.29625 89.4845208,52.29625 C89.4915625,53.015 89.2328125,53.67625 88.7584375,54.1434375 C88.3128125,54.5890625 87.7090625,54.8334375 87.055,54.8334375 Z M86.609375,52.3321875 C86.609375,52.3321875 86.609375,52.3321875 86.609375,52.3321875 L88.046875,52.3178125 L86.609375,52.3321875 Z M36.3471875,23.5246875 L36.5196875,43.944375 C36.5484375,47.193125 39.2221875,51.2109375 42.6290625,51.5128125 C48.803125,52.109375 55.1640625,50.8659375 61.309375,49.665625 C66.67125,48.61625 72.2128125,47.5165625 77.7471875,47.61 C82.814375,47.768125 85.35875,50.0321875 86.4296875,51.3834375 C86.4871875,51.448125 86.5446875,51.52 86.595,51.591875 L86.4153125,30.891875 C86.3865625,27.6359375 83.7128125,23.6253125 80.3059375,23.3234375 C74.131875,22.726875 67.778125,23.9703125 61.625625,25.170625 C56.26375,26.22 50.729375,27.3196875 45.1878125,27.22625 C40.3075,27.0896875 37.6553125,24.9621875 36.4909375,23.6971875 C36.440625,23.6396875 36.3903125,23.5821875 36.3471875,23.5246875 Z M85.3875,50.9234375 C85.7828125,50.9234375 86.16375,51.08875 86.4296875,51.3690625 C86.235625,51.1390625 85.79,50.8659375 85.2221875,50.930625 C85.2796875,50.930625 85.3371875,50.9234375 85.3875,50.9234375 Z M36.5125,23.6971875 C36.6346875,23.819375 36.814375,23.9271875 37.0228125,23.991875 C36.8359375,23.934375 36.6634375,23.83375 36.5125,23.6971875 Z" id="Shape" fill="#444B54" fill-rule="nonzero"></path>
                            <path d="M63.5446875,46.5534375 C59.095625,46.9775 55.085,43.1321875 54.5890625,37.95 C54.093125,32.775 57.29875,28.2253125 61.7478125,27.80125 C66.196875,27.3771875 70.2075,31.2225 70.7034375,36.4046875 C71.199375,41.5796875 67.99375,46.1221875 63.5446875,46.5534375 Z" id="Path" fill="#1AB4E7" fill-rule="nonzero"></path>
                            <path d="M62.9121875,30.7696875 L62.9409375,31.5028125 C63.4225,31.5315625 63.839375,31.6178125 64.1915625,31.754375 C64.54375,31.8909375 64.8528125,32.1065625 65.11875,32.3940625 C65.3271875,32.616875 65.4925,32.846875 65.6146875,33.0840625 C65.736875,33.32125 65.794375,33.5440625 65.80875,33.7453125 C65.8159375,33.968125 65.7440625,34.169375 65.5859375,34.341875 C65.4278125,34.514375 65.23375,34.600625 64.9965625,34.6078125 C64.558125,34.6221875 64.2634375,34.399375 64.1125,33.925 C63.94,33.364375 63.5734375,33.005 62.9984375,32.846875 L63.10625,35.6571875 C63.6740625,35.7865625 64.1196875,35.90875 64.4575,36.02375 C64.7953125,36.13875 65.0971875,36.31125 65.3703125,36.5340625 C65.6578125,36.77125 65.8878125,37.05875 66.0459375,37.3965625 C66.21125,37.734375 66.2975,38.108125 66.311875,38.5178125 C66.3334375,39.028125 66.225625,39.516875 66.0028125,39.976875 C65.78,40.436875 65.435,40.810625 64.9821875,41.1125 C64.5221875,41.414375 63.9759375,41.60125 63.3290625,41.6803125 L63.39375,43.3621875 C63.4009375,43.628125 63.3865625,43.8221875 63.33625,43.944375 C63.2859375,44.0665625 63.178125,44.13125 62.9984375,44.1384375 C62.833125,44.145625 62.718125,44.1025 62.6534375,44.001875 C62.5815625,43.9084375 62.545625,43.7503125 62.5384375,43.5490625 L62.4665625,41.7234375 C61.9346875,41.6875 61.4746875,41.5796875 61.0721875,41.4071875 C60.6696875,41.2346875 60.331875,41.011875 60.05875,40.73875 C59.785625,40.465625 59.5771875,40.1853125 59.440625,39.8834375 C59.3040625,39.5815625 59.225,39.286875 59.2178125,38.9921875 C59.210625,38.7765625 59.2896875,38.5753125 59.4478125,38.395625 C59.6059375,38.2159375 59.814375,38.1225 60.073125,38.108125 C60.274375,38.1009375 60.446875,38.1440625 60.590625,38.2303125 C60.734375,38.3165625 60.835,38.4459375 60.8996875,38.6184375 C61.03625,38.985 61.15125,39.2653125 61.251875,39.4521875 C61.3525,39.64625 61.4890625,39.81875 61.683125,39.976875 C61.8771875,40.135 62.1215625,40.25 62.4234375,40.321875 L62.30125,37.1809375 C61.6903125,37.0371875 61.18,36.871875 60.763125,36.6778125 C60.34625,36.48375 60.0084375,36.210625 59.7425,35.836875 C59.4765625,35.4703125 59.3328125,34.98875 59.31125,34.3921875 C59.2825,33.6159375 59.5053125,32.97625 59.9796875,32.45875 C60.4540625,31.94125 61.1584375,31.6321875 62.085625,31.51 L62.056875,30.79125 C62.0425,30.4103125 62.1790625,30.21625 62.459375,30.2090625 C62.746875,30.21625 62.8978125,30.3959375 62.9121875,30.7696875 Z M62.229375,35.434375 L62.12875,32.846875 C61.755,32.97625 61.4675,33.134375 61.2590625,33.3284375 C61.0578125,33.5225 60.9571875,33.8028125 60.9715625,34.1765625 C60.9859375,34.5359375 61.09375,34.7946875 61.3021875,34.974375 C61.510625,35.146875 61.8196875,35.305 62.229375,35.434375 Z M63.16375,37.4109375 L63.27875,40.3721875 C63.7315625,40.264375 64.0765625,40.0703125 64.31375,39.7828125 C64.5509375,39.4953125 64.6659375,39.171875 64.6515625,38.8125 C64.6371875,38.4171875 64.5078125,38.1225 64.25625,37.9140625 C63.9975,37.705625 63.638125,37.5403125 63.16375,37.4109375 Z" id="Shape" fill="#FFFFFF" fill-rule="nonzero"></path>
                        </g>
                    </g>
                    <g id="Group" transform="translate(51.656563, 3.447233)"></g>
                    <g id="Group" transform="translate(26.500313, 20.697233)">
                        <g transform="translate(0.000000, 8.625000)"></g>
                        <g transform="translate(3.593750, 4.312500)"></g>
                        <g transform="translate(7.187500, 0.000000)"></g>
                    </g>
                </g>
            </g>
        </g>
    </g>
</svg>