<?xml version="1.0" standalone="no"?><!DOCTYPE svg PUBLIC "-//W3C//DTD SVG 1.1//EN" "http://www.w3.org/Graphics/SVG/1.1/DTD/svg11.dtd"><svg t="1579087151801" class="icon" viewBox="0 0 1024 1024" version="1.1" xmlns="http://www.w3.org/2000/svg" p-id="4596" xmlns:xlink="http://www.w3.org/1999/xlink" width="200" height="200"><defs><style type="text/css"></style></defs><path d="M641.450667 468.992h-122.197334v-138.780444a8.305778 8.305778 0 0 0-8.277333-8.277334h-62.151111a8.305778 8.305778 0 0 0-8.277333 8.277334v138.780444h-122.197334a8.305778 8.305778 0 0 0-8.305778 8.277333v62.151111c0 4.551111 3.754667 8.248889 8.305778 8.248889h122.197334v138.808889c0 4.551111 3.697778 8.248889 8.277333 8.248889h62.151111c4.551111 0 8.248889-3.697778 8.248889-8.248889v-138.808889h122.225778c4.551111 0 8.277333-3.697778 8.277333-8.248889v-62.151111a8.305778 8.305778 0 0 0-8.277333-8.277333z" fill="#707070" p-id="4597"></path><path d="M935.537778 908.088889l-151.182222-151.210667c126.464-154.168889 117.646222-382.634667-26.908445-527.104-153.287111-153.372444-402.232889-153.372444-556.117333 0-153.372444 153.884444-153.372444 402.830222 0 556.088889 144.469333 144.583111 372.906667 153.400889 527.104 26.936889l151.210666 151.210667c3.299556 2.901333 8.590222 2.901333 11.377778 0l44.544-44.544c2.901333-2.787556 2.901333-8.078222 0-11.377778zM702.577778 730.993778c-123.022222 122.936889-322.275556 122.936889-445.297778 0-122.936889-123.022222-122.936889-322.275556 0-445.297778 123.022222-122.936889 322.275556-122.936889 445.297778 0 122.936889 123.022222 122.936889 322.275556 0 445.297778z" fill="#707070" p-id="4598"></path></svg>