<?xml version="1.0" standalone="no"?><!DOCTYPE svg PUBLIC "-//W3C//DTD SVG 1.1//EN" "http://www.w3.org/Graphics/SVG/1.1/DTD/svg11.dtd"><svg t="1578885411058" class="icon" viewBox="0 0 1024 1024" version="1.1" xmlns="http://www.w3.org/2000/svg" p-id="4166" xmlns:xlink="http://www.w3.org/1999/xlink" width="200" height="200"><defs><style type="text/css"></style></defs><path d="M406.186667 529.066667h23.893333l-10.24-47.786667z" fill="#d81e06" p-id="4167"></path><path d="M952.32 440.32c-17.066667-13.653333-37.546667-27.306667-37.546667-37.546667-3.413333-10.24 6.826667-34.133333 13.653334-54.613333 13.653333-30.72 27.306667-61.44 13.653333-85.333333s-47.786667-27.306667-81.92-34.133334c-20.48-3.413333-44.373333-3.413333-54.613333-13.653333-6.826667-6.826667-10.24-30.72-13.653334-54.613333-3.413333-34.133333-6.826667-68.266667-34.133333-81.92-20.48-13.653333-54.613333 0-85.333333 13.653333-20.48 10.24-44.373333 17.066667-54.613334 13.653333-10.24-3.413333-23.893333-20.48-37.546666-37.546666-20.48-27.306667-40.96-54.613333-71.68-54.613334s-51.2 27.306667-71.68 54.613334c-13.653333 17.066667-27.306667 37.546667-37.546667 37.546666-10.24 3.413333-34.133333-6.826667-54.613333-13.653333-23.893333-10.24-58.026667-20.48-81.92-10.24-23.893333 17.066667-27.306667 51.2-30.72 81.92-3.413333 20.48-6.826667 44.373333-13.653334 54.613333-6.826667 6.826667-34.133333 10.24-54.613333 13.653334-34.133333 3.413333-68.266667 6.826667-81.92 34.133333-13.653333 23.893333 0 54.613333 13.653333 85.333333 10.24 20.48 17.066667 40.96 13.653334 54.613334-3.413333 10.24-20.48 23.893333-37.546667 37.546666-27.306667 20.48-54.613333 40.96-54.613333 71.68s27.306667 51.2 54.613333 71.68c17.066667 13.653333 37.546667 27.306667 37.546667 37.546667 3.413333 10.24-6.826667 34.133333-13.653334 54.613333-13.653333 30.72-27.306667 61.44-13.653333 85.333334s47.786667 27.306667 81.92 34.133333c20.48 3.413333 44.373333 3.413333 54.613333 13.653333 6.826667 6.826667 10.24 30.72 13.653334 54.613334 3.413333 34.133333 6.826667 68.266667 34.133333 81.92 20.48 13.653333 54.613333 0 85.333333-13.653334 20.48-10.24 44.373333-17.066667 54.613334-13.653333 10.24 3.413333 23.893333 20.48 37.546666 37.546667 20.48 27.306667 40.96 54.613333 71.68 54.613333s51.2-27.306667 71.68-54.613333c13.653333-17.066667 27.306667-37.546667 37.546667-37.546667 10.24-3.413333 34.133333 6.826667 54.613333 13.653333 30.72 13.653333 64.853333 23.893333 85.333334 13.653334 23.893333-13.653333 27.306667-47.786667 34.133333-81.92 3.413333-20.48 3.413333-44.373333 13.653333-54.613334 6.826667-6.826667 30.72-10.24 54.613334-13.653333 34.133333-3.413333 68.266667-6.826667 81.92-34.133333 13.653333-23.893333 0-54.613333-13.653334-85.333334-10.24-20.48-17.066667-40.96-13.653333-54.613333 3.413333-10.24 20.48-23.893333 37.546667-37.546667 27.306667-20.48 54.613333-40.96 54.613333-71.68s-34.133333-54.613333-61.44-75.093333zM256 597.333333c-37.546667 0-64.853333-23.893333-68.266667-54.613333 0-10.24 6.826667-17.066667 17.066667-17.066667 6.826667 0 17.066667 6.826667 17.066667 17.066667 0 13.653333 17.066667 23.893333 34.133333 23.893333s34.133333-10.24 34.133333-27.306666c0-13.653333-10.24-20.48-34.133333-23.893334h-3.413333c-51.2-10.24-61.44-37.546667-61.44-58.026666 0-34.133333 30.72-61.44 68.266666-61.44s64.853333 23.893333 68.266667 54.613333c0 10.24-6.826667 17.066667-17.066667 17.066667s-17.066667-6.826667-17.066666-17.066667c0-13.653333-17.066667-23.893333-34.133334-23.893333s-34.133333 10.24-34.133333 27.306666c0 13.653333 10.24 20.48 34.133333 23.893334v17.066666l3.413334-17.066666c51.2 10.24 61.44 37.546667 61.44 58.026666 0 34.133333-30.72 61.44-68.266667 61.44z m208.213333 0h-3.413333c-6.826667 0-13.653333-6.826667-17.066667-13.653333l-6.826666-20.48h-40.96l-6.826667 20.48c-3.413333 10.24-10.24 13.653333-20.48 13.653333-10.24-3.413333-13.653333-10.24-13.653333-20.48l44.373333-170.666666c3.413333-13.653333 30.72-13.653333 34.133333 0l44.373334 170.666666c3.413333 6.826667-3.413333 17.066667-13.653334 20.48z m184.32 0h-102.4c-10.24 0-17.066667-6.826667-17.066666-17.066666v-170.666667c0-10.24 6.826667-17.066667 17.066666-17.066667s17.066667 6.826667 17.066667 17.066667v153.6H648.533333c10.24 0 17.066667 6.826667 17.066667 17.066667s-6.826667 17.066667-17.066667 17.066666z m170.666667-119.466666c10.24 0 17.066667 6.826667 17.066667 17.066666s-6.826667 17.066667-17.066667 17.066667h-85.333333v51.2H819.2c10.24 0 17.066667 6.826667 17.066667 17.066667s-6.826667 17.066667-17.066667 17.066666h-102.4c-10.24 0-17.066667-6.826667-17.066667-17.066666v-170.666667c0-10.24 6.826667-17.066667 17.066667-17.066667h102.4c10.24 0 17.066667 6.826667 17.066667 17.066667s-6.826667 17.066667-17.066667 17.066667h-85.333333V477.866667H819.2z" fill="#d81e06" p-id="4168"></path></svg>