<?xml version="1.0" encoding="UTF-8"?>
<svg width="32px" height="32px" viewBox="0 0 32 32" version="1.1" xmlns="http://www.w3.org/2000/svg" xmlns:xlink="http://www.w3.org/1999/xlink">
    <!-- Generator: Sketch 61.2 (89653) - https://sketch.com -->
    <title>noun_sale tag_2606037</title>
    <desc>Created with Sketch.</desc>
    <g id="3.-Product-detail" stroke="none" stroke-width="1" fill="none" fill-rule="evenodd">
        <g id="Group-6-Copy" transform="translate(-186.000000, -14.000000)" fill="#FF0048">
            <g id="noun_sale-tag_2606037" transform="translate(186.000000, 14.000000)">
                <g id="Group">
                    <polygon id="Path" points="14.16286 18.97357 12.78908 18.40534 13.36446 19.77191"></polygon>
                    <path d="M1.21596,22.15271 L9.84725,30.784 C11.43685,32.3736 13.97591,32.40961 15.5223,30.86316 L30.24587,16.13959 C30.54793,15.83753 30.74221,15.4563 30.81411,15.03913 L31.97213,8.08375 C32.08004,7.42921 31.87142,6.77467 31.40389,6.30714 L25.69283,0.59608 C25.22536,0.12861 24.57082,-0.08001 23.91622,0.0279 L16.96084,1.18592 C16.54373,1.25782 16.1625,1.45203 15.86038,1.75416 L1.1368,16.47772 C-0.40959,18.02411 -0.37364,20.56311 1.21596,22.15271 Z M24.13924,4.79663 C24.93044,4.00549 26.22512,4.00543 27.01632,4.79663 C27.80752,5.58783 27.80752,6.88257 27.01632,7.67377 C26.22512,8.46497 24.93044,8.46491 24.13924,7.67377 C23.34804,6.88251 23.34804,5.58789 24.13924,4.79663 Z M17.73769,11.11188 L20.3846,8.46497 C20.44216,8.40741 20.54286,8.40741 20.60036,8.46491 L21.24776,9.11231 C21.30532,9.16987 21.30532,9.27057 21.24776,9.32813 L19.5071,11.06873 L20.06093,11.62256 L21.58577,10.09772 C21.64333,10.04016 21.73683,10.03296 21.79439,10.09052 L22.42739,10.72345 C22.48495,10.78101 22.47774,10.87451 22.42019,10.93207 L20.89529,12.45691 L21.49948,13.0611 L23.3049,11.25574 C23.36246,11.19818 23.4631,11.19818 23.52066,11.25574 L24.16794,11.90308 C24.2255,11.96064 24.22556,12.06128 24.168,12.11884 L21.45633,14.83051 C21.39877,14.88807 21.29813,14.88807 21.24057,14.83051 L17.7377,11.32764 C17.68019,11.27014 17.68013,11.16944 17.73769,11.11188 Z M14.33553,14.51404 L15.14833,13.7013 C15.20583,13.64374 15.29939,13.65088 15.35689,13.70844 L18.09731,16.44886 L19.75167,14.79456 C19.80917,14.737 19.90267,14.7298 19.96023,14.78736 L20.62197,15.4491 C20.67953,15.50666 20.67953,15.60736 20.62197,15.66486 L18.05416,18.23267 C17.9966,18.29023 17.8959,18.29023 17.83834,18.23267 L14.33547,14.7298 C14.27797,14.67231 14.27797,14.5716 14.33553,14.51404 Z M11.22109,17.62854 L12.02663,16.82294 C12.06978,16.77979 12.13454,16.77259 12.18489,16.79413 L17.2198,18.7218 C17.25575,18.7146 17.29176,18.7362 17.31331,18.75775 C17.37087,18.81531 17.37807,18.90881 17.32051,18.96637 C17.31331,18.97357 17.31331,18.97357 17.31331,18.97357 L16.45735,19.82947 C16.4214,19.86542 16.3495,19.87982 16.29909,19.85822 L15.32814,19.44825 L13.83925,20.93714 L14.24196,21.91535 C14.26363,21.9657 14.25636,22.03046 14.21321,22.07361 L13.37886,22.90796 C13.34291,22.94391 13.29256,22.95111 13.2422,22.94391 C13.19185,22.93677 13.1559,22.90082 13.13429,22.8504 L11.19227,17.78674 C11.17074,17.73639 11.18514,17.66449 11.22109,17.62854 Z M7.06368,21.9729 C7.19314,21.64203 7.4305,21.30402 7.76858,20.96588 C7.99874,20.73572 8.25045,20.5415 8.52377,20.3689 C8.80435,20.20349 9.09201,20.08844 9.35812,20.02369 C9.43008,20.00929 9.50198,20.03809 9.53079,20.10999 L9.89761,20.98029 C9.91922,21.0163 9.91922,21.05945 9.89761,21.0954 C9.876,21.13135 9.84005,21.16736 9.8041,21.1745 C9.32217,21.31122 8.9194,21.52698 8.61727,21.82904 C8.40865,22.03766 8.3008,22.21747 8.26485,22.36853 C8.24325,22.50519 8.27199,22.6059 8.3583,22.6922 C8.40865,22.74255 8.48782,22.79291 8.65328,22.74249 C8.82589,22.67059 9.07046,22.54114 9.37252,22.35412 C9.71059,22.1455 9.99831,21.9873 10.23562,21.87939 C10.48739,21.75714 10.76791,21.70672 11.04843,21.72833 C11.33621,21.74273 11.62387,21.88659 11.87558,22.1383 C12.09854,22.36132 12.24246,22.62029 12.29996,22.93676 C12.35752,23.23882 12.32157,23.56249 12.18491,23.91497 C12.04825,24.25298 11.81089,24.59106 11.48001,24.92193 C11.19229,25.20965 10.87582,25.45422 10.53055,25.64117 C10.17813,25.83538 9.86167,25.9505 9.55954,25.99365 C9.49478,26.00085 9.42288,25.9577 9.40128,25.89294 L9.06327,25.00824 C9.04887,24.96509 9.05607,24.91473 9.07767,24.87878 C9.09922,24.84283 9.14237,24.81402 9.18552,24.81402 C9.43003,24.77087 9.6818,24.69177 9.94077,24.54791 C10.19974,24.41845 10.42991,24.26019 10.62406,24.06604 C10.83988,23.85022 10.95493,23.66321 10.99088,23.51215 C11.02689,23.34668 10.97654,23.26758 10.92618,23.21723 C10.87582,23.16688 10.81107,23.14533 10.73917,23.14533 C10.63846,23.15973 10.52341,23.18848 10.4083,23.24598 C10.27884,23.31794 10.10624,23.41865 9.89042,23.5481 C9.55955,23.74952 9.27189,23.90778 9.02732,24.02283 C8.77555,24.14508 8.50223,24.1883 8.22166,24.16669 C7.9196,24.15235 7.63914,24.00128 7.38017,23.74231 C7.15715,23.51935 7.00615,23.25317 6.94859,22.95111 C6.89101,22.64905 6.92696,22.32538 7.06368,21.9729 Z" id="Shape"></path>
                </g>
            </g>
        </g>
    </g>
</svg>