<?xml version="1.0" encoding="UTF-8"?>
<svg width="305px" height="196px" viewBox="0 0 305 196" version="1.1" xmlns="http://www.w3.org/2000/svg" xmlns:xlink="http://www.w3.org/1999/xlink">
    <!-- Generator: Sketch 54 (76480) - https://sketchapp.com -->
    <title>empty shopping cart</title>
    <desc>Created with Sketch.</desc>
    <g id="Page-1" stroke="none" stroke-width="1" fill="none" fill-rule="evenodd">
        <g id="empty-shopping-cart">
            <rect id="矩形" fill="#EEEBEB" x="61" y="20" width="244" height="52" rx="26"></rect>
            <rect id="矩形" fill="#EEEBEB" x="0" y="60" width="244" height="52" rx="26"></rect>
            <rect id="矩形" fill="#EEEBEB" x="49" y="102" width="244" height="53" rx="26.5"></rect>
            <rect id="矩形" fill="#EEEBEB" x="20" y="144" width="245" height="52" rx="26"></rect>
            <g id="空购物车-(1)" stroke-width="1" transform="translate(71.000000, 35.000000)" fill="#375A7D">
                <path d="M38.6127324,141.605228 C38.6127324,147.346102 43.2556137,152 48.9828981,152 C54.7101825,152 59.3530638,147.346102 59.3530638,141.605228 C59.3530638,135.864354 54.7101825,131.210456 48.9828981,131.210456 C43.2556137,131.210456 38.6127324,135.864354 38.6127324,141.605228 Z M145.030385,82.8665177 L152.931464,40.3799505 C153.342978,38.0700012 151.861526,35.8425501 149.557045,35.4300591 C147.252563,35.0175682 145.030385,36.5025356 144.618871,38.8124849 L136.717792,81.2990521 C135.730157,86.496438 131.450406,90.3738529 126.18302,90.7863439 L41.9048485,97.5511953 C36.6374627,64.221927 32.6869234,40.3799505 30.0532306,25.6952728 L28.4894754,17.1979594 C27.6664464,12.7430572 27.0080232,9.85562057 26.5965087,8.45315136 C23.2220897,-3.01409689 5.36235987,0.36832885 3.38709022,0.780819794 C1.08260895,1.27580893 -0.398843289,3.50326003 0.0949741247,5.81320932 C0.588791539,8.1231586 2.8109699,9.608126 5.11545117,9.11313687 C10.2182311,8.04066042 17.7900981,8.28815498 18.5308242,10.8455988 C20.0945794,16.0429847 25.6088738,48.9597621 35.0737076,108.523454 C36.390554,116.855772 43.3863007,122.878139 51.7811968,122.878139 L138.610759,123.208132 C140.91524,123.208132 142.808207,121.310674 142.808207,119.000724 C142.808207,116.690775 140.91524,114.793317 138.610759,114.710819 L51.7811968,114.380826 C47.5837488,114.380826 44.044724,111.328393 43.3863007,107.120985 C43.3039978,106.708494 43.3039978,106.296003 43.2216949,105.883512 L126.841444,99.2011591 C135.894763,98.5411736 143.384327,91.7763221 145.030385,82.8665177 Z M115.648249,141.605228 C115.648249,147.346102 120.29113,152 126.018415,152 C131.745699,152 136.38858,147.346102 136.38858,141.605228 C136.38858,135.864354 131.745699,131.210456 126.018415,131.210456 C120.29113,131.210456 115.648249,135.864354 115.648249,141.605228 Z" id="形状" fill-rule="nonzero"></path>
                <path d="M65.0057307,60.2631648 L53.5774359,76.052633 L63.3613717,76.052633 C64.430205,76.052633 65.3346025,76.9572379 65.3346025,78.0263165 C65.3346025,79.0953951 64.430205,80 63.3613717,80 L48.9732308,80 C47.8221795,80 47,79.0953951 47,78.0263165 C47,77.6151324 47.1644359,77.2039483 47.4110897,76.7927643 L59.0038205,61.0855329 L49.9598461,61.0855329 C48.8910128,61.0855329 47.9866154,60.1809279 47.9866154,59.1118494 C47.9866154,58.0427708 48.8910128,57.1381658 49.9598461,57.1381658 L63.4435897,57.1381658 C64.5946409,57.1381658 65.4168204,58.0427708 65.4168204,59.1118494 C65.3346025,59.5230334 65.2523845,59.9342175 65.0057307,60.2631648 L65.0057307,60.2631648 Z M96.0018972,34.1940949 L84.5736024,49.9835631 L94.3575382,49.9835631 C95.4263715,49.9835631 96.330769,50.888168 96.330769,51.9572466 C96.330769,53.0263252 95.4263715,53.9309301 94.3575382,53.9309301 L79.9693973,53.9309301 C78.818346,53.9309301 77.9961665,53.0263252 77.9961665,51.9572466 L77.9961665,51.8750098 C77.9961665,51.4638257 78.1606024,51.0526416 78.4072562,50.6414576 L89.999987,34.9342262 L80.9560126,34.9342262 C79.8871793,34.9342262 78.9827819,34.0296213 78.9827819,32.9605427 C78.9827819,31.8914641 79.8871793,30.9868592 80.9560126,30.9868592 L94.4397562,30.9868592 C95.5908074,30.9868592 96.4129869,31.8914641 96.4129869,32.9605427 C96.330769,33.4539636 96.248551,33.8651476 96.0018972,34.1940949 L96.0018972,34.1940949 Z M132.424448,9.60528764 L115.898641,32.6315954 L130.040128,32.6315954 C131.684487,32.6315954 132.917756,33.9473844 132.917756,35.5098839 C132.917756,37.1546202 131.602269,38.3881724 130.040128,38.3881724 L109.156769,38.3881724 C108.370761,38.3914774 107.615991,38.0806273 107.060194,37.524703 C106.504397,36.9687788 106.193618,36.2138358 106.196923,35.4276471 L106.196923,35.3454103 C106.196923,34.6875158 106.361359,34.1118581 106.772448,33.6184372 L123.627128,10.756603 L110.390038,10.756603 C108.745679,10.756603 107.51241,9.44081402 107.51241,7.87831456 C107.51241,6.23357829 108.827897,5.00002609 110.390038,5.00002609 L130.040128,5.00002609 C130.826136,4.99672102 131.580906,5.30757116 132.136703,5.86349542 C132.692499,6.41941967 133.003278,7.1743627 132.999974,7.96055137 C132.999974,8.53620907 132.835538,9.11186676 132.424448,9.60528764 L132.424448,9.60528764 Z" id="形状" fill-rule="nonzero"></path>
            </g>
            <g id="加号-(1)" stroke-width="1" transform="translate(20.000000, 47.000000)" fill="#8A8A8A">
                <path d="M16.8259016,10.173598 L10.1741585,10.173598 L10.1741585,16.826402 C10.1741585,17.4747154 9.64835343,18 9.00002002,18 C8.35170662,18 7.82590158,17.4747154 7.82590158,16.826402 L7.82590158,10.173598 L1.17411844,10.173598 C0.525264567,10.173598 0,9.6483134 0,9 C0,8.35192682 0.52532462,7.82640202 1.17411844,7.82640202 L7.82586154,7.82640202 L7.82586154,1.17359798 C7.82586154,0.525524797 8.35166659,0 8.99997998,0 C9.6483134,0 10.1741184,0.525544815 10.1741184,1.17359798 L10.1741184,7.82642204 L16.8258615,7.82642204 C17.4747154,7.82642204 18,8.35192682 18,8.99997998 C17.99998,9.64829338 17.4747154,10.1735379 16.8258615,10.1735379 L16.8259016,10.173598 Z" id="路径" fill-rule="nonzero"></path>
            </g>
            <g id="加号-(1)" stroke-width="1" transform="translate(249.000000, 0.000000)" fill="#8A8A8A">
                <path d="M26.1736247,15.8255969 L15.8264687,15.8255969 L15.8264687,26.1744031 C15.8264687,27.1828906 15.0085498,28 14.0000311,28 C12.9915436,28 12.1736247,27.1828906 12.1736247,26.1744031 L12.1736247,15.8255969 L1.82640647,15.8255969 C0.817078216,15.8255969 0,15.0084875 0,14 C0,12.9918862 0.817171632,12.1744031 1.82640647,12.1744031 L12.1735624,12.1744031 L12.1735624,1.82559686 C12.1735624,0.817483018 12.9914814,0 13.9999689,0 C15.0084875,0 15.8264065,0.817514157 15.8264065,1.82559686 L15.8264065,12.1744343 L26.1735624,12.1744343 C27.1828906,12.1744343 28,12.9918862 28,13.9999689 C27.9999689,15.0084564 27.1828906,15.8255034 26.1735624,15.8255034 L26.1736247,15.8255969 Z" id="路径" fill-rule="nonzero"></path>
            </g>
            <g id="加号-(1)" stroke-width="1" transform="translate(66.000000, 121.000000)" fill="#8A8A8A">
                <path d="M16.8259016,10.173598 L10.1741585,10.173598 L10.1741585,16.826402 C10.1741585,17.4747154 9.64835343,18 9.00002002,18 C8.35170662,18 7.82590158,17.4747154 7.82590158,16.826402 L7.82590158,10.173598 L1.17411844,10.173598 C0.525264567,10.173598 0,9.6483134 0,9 C0,8.35192682 0.52532462,7.82640202 1.17411844,7.82640202 L7.82586154,7.82640202 L7.82586154,1.17359798 C7.82586154,0.525524797 8.35166659,0 8.99997998,0 C9.6483134,0 10.1741184,0.525544815 10.1741184,1.17359798 L10.1741184,7.82642204 L16.8258615,7.82642204 C17.4747154,7.82642204 18,8.35192682 18,8.99997998 C17.99998,9.64829338 17.4747154,10.1735379 16.8258615,10.1735379 L16.8259016,10.173598 Z" id="路径" fill-rule="nonzero"></path>
            </g>
        </g>
    </g>
</svg>