<svg t="1582626400142" class="icon" viewBox="0 0 1024 1024" version="1.1" xmlns="http://www.w3.org/2000/svg" p-id="1048" width="200" height="200"><path d="M481.52 277.486h63.478v544.866h-63.478v-544.866z" p-id="1049" fill="#e02020"></path><path d="M332.064 277.486h63.477v544.866h-63.477v-544.866z" p-id="1050" fill="#e02020"></path><path d="M630.95 277.486h63.477v544.866h-63.477v-544.866z" p-id="1051" fill="#e02020"></path><path d="M894.129 153.162h-170.596v-39.897c0-31.042-27.868-55.321-63.478-55.321h-293.585c-35.611 0-63.478 24.31-63.478 55.321v39.897h-175.894v63.478h66.779v669.408c0 34.151 28.47 61.923 63.478 61.923h511.792c35.008 0 63.478-27.772 63.478-61.923v-669.41h61.477v-63.478h0.033v0.001zM366.468 121.425h293.585v31.741h-293.585v-31.741zM769.776 884.37c0 0-0.159 0.127-0.602 0.127l-511.792 1.554v-669.41h511.824l0.57 667.728z" p-id="1052" fill="#e02020"></path></svg>