<?xml version="1.0" encoding="UTF-8"?>
<svg width="54px" height="10px" viewBox="0 0 54 10" version="1.1" xmlns="http://www.w3.org/2000/svg" xmlns:xlink="http://www.w3.org/1999/xlink">
    <!-- Generator: Sketch 62 (91390) - https://sketch.com -->
    <title>Tmobile/Disabled</title>
    <desc>Created with Sketch.</desc>
    <g id="PDP-2" stroke="none" stroke-width="1" fill="none" fill-rule="evenodd" opacity="0.5">
        <g id="Artboard" transform="translate(-319.000000, -112.000000)" fill-rule="nonzero">
            <g id="Tmobile/Disabled" transform="translate(319.000000, 112.000000)">
                <g id="T-Mobile_logo">
                    <path d="M39.8996698,1.01257131 C39.8997896,1.28413963 39.7691941,1.53513599 39.5571054,1.67095854 C39.3450167,1.80678108 39.083678,1.80678108 38.8715893,1.67095854 C38.6595006,1.53513599 38.5289052,1.28413963 38.529025,1.01257131 C38.5289052,0.741002988 38.6595006,0.490006624 38.8715893,0.354184079 C39.083678,0.218361533 39.3450167,0.218361533 39.5571054,0.354184079 C39.7691941,0.490006624 39.8997896,0.741002988 39.8996698,1.01257131 L39.8996698,1.01257131 Z" id="path3209" fill="#999B9E"></path>
                    <rect id="rect3211" fill="#999B9E" x="50.3421752" y="4.35026093" width="1.7443881" height="1.92378648"></rect>
                    <rect id="rect3213" fill="#999B9E" x="15.7458464" y="4.35026093" width="1.7443881" height="1.92378648"></rect>
                    <rect id="rect3215" fill="#999B9E" x="10.5136546" y="4.35026093" width="1.7443881" height="1.92378648"></rect>
                    <rect id="rect3217" fill="#999B9E" x="5.36085" y="4.35026093" width="1.7443881" height="1.92378648"></rect>
                    <rect id="rect3219" fill="#999B9E" x="0.0244755834" y="4.35026093" width="1.7443881" height="1.92378648"></rect>
                    <path d="M4.2138447,0.5102944 L4.420806,0.5102944 C5.7575529,0.5102944 6.3806028,1.28310952 6.640956,3.34406688 L7.0548786,3.32428712 L6.9996456,0.0544236 L0.1975392,0.0544236 L0.1305015,3.32428712 L0.5288289,3.34406688 C0.597816,2.57125176 0.6805572,2.15505752 0.8601186,1.73886328 C1.1775459,0.96593112 1.840017,0.5102944 2.6542164,0.5102944 L2.9440272,0.5102944 L2.9440272,7.62445376 C2.9440272,8.37748912 2.9026566,8.6153144 2.7371742,8.79368336 C2.5990917,8.93237576 2.323035,8.99183208 2.0054994,8.99183208 L1.6880721,8.99183208 L1.6880721,9.4673656 L5.4697998,9.4673656 L5.4697998,8.99183208 L5.1504231,8.99183208 C4.8349452,8.99183208 4.5569391,8.93225872 4.4209143,8.79368336 C4.2553236,8.6153144 4.213953,8.37737208 4.213953,7.62445376 L4.213953,0.5102944" id="path3221" fill="#ED008C"></path>
                    <path d="M22.2072399,9.46748264 L24.4111449,1.1569404 L24.4111449,7.67852624 C24.4111449,8.39024648 24.3736731,8.64036096 24.2242191,8.81346312 C24.1120203,8.94805912 23.851992,9.00587688 23.5636974,9.00587688 L23.4516069,9.00587688 L23.4516069,9.46748264 L26.5668564,9.46748264 L26.5668564,9.00587688 L26.4047313,9.00587688 C26.1181695,9.00587688 25.8565167,8.94817616 25.7444262,8.81346312 C25.5947556,8.64036096 25.5573921,8.39024648 25.5573921,7.67852624 L25.5573921,2.11889216 C25.5573921,1.40705488 25.5947556,1.13774584 25.7444262,0.96464368 C25.8689712,0.84924224 26.1181695,0.77222992 26.4047313,0.77222992 L26.5668564,0.77222992 L26.5668564,0.32970168 L24.1494921,0.32970168 L22.3301604,7.04358424 L20.5500333,0.32970168 L18.1451235,0.32970168 L18.1451235,0.77222992 L18.3693045,0.77222992 C19.0298262,0.77222992 19.1543712,0.92613752 19.1543712,1.84958312 L19.1543712,7.13979112 C19.1543712,7.9862244 19.1170077,8.33254576 19.0048089,8.58266024 C18.8802639,8.83277472 18.61677,9.00587688 18.3443955,9.00587688 L18.1450152,9.00587688 L18.1450152,9.46748264 L20.7118335,9.46748264 L20.7118335,9.00587688 L20.549925,9.00587688 C20.2259997,9.00587688 19.9642386,8.87116384 19.8129435,8.6018548 C19.6652223,8.33254576 19.6278588,8.08243128 19.6278588,7.13979112 L19.6278588,1.15705744 L21.8190927,9.46759968 L22.2072399,9.46759968" id="path3223" fill="#999B9E"></path>
                    <path d="M29.2457652,2.9652084 C27.7006491,2.9652084 26.6914014,4.27336448 26.6914014,6.331864 C26.6914014,8.3133512 27.7006491,9.66001344 29.2067772,9.66001344 C30.7267677,9.66001344 31.7361237,8.3133512 31.7361237,6.31266944 C31.7361237,4.3310652 30.7267677,2.9652084 29.2457652,2.9652084 M29.1959472,3.4076196 C29.642793,3.4076196 30.0289908,3.7154348 30.2408256,4.23485832 C30.4402059,4.71577568 30.5273874,5.36991224 30.5273874,6.3125524 C30.5273874,8.2554164 30.0912633,9.21725112 29.2066689,9.21725112 C28.323699,9.21725112 27.8981883,8.25529936 27.8981883,6.2932408 C27.8981883,5.3697952 27.9871026,4.71577568 28.1864829,4.23485832 C28.3842387,3.7347464 28.7847321,3.4076196 29.1959472,3.4076196" id="path3225" fill="#999B9E"></path>
                    <path d="M33.8063865,0.2334948 L32.0368728,0.32970168 L32.0368728,0.75291832 L32.1223215,0.75291832 C32.6457354,0.75291832 32.759667,0.94533208 32.759667,1.84946608 L32.759667,8.10162584 C32.759667,8.90955296 32.734758,9.12127832 32.635122,9.46748264 L33.0463371,9.46748264 C33.3559668,8.90955296 33.4325349,8.81346312 33.5571882,8.81346312 C33.6177279,8.81346312 33.6781593,8.83265768 33.7672902,8.92886456 C34.3795101,9.46748264 34.6411629,9.58288408 35.2019403,9.58288408 C36.545835,9.58288408 37.5178275,8.17852112 37.5178275,6.17783936 C37.5178275,4.29255904 36.6188292,3.02290912 35.2749345,3.02290912 C34.5771576,3.02290912 34.0680393,3.38842504 33.8063865,4.04244456 L33.8063865,0.2334948 M35.0987304,3.50382648 C35.8980927,3.50382648 36.3091995,4.42727208 36.3091995,6.23554008 C36.3091995,8.14001496 35.8855299,9.12116128 35.0755542,9.12116128 C34.178397,9.12116128 33.7065339,8.12070336 33.7065339,6.2932408 C33.7065339,5.3697952 33.818841,4.73508728 34.0804938,4.25405288 C34.3153965,3.79244712 34.7159982,3.50382648 35.0987304,3.50382648" id="path3227" fill="#999B9E"></path>
                    <path d="M39.8231013,3.06141528 L38.0056107,3.17681672 L38.0056107,3.60003336 L38.1427185,3.60003336 C38.664183,3.60003336 38.7764901,3.79244712 38.7764901,4.67738656 L38.7764901,7.92852368 C38.7764901,8.81358016 38.6642913,9.02518848 38.1427185,9.02518848 L37.945071,9.02518848 L37.945071,9.46748264 L40.6580943,9.46748264 L40.6580943,9.02518848 L40.4621796,9.02518848 C39.9370329,9.02518848 39.8232096,8.83265768 39.8232096,7.92852368 L39.8232096,3.06141528" id="path3229" fill="#999B9E"></path>
                    <path d="M42.9754977,0.2334948 L41.1580071,0.32970168 L41.1580071,0.75291832 L41.2934904,0.75291832 C41.816796,0.75291832 41.9288865,0.94533208 41.9288865,1.84946608 L41.9288865,7.92840664 C41.9288865,8.83265768 41.816796,9.02507144 41.2934904,9.02507144 L41.0958429,9.02507144 L41.0958429,9.4673656 L43.8103824,9.4673656 L43.8103824,9.02507144 L43.6110021,9.02507144 C43.0858554,9.02507144 42.9754977,8.83254064 42.9754977,7.92840664 L42.9754977,0.2334948" id="path3231" fill="#999B9E"></path>
                    <path d="M48.7681398,6.27404624 C48.7074918,4.23485832 47.8103346,2.9652084 46.4539854,2.9652084 C45.143772,2.9652084 44.1985296,4.35025976 44.1985296,6.27404624 C44.1985296,8.33242872 45.1313175,9.6598964 46.5767976,9.6598964 C47.5113183,9.6598964 48.1592772,9.12116128 48.6951456,7.92840664 L48.3214023,7.71679832 C47.8852782,8.7171392 47.4491541,9.12116128 46.7761779,9.12116128 C45.7918392,9.12116128 45.3700107,8.27484504 45.3573396,6.27404624 L48.7681398,6.27404624 M45.3699024,5.79301184 C45.3806241,4.35025976 45.8147988,3.44612576 46.5144168,3.44612576 C47.2121937,3.44612576 47.6233005,4.3310652 47.6109543,5.79301184 L45.3699024,5.79301184" id="path3233" fill="#999B9E"></path>
                    <g id="g3235" transform="translate(52.092300, 2.808960)" fill="#999B9E">
                        <g id="g3237">
                            <path d="M0.6485004,-0.0005852 C0.753768,-0.0005852 0.8565447,0.02855776 0.9568305,0.08696072 C1.0571163,0.14536368 1.1352006,0.22893024 1.1910834,0.33754336 C1.2471828,0.44615648 1.2751242,0.5594512 1.2751242,0.67742752 C1.2751242,0.79423344 1.2475077,0.9064748 1.1922747,1.0141516 C1.1372583,1.12194544 1.0598238,1.20562904 0.9605127,1.2652024 C0.860985,1.32477576 0.757017,1.35462096 0.6483921,1.35462096 C0.5397672,1.35462096 0.4357992,1.3248928 0.3362715,1.2652024 C0.2368521,1.20562904 0.1593093,1.12206248 0.1040763,1.0141516 C0.0486267,0.9064748 0.0209019,0.79423344 0.0209019,0.67742752 C0.0209019,0.5594512 0.0489516,0.44615648 0.1052676,0.33754336 C0.1614753,0.22893024 0.2397762,0.14524664 0.3398454,0.08696072 C0.4405644,0.02855776 0.5433411,-0.0005852 0.6485004,-0.0005852 L0.6485004,-0.0005852 Z M0.6485004,0.11224136 C0.5605608,0.11224136 0.4747872,0.13658568 0.3916128,0.18539136 C0.3083301,0.23419704 0.2431335,0.3037188 0.196023,0.39430776 C0.1490208,0.48489672 0.125628,0.579348 0.125628,0.67731048 C0.125628,0.7748048 0.1486959,0.86820272 0.19494,0.95762128 C0.2410758,1.04703984 0.3057309,1.11667864 0.3886887,1.16665472 C0.4717548,1.2166308 0.5583948,1.24156032 0.6485004,1.24156032 C0.7388226,1.24156032 0.825246,1.2166308 0.9083121,1.16665472 C0.9912699,1.11679568 1.0557084,1.04715688 1.1016276,0.95762128 C1.1475468,0.86820272 1.1706147,0.7748048 1.1706147,0.67731048 C1.1706147,0.579348 1.1472219,0.48489672 1.1004363,0.39430776 C1.0536507,0.30383584 0.9885624,0.23419704 0.9049548,0.18539136 C0.8214555,0.13658568 0.7360068,0.11224136 0.6485004,0.11224136 L0.6485004,0.11224136 Z M0.3734184,1.05125328 L0.3734184,0.32209408 L0.6057219,0.32209408 C0.6848892,0.32209408 0.7425048,0.3288824 0.7779189,0.342342 C0.8135496,0.3558016 0.8418159,0.37932664 0.8628261,0.41291712 C0.8839446,0.44639056 0.894558,0.48208776 0.894558,0.51977464 C0.894558,0.57302784 0.8767968,0.61949272 0.841491,0.6589352 C0.8064018,0.69837768 0.7595079,0.72061528 0.7011342,0.72541392 C0.7250685,0.7361816 0.7441293,0.749056 0.7585332,0.76403712 C0.7858248,0.79271192 0.8190729,0.8409324 0.8583858,0.90858152 L0.9408021,1.05137032 L0.8072682,1.05137032 L0.7471617,0.93632 C0.7000512,0.84631624 0.6622545,0.78990296 0.6337716,0.76696312 C0.6138444,0.74999232 0.5847117,0.74156544 0.5464818,0.74156544 L0.4823682,0.74156544 L0.4823682,1.05137032 L0.3734184,1.05137032 L0.3734184,1.05125328 Z M0.4824765,0.6413792 L0.6152523,0.6413792 C0.6784995,0.6413792 0.7217112,0.63119672 0.7448874,0.61071472 C0.7680636,0.59023272 0.7794351,0.56319648 0.7794351,0.52948896 C0.7794351,0.50783656 0.7739118,0.48840792 0.7627569,0.47132008 C0.751602,0.45423224 0.7363317,0.44135784 0.7164045,0.43293096 C0.6966939,0.42450408 0.6600885,0.42040768 0.6066966,0.42040768 L0.4824765,0.42040768 L0.4824765,0.6413792 L0.4824765,0.6413792 Z" id="path3239"></path>
                        </g>
                    </g>
                </g>
            </g>
        </g>
    </g>
</svg>