<?xml version="1.0" encoding="UTF-8"?>
<svg width="28px" height="24px" viewBox="0 0 28 24" version="1.1" xmlns="http://www.w3.org/2000/svg" xmlns:xlink="http://www.w3.org/1999/xlink">
    <!-- Generator: Sketch 54 (76480) - https://sketchapp.com -->
    <title>noun_price tags_1800097</title>
    <desc>Created with Sketch.</desc>
    <g id="Holiday-Sale-Product" stroke="none" stroke-width="1" fill="none" fill-rule="evenodd">
        <g id="Desktop-/-1-Copy-4" transform="translate(-1336.000000, -576.000000)" fill="#FF0048" fill-rule="nonzero">
            <g id="noun_price-tags_1800097" transform="translate(1336.000000, 576.000000)">
                <g id="Group" transform="translate(0.000000, 0.600000)">
                    <path d="M16.701,0.1 C16.316,0.074 15.91878,0.162 15.5623,0.3675 L1.2983,8.6019 C0.57114,9.0217 0.31794,9.9665 0.73775,10.6937 L5.20655,18.4339 C5.62641,19.161 6.57125,19.4142 7.29835,18.9945 L21.56235,10.7601 C22.03764,10.4857 22.36343,10.0403 22.49595,9.5453 C22.84745,8.2333 23.25523,6.4827 23.60145,5.0824 C24.36743,5.1644 25.05105,5.311 25.56235,5.4906 C25.90566,5.6112 26.17057,5.7496 26.32016,5.8636 C26.45946,5.9697 26.45756,6.0121 26.45688,5.9906 C26.45288,5.9906 26.45488,5.9906 26.44688,6.0006 C26.40638,6.0436 26.3024,6.1201 26.14219,6.1939 C25.82177,6.3415 25.29107,6.4787 24.64809,6.5513 C24.6316673,6.55382053 24.6153804,6.55715801 24.59929,6.5613 C24.61359,6.5613 24.63149,6.5513 24.62659,6.5513 C24.61959,6.5519 24.60459,6.5513 24.58559,6.5513 C24.54749,6.5513 24.49419,6.5613 24.44106,6.5613 C24.33483,6.5713 24.29168,6.561 24.18129,6.5753 C24.0033538,6.5923951 23.8480542,6.70311947 23.7738909,6.86576428 C23.6997277,7.02840909 23.717968,7.21826473 23.8217409,7.36381438 C23.9255139,7.50936402 24.0990538,7.58849522 24.27699,7.5714 C24.20829,7.5814 24.38098,7.5614 24.49183,7.5594 C24.54723,7.5594 24.60362,7.5597 24.65199,7.5494 C24.67619,7.5494 24.69799,7.5496 24.72039,7.5394 C24.72939,7.5387 24.75169,7.5294 24.75949,7.5294 L24.76149,7.5294 C25.47528,7.4484 26.08499,7.3069 26.56029,7.088 C26.79822,6.9784 27.00608,6.8505 27.17552,6.6701 C27.34497,6.4897 27.4756,6.2301 27.46459,5.9494 C27.44919,5.5572 27.20351,5.2666 26.92552,5.0548 C26.64754,4.843 26.30105,4.6789 25.89232,4.5353 C25.07487,4.2483 24.00572,4.0581 22.82982,4.0099 L22.82982,4.0219 C21.65392,3.9739 20.59572,4.0739 19.78882,4.2973 C19.38535,4.4089 19.04336,4.5476 18.76542,4.7485 C18.48744,4.9495 18.24024,5.2703 18.25565,5.6626 C18.26825,5.9825 18.44282,6.2407 18.64823,6.4321 C18.68963,6.4711 18.74173,6.5001 18.7869,6.5356 C18.5889,6.5816 18.37565,6.5686 18.17753,6.4866 C17.77998,6.3219 17.53612,5.9257 17.56424,5.4963 C17.59234,5.0669 17.88689,4.7074 18.30253,4.596 C18.5683859,4.52334034 18.7254878,4.24943792 18.6539716,3.98327211 C18.5824554,3.71710629 18.3092308,3.55882852 18.04276,3.6292 C17.21692,3.8505 16.62216,4.5789 16.56616,5.4319 C16.51026,6.2851 17.00674,7.0832 17.79666,7.4104 C18.5865,7.7375 19.50256,7.522 20.06616,6.8792 C20.4858,6.4006 20.64038,5.7615 20.51733,5.1604 C21.08903,5.0541 21.80443,5.0005 22.58763,5.0198 C22.24769,6.4016 21.85897,8.0559 21.52903,9.2874 C21.46323,9.5334 21.30661,9.7516 21.06223,9.8928 L6.79823,18.1272 C6.53584,18.2787 6.22516,18.1962 6.07362,17.9338 L1.60482,10.1936 C1.45324,9.9311 1.53582,9.6184 1.79818,9.467 L16.06018,1.2327 C16.30459,1.0918 16.57595,1.0654 16.8219,1.1311 L22.4157,2.7346 C22.4183666,2.73462133 22.4210334,2.73462133 22.4237,2.7346 C22.60555,2.7836 22.74742,2.8908 22.84167,3.0315 C22.9379352,3.18720079 23.111584,3.27785624 23.2943661,3.26783555 C23.4771483,3.25781487 23.6398461,3.14871985 23.7185135,2.9834287 C23.797181,2.81813756 23.779243,2.62307211 23.67175,2.4749 C23.44705,2.1393 23.10149,1.8797 22.68347,1.7678 L17.08777,0.1624 C17.0851034,0.162378668 17.0824366,0.162378668 17.07977,0.1624 C16.95609,0.1294 16.8292,0.1064 16.70086,0.0984 L16.701,0.1 Z M19.5467,5.4535 C19.5603,5.5756 19.5487,5.6963 19.5174,5.8148 C19.4607,5.7768 19.36352,5.7328 19.3299,5.7015 C19.2433,5.6205 19.2545,5.594 19.2557,5.6235 C19.2567,5.6595 19.226,5.6485 19.3514,5.5585 C19.3959,5.5265 19.47326,5.4895 19.54672,5.4531 L19.5467,5.4535 Z M10.1053,8.1507 C9.88937,8.1687 9.67939,8.2367 9.47639,8.3539 C9.23269,8.4945 9.05073,8.6586 8.92952,8.8461 C8.80842,9.0335 8.72934,9.2436 8.69514,9.4769 C8.66144,9.71 8.65964,9.9662 8.68914,10.2445 C8.71874,10.5227 8.76264,10.8217 8.82,11.141 C8.8451,11.294 8.8584,11.4277 8.861,11.5433 C8.864,11.6593 8.852,11.7599 8.8258,11.8461 C8.8035,11.9341 8.7647,12.0112 8.70666,12.0765 C8.65036,12.1445 8.57216,12.2074 8.47424,12.264 C8.39724,12.308 8.31803,12.337 8.23791,12.352 C8.16101,12.373 8.08327,12.373 8.00549,12.352 C7.92949,12.332 7.8553,12.293 7.78284,12.2348 C7.71374,12.1788 7.6499,12.1 7.59143,11.9985 C7.53433,11.8964 7.49193,11.7918 7.46252,11.684 C7.43732,11.5742 7.43542,11.4636 7.45852,11.354 C7.48142,11.2447 7.53252,11.1389 7.61281,11.0356 C7.69581,10.9307 7.81803,10.833 7.97805,10.7407 L7.19875,9.3911 C6.90492,9.5607 6.68346,9.7566 6.53273,9.979 C6.38346,10.2004 6.28711,10.4359 6.24563,10.684 C6.20413,10.9321 6.21013,11.1842 6.26323,11.4419 C6.31713,11.7026 6.39953,11.9543 6.51127,12.1958 L5.78862,12.6137 L6.1558,13.2504 L6.8765,12.8344 C7.03798,13.0652 7.21134,13.2563 7.39994,13.4106 C7.5916,13.5676 7.79037,13.6833 7.99369,13.7544 C8.19979,13.8244 8.40883,13.8474 8.62065,13.8284 C8.8351,13.8074 9.04867,13.7364 9.26127,13.6135 C9.5025,13.4743 9.68262,13.3114 9.80229,13.1213 C9.92189,12.9313 10.00013,12.7173 10.03666,12.4827 C10.07296,12.2482 10.07756,11.9927 10.05036,11.7131 C10.02656,11.4349 9.98846,11.138 9.93708,10.8225 C9.91148,10.6592 9.89738,10.5169 9.89608,10.3967 C9.89808,10.2782 9.91118,10.177 9.93518,10.092 C9.95958,10.007 9.99858,9.9339 10.05041,9.8752 C10.10281,9.8162 10.16877,9.7637 10.24963,9.717 C10.32663,9.672 10.40521,9.642 10.48401,9.625 C10.56541,9.605 10.64339,9.602 10.71838,9.615 C10.79508,9.631 10.86729,9.667 10.93518,9.7204 C11.00808,9.7744 11.07349,9.8506 11.13049,9.949 C11.18139,10.037 11.21259,10.1266 11.22619,10.2185 C11.23969,10.3105 11.23219,10.403 11.20079,10.4958 C11.17089,10.5878 11.11579,10.6755 11.03478,10.7615 C10.95528,10.8505 10.84672,10.9347 10.71056,11.0134 L11.49181,12.365 C11.72587,12.2299 11.91799,12.0717 12.06603,11.8865 C12.21376,11.7013 12.31753,11.4971 12.37853,11.2771 C12.44363,11.058 12.46343,10.8256 12.43903,10.5798 C12.41733,10.3364 12.35403,10.0886 12.24958,9.8357 L13.02107,9.3904 L12.65388,8.7556 L11.89607,9.1912 C11.72899,8.953 11.54786,8.754 11.35114,8.5935 C11.15584,8.4324 10.95305,8.3138 10.74177,8.24 C10.53282,8.165 10.32088,8.136 10.10505,8.154 L10.1053,8.1507 Z M19.326,13.2679 C19.1960805,13.2735749 19.073482,13.3296389 18.98421,13.4242 L11.17561,21.4867 C10.96487,21.7041 10.64133,21.7089 10.42366,21.4987 L8.65416,19.7858 C8.52608863,19.6598144 8.34027721,19.6122126 8.16740584,19.6611017 C7.99453446,19.7099908 7.86117434,19.8478562 7.81805382,20.022256 C7.7749333,20.1966558 7.82868022,20.3807837 7.95885,20.5046 L9.72835,22.2174 C10.3315,22.8016 11.31015,22.7849 11.89435,22.1824 L19.70295,14.1199 C19.8478485,13.9737179 19.8883731,13.7536825 19.8050611,13.5654701 C19.721749,13.3772577 19.5316211,13.2593205 19.32599,13.2683 L19.326,13.2679 Z" id="Shape"></path>
                </g>
            </g>
        </g>
    </g>
</svg>