<?xml version="1.0" encoding="UTF-8"?>
<svg width="108px" height="122px" viewBox="0 0 108 122" version="1.1" xmlns="http://www.w3.org/2000/svg" xmlns:xlink="http://www.w3.org/1999/xlink">
    <!-- Generator: Sketch 54 (76480) - https://sketchapp.com -->
    <title>Group 14</title>
    <desc>Created with Sketch.</desc>
    <g id="PDP" stroke="none" stroke-width="1" fill="none" fill-rule="evenodd">
        <g transform="translate(-322.000000, -2144.000000)" id="Group-14">
            <g transform="translate(322.000000, 2144.000000)">
                <path d="M48.9956488,1.25531519 C51.8947758,-0.418437591 55.4663998,-0.418439201 58.3655268,1.25531519 L102.676269,26.838183 C105.575235,28.511939 107.361208,31.605071 107.361208,34.952583 L107.361208,86.118383 C107.361208,89.465895 105.575235,92.559027 102.676269,94.232783 L58.3655268,119.815683 C55.4663998,121.489439 51.8947758,121.489439 48.9956488,119.815683 L4.6849229,94.232783 C1.7858925,92.559027 2.77111667e-13,89.465895 2.77111667e-13,86.118383 L2.77111667e-13,34.952583 C2.77111667e-13,31.605071 1.7858925,28.511939 4.6849229,26.838183 L48.9956488,1.25531519 Z" id="Path" fill="#375A7D" fill-rule="nonzero"></path>
                <path d="M58.1863338,7.33369309 L97.5034998,30.03355 C100.291054,31.642906 102.00828,34.61722 102.00828,37.835932 L102.00828,83.235517 C102.00828,86.454229 100.291054,89.428543 97.5034998,91.037899 L58.1863338,113.737772 C55.3987798,115.347128 51.9644888,115.347128 49.1769348,113.737772 L9.8596078,91.037899 C7.0721504,89.428543 5.3549566,86.454229 5.3549566,83.235517 L5.3549566,37.835932 C5.3549566,34.61722 7.0721343,31.642906 9.8596078,30.03355 L49.1769348,7.33369309 C51.9644888,5.72432099 55.3987798,5.72432099 58.1863338,7.33369309 Z" id="Path" stroke="#FFFFFF" stroke-width="0.72075514"></path>
                <polygon id="Path" fill="#FFFFFF" fill-rule="nonzero" points="41.0675258 23.778217 41.5043188 25.122889 42.9182208 25.122889 41.7743158 25.953971 42.2112698 27.298643 41.0675258 26.467561 39.9236208 27.298643 40.3605748 25.953971 39.2166698 25.122889 40.6305718 25.122889"></polygon>
                <polygon id="Path" fill="#FFFFFF" fill-rule="nonzero" points="46.9078008 23.776768 47.4902988 25.569664 49.3754478 25.569664 47.8502948 26.677666 48.4329538 28.470562 46.9078008 27.36256 45.3826478 28.470562 45.9651458 26.677666 44.4399928 25.569664 46.3251418 25.569664"></polygon>
                <polygon id="Path" fill="#FFFFFF" fill-rule="nonzero" points="67.0160568 23.776768 67.4530108 25.12144 68.8669128 25.12144 67.7230078 25.952361 68.1599618 27.297194 67.0160568 26.466112 65.8723128 27.297194 66.3091058 25.952361 65.1653618 25.12144 66.5792638 25.12144"></polygon>
                <polygon id="Path" fill="#FFFFFF" fill-rule="nonzero" points="61.1807728 23.776768 61.7632708 25.569664 63.6485808 25.569664 62.1234278 26.677666 62.7059258 28.470562 61.1807728 27.36256 59.6556198 28.470562 60.2381178 26.677666 58.7131258 25.569664 60.5982748 25.569664"></polygon>
                <polygon id="Path" fill="#FFFFFF" fill-rule="nonzero" points="54.0373638 23.776768 54.7655668 26.017888 57.1219628 26.017888 55.2155618 27.402971 55.9437648 29.644091 54.0373638 28.259008 52.1309628 29.644091 52.8590048 27.402971 50.9526038 26.017888 53.3091608 26.017888"></polygon>
                <polygon id="Path" fill="#FFFFFF" fill-rule="nonzero" points="41.0675258 94.410688 41.5043188 95.75536 42.9182208 95.75536 41.7743158 96.586442 42.2112698 97.931114 41.0675258 97.100032 39.9236208 97.931114 40.3605748 96.586442 39.2166698 95.75536 40.6305718 95.75536"></polygon>
                <polygon id="Path" fill="#FFFFFF" fill-rule="nonzero" points="46.9045808 92.969738 47.4870788 94.762634 49.3723888 94.762634 47.8472358 95.870797 48.4297338 97.663693 46.9045808 96.55553 45.3794278 97.663693 45.9620868 95.870797 44.4369338 94.762634 46.3220828 94.762634"></polygon>
                <polygon id="Path" fill="#FFFFFF" fill-rule="nonzero" points="67.0160568 94.410688 67.4530108 95.75536 68.8669128 95.75536 67.7230078 96.586442 68.1599618 97.931114 67.0160568 97.100032 65.8723128 97.931114 66.3091058 96.586442 65.1653618 95.75536 66.5792638 95.75536"></polygon>
                <polygon id="Path" fill="#FFFFFF" fill-rule="nonzero" points="61.1775528 92.969738 61.7602118 94.762634 63.6453608 94.762634 62.1202078 95.870797 62.7027058 97.663693 61.1775528 96.55553 59.6525608 97.663693 60.2350588 95.870797 58.7099058 94.762634 60.5950548 94.762634"></polygon>
                <polygon id="Path" fill="#FFFFFF" fill-rule="nonzero" points="54.0404228 91.527983 54.7686258 93.769103 57.1251828 93.769103 55.2186208 95.154186 55.9468238 97.395306 54.0404228 96.010223 52.1340218 97.395306 52.8622248 95.154186 50.9558238 93.769103 53.3122198 93.769103"></polygon>
                <path d="M22.1849628,72.258698 L29.8057368,72.258698" id="Path" stroke="#1AB4E7" stroke-width="0.84675535"></path>
                <path d="M16.2575868,74.714592 L29.8055758,74.714592" id="Path" stroke="#1AB4E7" stroke-width="0.84675535"></path>
                <path d="M77.4847598,72.258698 L85.1055338,72.258698" id="Path" stroke="#1AB4E7" stroke-width="0.84675535"></path>
                <path d="M77.4847598,74.713787 L91.0327488,74.713787" id="Path" stroke="#1AB4E7" stroke-width="0.84675535"></path>
                <path d="M32.1234928,74.32143 C32.1234928,76.26792 33.6042098,77.627726 35.4296278,77.627726 C36.7800958,77.627726 37.9441258,76.957161 38.4377518,75.690574 L37.1618268,75.690574 C36.8172868,76.379654 36.2025888,76.705679 35.4296278,76.705679 C34.1443648,76.705679 33.2131408,75.783632 33.2131408,74.32143 C33.2131408,72.859389 34.1443648,71.94668 35.4296278,71.94668 C36.2025888,71.94668 36.8172868,72.272705 37.1618268,72.961785 L38.4377518,72.961785 C37.9441258,71.695198 36.7800958,71.015295 35.4296278,71.015295 C33.6042098,71.015295 32.1234928,72.384439 32.1234928,74.32143 Z M43.2566428,71.089838 L39.6805108,71.089838 L39.6805108,77.571698 L43.2566428,77.571698 L43.2566428,76.705679 L40.7421448,76.705679 L40.7421448,74.721998 L42.9773078,74.721998 L42.9773078,73.855818 L40.7421448,73.855818 L40.7421448,71.956018 L43.2566428,71.956018 L43.2566428,71.089838 Z M48.0008298,73.036328 C48.0008298,73.678879 47.6284368,74.135314 46.7994478,74.135314 L45.6260798,74.135314 L45.6260798,71.965356 L46.7994478,71.965356 C47.6284368,71.965356 48.0008298,72.384439 48.0008298,73.036328 Z M44.5644458,71.099176 L44.5644458,77.571698 L45.6260798,77.571698 L45.6260798,74.982657 L46.4362318,74.982657 L47.9264478,77.571698 L49.1930348,77.571698 L47.5910848,74.889599 C48.6807328,74.619602 49.0904778,73.799951 49.0904778,73.036328 C49.0904778,71.983871 48.3361928,71.099176 46.7994478,71.099176 L44.5644458,71.099176 Z M50.1134718,71.965356 L51.8456708,71.965356 L51.8456708,77.571698 L52.9073048,77.571698 L52.9073048,71.965356 L54.6303268,71.965356 L54.6303268,71.099176 L50.1134718,71.099176 L50.1134718,71.965356 Z M55.7054848,77.571698 L56.7671188,77.571698 L56.7671188,71.099176 L55.7054848,71.099176 L55.7054848,77.571698 Z M58.1610568,77.571698 L59.2226908,77.571698 L59.2226908,74.740674 L61.3647958,74.740674 L61.3647958,73.874494 L59.2226908,73.874494 L59.2226908,71.965356 L61.9701558,71.965356 L61.9701558,71.099176 L58.1610568,71.099176 L58.1610568,77.571698 Z M62.9540268,77.571698 L64.0156608,77.571698 L64.0156608,71.099176 L62.9540268,71.099176 L62.9540268,77.571698 Z M68.9858918,71.089838 L65.4095988,71.089838 L65.4095988,77.571698 L68.9858918,77.571698 L68.9858918,76.705679 L66.4712328,76.705679 L66.4712328,74.721998 L68.7063958,74.721998 L68.7063958,73.855818 L66.4712328,73.855818 L66.4712328,71.956018 L68.9858918,71.956018 L68.9858918,71.089838 Z M72.4076248,71.099176 L70.2935338,71.099176 L70.2935338,77.571698 L72.4076248,77.571698 C74.4843638,77.571698 75.8441698,76.351801 75.8441698,74.358782 C75.8441698,72.356425 74.4843638,71.099176 72.4076248,71.099176 Z M71.3551678,76.705679 L71.3551678,71.965356 L72.4076248,71.965356 C73.9348708,71.965356 74.7545218,72.878065 74.7545218,74.358782 C74.7545218,75.830161 73.9348708,76.705679 72.4076248,76.705679 L71.3551678,76.705679 Z" id="Shape" fill="#FFFFFF" fill-rule="nonzero"></path>
                <path d="M25.7008808,53.123043 L25.7008808,44.678432 L22.3928138,44.678432 L22.3928138,53.252809 C22.3928138,55.625627 21.1592318,56.842787 19.1499518,56.842787 C17.1408328,56.842787 15.9124028,55.581835 15.9124028,53.145744 L15.9124028,44.678432 L12.5972518,44.678432 L12.5972518,53.229947 C12.5972518,57.63378 15.0647378,59.878603 19.1059988,59.878603 C23.1472598,59.878603 25.7008808,57.656642 25.7008808,53.123043 L25.7008808,53.123043 Z" id="Path" fill="#FFFFFF" fill-rule="nonzero"></path>
                <polygon id="Path" fill="#FFFFFF" points="28.7193088 52.016973 26.4867218 54.899678 30.6798058 54.899678"></polygon>
                <path d="M27.0117428,64.336049 L30.1567168,64.336049 L30.1567168,59.467409 C28.7036918,58.778329 27.5824878,57.617841 27.0117428,56.211828 L27.0117428,64.333151 L27.0117428,64.336049 Z" id="Path" fill="#FFFFFF"></path>
                <path d="M27.0763038,54.795189 C27.3181258,56.318893 28.1353618,57.691901 29.3597668,58.631658 C30.5843328,59.571415 32.1228488,60.006276 33.6584668,59.846725 C35.1942458,59.687174 36.6102408,58.945286 37.6150418,57.774011 C38.6198428,56.602575 39.1368138,55.090946 39.0596948,53.550015 C38.9824148,52.009245 38.3170018,50.556703 37.2001448,49.491366 C36.0832878,48.42619 34.6001558,47.829363 33.0561658,47.823728 C31.5121758,47.818254 30.0248578,48.404455 28.9004338,49.461581 C27.7760098,50.518868 27.1001318,51.966741 27.0117428,53.506867 L28.6953198,51.479877 L29.9762358,53.227854 C30.2750518,51.803648 31.4184738,50.780332 33.0429638,50.780332 C34.6676148,50.780332 36.1869718,52.182159 36.1869718,53.920476 C36.1877768,54.677498 35.9147208,55.409565 35.4183578,55.981598 C34.9218338,56.553631 34.2353298,56.927151 33.4850698,57.033572 C32.7348098,57.140154 31.9713478,56.972231 31.3350758,56.560876 C30.6989648,56.149682 30.2327088,55.522587 30.0224428,54.795189 L27.0763038,54.795189 Z" id="Path" fill="#FFFFFF"></path>
                <polygon id="Path" fill="#FFFFFF" fill-rule="nonzero" points="41.8862108 60.093377 44.7887188 60.093377 44.7887188 47.535216 49.6697558 47.535216 49.6697558 44.941023 37.0051738 44.941023 37.0051738 47.535216 41.8862108 47.535216"></polygon>
                <path d="M48.7657408,49.676677 L48.7657408,60.252123 L51.4668378,60.252123 L51.4668378,54.674922 C51.4668378,52.723119 52.7728698,51.992662 54.1916018,51.992662 C54.5470898,51.977045 54.9024168,52.029531 55.2368138,52.147383 C55.5713718,52.265074 55.8785598,52.445877 56.1406678,52.679166 L57.3595988,50.405202 C56.7600348,49.826246 55.6756998,49.396698 54.5475728,49.396698 C53.4196068,49.396698 52.3096728,49.590381 51.4686088,50.899794 L51.2688078,49.676677 L48.7657408,49.676677 Z" id="Path" fill="#FFFFFF" fill-rule="nonzero"></path>
                <path d="M66.7320528,50.613536 C66.1273368,49.543369 64.7696238,48.872643 63.3483158,48.872643 C60.2455238,48.85123 57.8094328,50.786611 57.8094328,54.482527 C57.8094328,58.244614 60.1376538,60.201408 63.2898728,60.179995 C64.4761208,60.158582 66.1344208,59.550324 66.7391368,58.289211 L66.8680978,59.853487 L69.3433118,59.853487 L69.3433118,49.134751 L66.8115868,49.134751 L66.7249688,50.613536 L66.7320528,50.613536 Z M63.5780628,51.243207 C67.7149578,51.243207 67.7149578,57.745192 63.5780628,57.745192 C61.8331448,57.745192 60.4311568,56.526744 60.4311568,54.482527 C60.4311568,52.43831 61.8331448,51.243207 63.5780628,51.243207 Z" id="Shape" fill="#FFFFFF" fill-rule="nonzero"></path>
                <path d="M76.6831408,51.350272 C77.0993258,51.343349 77.5126128,51.419502 77.8980468,51.574062 C78.2836418,51.728783 78.6336558,51.95853 78.9268368,52.249779 C79.2201788,52.541028 79.4507308,52.887822 79.6048078,53.26907 C79.7588848,53.650479 79.8334278,54.058453 79.8236068,54.468842 C79.8236068,56.396978 78.3731578,57.610757 76.6831408,57.610757 C74.9931238,57.610757 73.6075578,56.333061 73.6075578,54.468842 C73.6075578,52.542638 74.9696178,51.350272 76.6831408,51.350272 Z M79.9982918,44.679237 L79.9982918,50.591479 C79.3623418,49.487824 77.5821648,48.880049 76.4398698,48.880049 C73.2778298,48.880049 70.9283568,50.786933 70.9283568,54.468842 C70.9283568,57.978642 73.3229098,60.057635 76.5137688,60.057635 C77.8309098,60.057635 79.1713958,59.625833 80.0055368,58.346366 L80.1856958,59.819516 L82.6884408,59.819516 L82.6884408,44.679237 L79.9982918,44.679237 Z" id="Shape" fill="#FFFFFF" fill-rule="nonzero"></path>
                <path d="M95.1839728,55.492158 C95.5948448,51.085588 93.3703078,48.872482 89.8083438,48.872482 C86.3544108,48.872482 84.1511258,51.215515 84.1511258,54.471901 C84.1511258,57.901201 86.3331588,60.180156 89.9960698,60.180156 C91.6149248,60.180156 93.4500028,59.61569 94.5729778,58.444254 L92.8884348,56.772269 C92.2845238,57.400813 91.0110138,57.771113 90.0385738,57.771113 C88.1824048,57.771113 87.0381778,56.815095 86.8646198,55.492158 L95.1839728,55.492158 Z M86.9159788,53.300465 C87.3038278,51.909908 88.4693068,51.215515 89.8951228,51.215515 C91.4059468,51.215515 92.4864178,51.909908 92.6582048,53.300465 L86.9159788,53.300465 Z" id="Shape" fill="#FFFFFF" fill-rule="nonzero"></path>
            </g>
        </g>
    </g>
</svg>