<?xml version="1.0" encoding="UTF-8"?>
<svg width="40px" height="17px" viewBox="0 0 40 17" version="1.1" xmlns="http://www.w3.org/2000/svg" xmlns:xlink="http://www.w3.org/1999/xlink">
    <!-- Generator: Sketch 62 (91390) - https://sketch.com -->
    <title>ATT/Active</title>
    <desc>Created with Sketch.</desc>
    <g id="PDP-2" stroke="none" stroke-width="1" fill="none" fill-rule="evenodd">
        <g id="Artboard" transform="translate(-422.000000, -46.000000)" fill="#FFFFFF" fill-rule="nonzero">
            <g id="ATT/Active" transform="translate(422.000000, 46.000000)">
                <g id="AT&amp;T_logo_2016">
                    <path d="M36.4174968,11.3496496 C36.3122978,11.3496496 36.2398458,11.2767258 36.2398458,11.1718414 L36.2398458,5.96186136 L34.4699803,5.96186136 C34.364742,5.96186136 34.2921721,5.8892521 34.2921721,5.78424974 L34.2921721,5.06558707 C34.2921721,4.96034885 34.3647814,4.88754302 34.4699803,4.88754302 L39.1810517,4.88754302 C39.286172,4.88754302 39.3585454,4.96042747 39.3585454,5.06558707 L39.3585454,5.78421043 C39.3585454,5.88913416 39.286172,5.96186136 39.1810517,5.96186136 L37.4113041,5.96186136 L37.4113041,11.1717628 C37.4113041,11.2767258 37.3384983,11.3496496 37.2336532,11.3496496 L36.4174968,11.3496496 M22.8600459,8.74853179 L21.9309854,6.08317819 L20.9935908,8.74853179 L22.8600459,8.74853179 Z M24.9206237,11.1391338 C24.961233,11.2444114 24.8964468,11.3496496 24.7833069,11.3496496 L23.9430915,11.3496496 C23.821814,11.3496496 23.7490082,11.2932762 23.7084775,11.1796645 L23.2319375,9.80696808 L20.622171,9.80696808 L20.1448054,11.1796645 C20.1047072,11.2933155 20.0317048,11.3496496 19.9107418,11.3496496 L19.119116,11.3496496 C19.0139171,11.3496496 18.941072,11.244372 18.981524,11.1391338 L21.171281,5.04942984 C21.2118117,4.93597541 21.2844996,4.88781821 21.4054626,4.88781821 L22.4882724,4.88781821 C22.6095892,4.88781821 22.6904147,4.93601472 22.7307881,5.04942984 L24.9206237,11.1391338 M31.1973349,10.4771197 C31.7142484,10.4771197 32.0618844,10.2271347 32.3447736,9.7988305 L31.0359591,8.39319062 C30.5347311,8.67611909 30.2113506,8.95845787 30.2113506,9.52403962 C30.2114292,10.0814838 30.6637138,10.4771197 31.1973349,10.4771197 M31.5608923,5.74371907 C31.1408436,5.74371907 30.8984458,6.01052962 30.8984458,6.36587078 C30.8984458,6.6404651 31.0435857,6.88282358 31.3750251,7.238322 C31.9486658,6.90692184 32.1912209,6.70509403 32.1912209,6.34979218 C32.1912209,6.0183527 31.9812162,5.74371907 31.5608923,5.74371907 M35.1408396,11.1234483 C35.2457633,11.2366276 35.1812523,11.3496496 35.0516013,11.3496496 L34.0254009,11.3496496 C33.888084,11.3496496 33.8153568,11.3171779 33.7265117,11.2120576 L33.112419,10.533847 C32.7003899,11.0831535 32.1261988,11.494986 31.1729221,11.494986 C29.9932476,11.494986 29.0637154,10.7842251 29.0637154,9.56476685 C29.0637154,8.62749014 29.5649827,8.12657664 30.3246478,7.70664586 C29.9526384,7.27857749 29.7832823,6.8262143 29.7832823,6.43061765 C29.7832823,5.42875133 30.4862201,4.74228518 31.5445778,4.74228518 C32.6273875,4.74228518 33.2901092,5.38063344 33.2901092,6.32549736 C33.2901092,7.13324102 32.7084489,7.58517178 32.0941202,7.92467021 L32.999279,8.90235965 L33.5082515,8.01351533 C33.5728411,7.90867022 33.6456076,7.86813955 33.7747082,7.86813955 L34.5583536,7.86813955 C34.6878474,7.86813955 34.7605746,7.95722054 34.6800243,8.09445874 L33.7748262,9.64508126 L35.1408396,11.1234483 M27.0767297,11.3496496 C27.1817713,11.3496496 27.2548524,11.2767258 27.2548524,11.1718414 L27.2548524,5.96186136 L29.0242068,5.96186136 C29.1292485,5.96186136 29.2018971,5.8892521 29.2018971,5.78424974 L29.2018971,5.06558707 C29.2018971,4.96034885 29.1292485,4.88754302 29.0242068,4.88754302 L24.3131354,4.88754302 C24.2079365,4.88754302 24.1353665,4.96042747 24.1353665,5.06558707 L24.1353665,5.78421043 C24.1353665,5.88913416 24.2079758,5.96186136 24.3131354,5.96186136 L26.0824899,5.96186136 L26.0824899,11.1717628 C26.0824899,11.2767258 26.155453,11.3496496 26.2603767,11.3496496 L27.0767297,11.3496496 L27.0767297,11.3496496 Z" id="path5"></path>
                    <path d="M3.16249315,14.4922509 C4.53287016,15.5530459 6.25292741,16.1904113 8.11910736,16.1904113 C10.1613264,16.1904113 12.0231035,15.4322008 13.4439964,14.1875829 C13.461215,14.1723691 13.4527236,14.1623052 13.4357409,14.1723691 C12.7981395,14.5981967 10.980903,15.5277289 8.11918598,15.5277289 C5.63223024,15.5277289 4.06057579,14.9728401 3.17302877,14.4774302 C3.15604598,14.4690568 3.14975606,14.4817939 3.16249315,14.4922509 M8.66778494,14.9052627 C10.6568935,14.9052627 12.84268,14.3630323 14.1499613,13.2896968 C14.5077005,12.9972548 14.8484569,12.6080267 15.153636,12.0849412 C15.3293213,11.7839686 15.501154,11.4263866 15.6411048,11.074898 C15.647316,11.057758 15.6367411,11.0494238 15.6238468,11.0686867 C14.4081625,12.8576972 10.8878122,13.9735683 7.25286744,13.9735683 C4.68355306,13.9735683 1.91901528,13.1519475 0.836677296,11.5831236 C0.826023744,11.5686174 0.815370192,11.5748287 0.821856672,11.591497 C1.83013085,13.7345514 4.88899757,14.9052627 8.66778494,14.9052627 M6.49449965,11.3500427 C2.35754064,11.3500427 0.4068792,9.42328296 0.053031888,8.1084145 C0.048668256,8.08938749 0.036127728,8.09355456 0.036127728,8.11065528 C0.036127728,8.5533084 0.080432352,9.12455107 0.15665832,9.50371531 C0.19302192,9.68828515 0.343233072,9.97793597 0.563458896,10.2088153 C1.56520728,11.2529814 4.06269864,12.7160954 8.38796213,12.7160954 C14.2809489,12.7160954 15.6283677,10.75309 15.9035124,10.1075476 C16.1002689,9.6458675 16.2022049,8.81154893 16.2022049,8.11069459 C16.2022049,7.94110262 16.1979592,7.80563347 16.1915514,7.67264098 C16.1915514,7.65105869 16.1790502,7.64928965 16.1747258,7.67032157 C15.8802396,9.24991704 10.8453552,11.3500427 6.49449965,11.3500427 M0.815370192,4.64443762 C0.578318832,5.11488432 0.315557424,5.90855429 0.23744448,6.31932538 C0.203203728,6.4953252 0.21778848,6.579846 0.27950832,6.71118739 C0.775350576,7.76321582 3.28341686,9.44647704 9.13375008,9.44647704 C12.7028866,9.44647704 15.4754833,8.56962288 15.9246622,6.96950654 C16.0073747,6.67494173 16.0118169,6.3639445 15.9055566,5.94487858 C15.7868343,5.47659403 15.5644857,4.93051104 15.3762991,4.54706179 C15.3700878,4.53456058 15.3591198,4.53640824 15.3613606,4.55118955 C15.4312573,6.64989998 9.57860467,8.00250797 6.62560517,8.00250797 C3.42698429,8.00250797 0.758446416,6.72809155 0.758446416,5.11889414 C0.758446416,4.96428005 0.790446384,4.80962664 0.830387376,4.64868331 C0.8343972,4.63398062 0.82181736,4.63154328 0.815370192,4.64443762 M13.4570873,2.06765395 C13.4910528,2.1208824 13.5079963,2.17768824 13.5079963,2.25415008 C13.5079963,3.15187891 10.7604413,4.74000509 6.38670614,4.74000509 C3.17302877,4.74000509 2.57135861,3.54782938 2.57135861,2.78965814 C2.57135861,2.51864122 2.67529954,2.24133437 2.90421331,1.9597032 C2.91671453,1.94295629 2.90610029,1.93650912 2.89167278,1.94897102 C2.47417934,2.30277902 2.09057285,2.70089165 1.75406213,3.13065043 C1.59327605,3.33389347 1.49346288,3.51394243 1.49346288,3.62181456 C1.49346288,5.19299726 5.43315427,6.3321804 9.11688523,6.3321804 C13.0419526,6.3321804 14.7936953,5.05084507 14.7936953,3.92479214 C14.7936953,3.5223552 14.637037,3.28742669 14.2362904,2.83195786 C13.9761629,2.53566331 13.7301091,2.29440557 13.4696671,2.05692178 C13.4570873,2.04654341 13.4483207,2.05499549 13.4570873,2.06765395 M12.2537863,1.17012168 C11.0424263,0.44402904 9.63572501,0.030938544 8.11918598,0.030938544 C6.59207203,0.030938544 5.1429924,0.458456544 3.9272688,1.20377275 C3.56261069,1.42820496 3.35736274,1.60805736 3.35736274,1.83925123 C3.35736274,2.52076406 4.95008842,3.25353974 7.77579566,3.25353974 C10.5721762,3.25353974 12.7410978,2.45090664 12.7410978,1.6783079 C12.7410978,1.49389531 12.5799186,1.36487333 12.2537863,1.17012168" id="path9"></path>
                </g>
            </g>
        </g>
    </g>
</svg>