<?xml version="1.0" encoding="UTF-8"?>
<svg width="51px" height="8px" viewBox="0 0 51 8" version="1.1" xmlns="http://www.w3.org/2000/svg" xmlns:xlink="http://www.w3.org/1999/xlink">
    <!-- Generator: Sketch 62 (91390) - https://sketch.com -->
    <title>Metro/Disabled</title>
    <desc>Created with Sketch.</desc>
    <g id="PDP-2" stroke="none" stroke-width="1" fill="none" fill-rule="evenodd" opacity="0.5">
        <g id="Artboard" transform="translate(-513.000000, -113.000000)" fill-rule="nonzero">
            <g id="Metro/Disabled" transform="translate(513.000000, 113.000000)">
                <g id="MetroPCS_logo">
                    <path d="M27.6898589,3.45759534 C26.8722564,3.45759534 26.7636307,4.25289076 26.7636307,4.85178701 C26.7636307,5.45116819 26.8722564,6.25713221 27.6898589,6.25713221 C28.5060066,6.25713221 28.6151172,5.45116819 28.6151172,4.85178701 C28.6151172,4.25289076 28.5060066,3.45759534 27.6898589,3.45759534 Z M27.6898589,7.82638586 C25.5643834,7.82638586 24.6061494,6.42055572 24.6061494,4.85178701 C24.6061494,3.2830183 25.5643834,1.88882663 27.6898589,1.88882663 C29.8133947,1.88882663 30.7725985,3.2830183 30.7725985,4.85178701 C30.7725985,6.42055572 29.8133947,7.82638586 27.6898589,7.82638586 M20.2756688,2.03042801 L22.3463465,2.03042801 L22.3463465,2.93434914 L22.3676837,2.93434914 C22.7163529,2.25931791 23.1741327,1.88882663 23.9582746,1.88882663 C24.1764959,1.88882663 24.3835637,1.92133675 24.5901465,1.97563021 L24.5901465,3.88239948 C24.3719252,3.80577956 24.1764959,3.7407981 23.7405382,3.7407981 C22.8909299,3.7407981 22.4326652,4.24222216 22.4326652,5.45116819 L22.4326652,7.68478448 L20.2756688,7.68478448 L20.2756688,2.03042801 M18.7243578,2.03042801 L19.8799609,2.03042801 L19.8799609,3.35915328 L18.7243578,3.35915328 L18.7243578,5.33138894 C18.7243578,5.8541502 18.844622,6.0830401 19.3892054,6.0830401 C19.5526289,6.0830401 19.7165374,6.07237151 19.8799609,6.05006444 L19.8799609,7.68478448 C19.4430333,7.68478448 18.9537327,7.75025087 18.4959529,7.75025087 C17.5808782,7.75025087 16.5678464,7.60864949 16.5678464,6.06121797 L16.5678464,3.35915328 L15.6091275,3.35915328 L15.6091275,2.03042801 L16.5678464,2.03042801 L16.5678464,0.30890438 L18.7243578,0.30890438 L18.7243578,2.03042801 M13.80274,4.22040003 C13.80274,3.69763878 13.4109115,3.27283464 12.8546897,3.27283464 C12.2121492,3.27283464 11.8416579,3.61083519 11.7437007,4.22040003 L13.80274,4.22040003 Z M11.7325472,5.34205754 C11.787345,5.98459805 12.1573514,6.44286279 12.8328675,6.44286279 C13.1815367,6.44286279 13.5626966,6.31193001 13.7377585,6.03988078 L15.7531535,6.03988078 C15.3176808,7.25949541 14.129587,7.82638586 12.8440211,7.82638586 C11.0352089,7.82638586 9.67350797,6.75807134 9.67350797,4.87360914 C9.67350797,3.22870544 10.8722703,1.88882663 12.6587754,1.88882663 C14.9035452,1.88882663 15.8724478,3.14190185 15.8724478,5.34205754 L11.7325472,5.34205754 M-2.84217094e-15,2.03042801 L2.08086137,2.03042801 L2.08086137,2.78207917 L2.10219857,2.78207917 C2.53767131,2.12838513 3.17002815,1.88882663 3.95417004,1.88882663 C4.56470476,1.88882663 5.21791387,2.20452011 5.47929449,2.77092563 C5.56658302,2.70594418 6.00254069,1.88882663 7.40788589,1.88882663 C8.85687536,1.88882663 9.34666095,2.89118982 9.34666095,3.80577956 L9.34666095,7.68478448 L7.19014952,7.68478448 L7.19014952,4.62338204 C7.19014952,4.08946725 7.13486679,3.61083519 6.48165769,3.61083519 C5.9370743,3.61083519 5.75182866,4.03515439 5.75182866,4.62338204 L5.75182866,7.68478448 L3.59483229,7.68478448 L3.59483229,4.62338204 C3.59483229,4.08946725 3.5400345,3.61083519 2.88682539,3.61083519 C2.342242,3.61083519 2.15651143,4.03515439 2.15651143,4.62338204 L2.15651143,7.68478448 L-2.84217094e-15,7.68478448 L-2.84217094e-15,2.03042801" id="path4252" fill="#353192"></path>
                    <path d="M48.8442322,2.32332949 C48.7913741,1.04018822 47.8253812,0.399587456 46.4370087,0.399587456 C45.5854607,0.399587456 44.3765147,0.756500523 44.3765147,1.99745234 C44.3765147,3.20591344 45.659171,3.4061921 46.9316437,3.66902754 C48.2133301,3.93186298 49.4964714,4.25725519 49.4964714,5.75037385 C49.4964714,7.30604928 48.0038377,7.86324102 46.8579334,7.86324102 C45.1019793,7.86324102 43.6728722,7.13777641 43.6932395,5.20385071 L44.1558687,5.20385071 C44.0613061,6.84390505 45.3754833,7.46365356 46.8579334,7.46365356 C47.7618545,7.46365356 49.0338422,7.05388244 49.0338422,5.75037385 C49.0338422,4.47838611 47.7511859,4.25725519 46.4690145,3.99490469 C45.1970268,3.73206925 43.9134006,3.42704436 43.9134006,1.99745234 C43.9134006,0.557191731 45.2493999,0 46.4370087,0 C48.0038377,0 49.233636,0.672606555 49.3073463,2.32332949 L48.8442322,2.32332949 M42.8504203,2.41789206 C42.6501417,1.15657292 41.5464268,0.399587456 40.2952913,0.399587456 C38.3303297,0.399587456 37.1839405,2.00715107 37.1839405,3.93186298 C37.1839405,5.85512007 38.3303297,7.46365356 40.2952913,7.46365356 C41.7568891,7.46365356 42.8926098,6.16014497 42.9769887,4.76207381 L43.4391329,4.76207381 C43.2703751,6.54906382 41.9455293,7.86324102 40.2952913,7.86324102 C38.0461571,7.86324102 36.7208264,6.12862411 36.7208264,3.93186298 C36.7208264,1.73413197 38.0461571,0 40.2952913,0 C42.9551666,0 43.3023809,2.31266089 43.3130495,2.41789206 L42.8504203,2.41789206 M31.6648812,3.9415617 L34.3039042,3.9415617 C35.6597859,3.9415617 36.122415,3.0487941 36.122415,2.27047144 C36.122415,1.71327971 35.8697633,0.57804399 34.3674308,0.57804399 L31.6648812,0.57804399 L31.6648812,3.9415617 L31.6648812,3.9415617 Z M31.2017671,0.17894147 L34.3974969,0.17894147 C35.2495298,0.17894147 36.5845593,0.483481424 36.5845593,2.28114004 C36.5845593,3.59531723 35.7228276,4.34163409 34.2301939,4.34163409 L31.6648812,4.34163409 L31.6648812,7.68478448 L31.2017671,7.68478448 L31.2017671,0.17894147" id="path4264" fill="#F15C22"></path>
                    <path d="M50.3087396,7.40449134 C50.3703265,7.40449134 50.4246394,7.39913764 50.4246394,7.32593167 C50.4246394,7.26725438 50.3712964,7.25561592 50.320863,7.25561592 L50.2214511,7.25561592 L50.2214511,7.40449134 L50.3087396,7.40449134 Z M50.2214511,7.67266108 L50.1496805,7.67266108 L50.1496805,7.19451395 L50.3315316,7.19451395 C50.4445217,7.19451395 50.4998045,7.2367034 50.4998045,7.33078103 C50.4998045,7.41612981 50.4469464,7.4534699 50.3766307,7.46219875 L50.5128978,7.67266108 L50.4309435,7.67266108 L50.305345,7.46510837 L50.2214511,7.46510837 L50.2214511,7.67266108 L50.2214511,7.67266108 Z M50.3097095,7.77934705 C50.4973798,7.77934705 50.6452853,7.63192643 50.6452853,7.43261764 C50.6452853,7.2367034 50.4973798,7.08831291 50.3097095,7.08831291 C50.1210693,7.08831291 49.9717089,7.2367034 49.9717089,7.43261764 C49.9717089,7.63192643 50.1210693,7.77934705 50.3097095,7.77934705 Z M49.8897547,7.43261764 C49.8897547,7.19451395 50.0817894,7.01945197 50.3097095,7.01945197 C50.5356898,7.01945197 50.7282094,7.19451395 50.7282094,7.43261764 C50.7282094,7.67266108 50.5356898,7.84820799 50.3097095,7.84820799 C50.0817894,7.84820799 49.8897547,7.67266108 49.8897547,7.43261764" id="path4268" fill="#353192"></path>
                </g>
            </g>
        </g>
    </g>
</svg>